<svg width="1167" height="806" viewBox="0 0 1167 806" fill="none" xmlns="http://www.w3.org/2000/svg">
<g clip-path="url(#clip0)">
<path opacity="0.1" d="M659.62 109.61C584.87 109.71 512.92 88.5201 444.1 64.9801C375.28 41.4401 306.99 15.0801 233.63 3.91007C186.45 -3.26993 132.8 -2.60993 95.9199 23.4601C60.4199 48.5401 50.1399 90.0501 45.1799 128.4C41.4499 157.25 39.7299 187.53 53.6999 213.92C63.3999 232.24 79.9999 247.34 91.6999 264.8C132.54 325.54 107.98 403.13 68.2899 465.28C49.6799 494.44 27.8799 522.39 13.8099 553.22C-0.260091 584.05 -6.03009 619.01 8.31991 649.44C22.5399 679.6 54.6599 701.49 89.1299 716.44C159.13 746.86 240.63 753.38 319.94 755.89C495.5 761.46 671.4 750.1 846.83 738.74C911.75 734.54 976.96 730.31 1040.54 718.14C1075.84 711.39 1112.19 701.37 1137.22 679.41C1168.99 651.53 1175.49 606.01 1152.37 573.29C1113.6 518.41 1011.37 508.06 983.57 448.68C968.24 415.99 981.46 378.5 1000.93 346.99C1042.69 279.38 1114.57 218.82 1115.78 143.2C1116.61 91.2701 1079.23 40.6101 1023.4 18.0401C964.88 -5.59993 885.09 0.480068 844.09 44.5401C801.93 89.9301 725.62 109.54 659.62 109.61Z" fill="#AB3C2A"/>
<path d="M992.53 645.36C992.53 645.36 980.24 637.25 968.06 643.02C968.06 643.02 971.81 650.24 987.23 649.56L992.53 645.36Z" fill="#AB3C2A"/>
<path d="M994.09 645.79C994.09 645.79 997.83 660.03 988.45 669.72C988.45 669.72 982.81 663.85 988.45 649.47L994.09 645.79Z" fill="#AB3C2A"/>
<path d="M1009.37 632.12C1009.37 632.12 1008.46 620.01 981.11 624.03C981.11 624.03 980.98 631.84 990.58 635.54C1000.18 639.24 1004.58 636.12 1009.37 632.12Z" fill="#AB3C2A"/>
<path d="M1011.09 632.04C1011.09 632.04 1022.65 635.75 1012.34 661.4C1012.34 661.4 1004.71 659.7 1003.34 649.49C1001.97 639.28 1006.03 635.76 1011.09 632.04Z" fill="#AB3C2A"/>
<path d="M1026.53 614.86C1026.53 614.86 1028.1 594.93 1000.15 596.97C1000.15 596.97 998.15 614.97 1021.6 619.65L1026.53 614.86Z" fill="#AB3C2A"/>
<path d="M1045 592.36C1045 592.36 1041.17 569.77 1013.23 576.5C1013.23 576.5 1013.13 596.03 1040.44 597.74L1045 592.36Z" fill="#AB3C2A"/>
<path d="M1058.5 569.1C1058.5 569.1 1052.08 547.1 1024.4 553.68C1024.4 553.68 1030.99 573.47 1056.66 573.16L1058.5 569.1Z" fill="#AB3C2A"/>
<path d="M1071.32 546.38C1071.32 546.38 1065.05 523.55 1038.32 530.38C1038.32 530.38 1047.24 552.07 1069.55 550.24L1071.32 546.38Z" fill="#AB3C2A"/>
<path d="M1079.58 524.8C1079.58 524.8 1074.76 496.88 1049.84 503.06C1049.84 503.06 1057.08 528.46 1077.75 528.87L1079.58 524.8Z" fill="#AB3C2A"/>
<path d="M1087.33 498.73C1087.33 498.73 1081.54 470.59 1056.33 478.73C1056.33 478.73 1066.21 505.33 1085.54 502.58L1087.33 498.73Z" fill="#AB3C2A"/>
<path d="M1092.09 474.47C1092.09 474.47 1082.9 446.32 1063.41 447.08C1063.41 447.08 1072.8 476.81 1090.46 480.08L1092.09 474.47Z" fill="#AB3C2A"/>
<path d="M1095.17 450.79C1095.17 450.79 1085.17 416.91 1069.31 419.52C1069.31 419.52 1076.23 445.42 1094.61 456.07L1095.17 450.79Z" fill="#AB3C2A"/>
<path d="M1096.91 422.54C1096.91 422.54 1087.53 394.31 1071.91 393.18C1071.91 393.18 1078.29 420.96 1096.6 429.88L1096.91 422.54Z" fill="#AB3C2A"/>
<path d="M1098.8 396.18C1098.8 396.18 1087.11 367.92 1076.8 367.28C1076.8 367.28 1081.88 395.11 1097.8 400.82L1098.8 396.18Z" fill="#AB3C2A"/>
<path d="M1100.09 371.66C1100.09 371.66 1092.9 340.97 1082.57 338.42C1082.57 338.42 1083.98 363.53 1099.05 373.96L1100.09 371.66Z" fill="#AB3C2A"/>
<path d="M1103.99 339.54C1103.99 339.54 1096.43 315.07 1088.06 311.34C1088.06 311.34 1089.71 340.19 1102.06 345.52L1103.99 339.54Z" fill="#AB3C2A"/>
<path d="M1107.22 318.54L1108.74 275.4C1108.74 275.4 1093.09 307.92 1106.09 326.11L1107.22 318.54Z" fill="#AB3C2A"/>
<path d="M1119.3 275.63C1119.3 275.63 1130.57 244.13 1133.3 242.37C1133.3 242.37 1111.2 262.81 1113.36 289.1L1119.3 275.63Z" fill="#AB3C2A"/>
<path d="M1027.29 614.71C1027.29 614.71 1047.11 612.12 1046.52 640.13C1046.52 640.13 1028.61 643.05 1022.76 619.88L1027.29 614.71Z" fill="#AB3C2A"/>
<path d="M1045.94 591.6C1045.94 591.6 1068.84 591.53 1066.94 620.2C1066.94 620.2 1047.71 623.64 1041.37 597.02L1045.94 591.6Z" fill="#AB3C2A"/>
<path d="M1058.72 570.95C1058.72 570.95 1079.51 561.2 1092.81 586.37C1092.81 586.37 1073.61 594.49 1056.88 575.02L1058.72 570.95Z" fill="#AB3C2A"/>
<path d="M1071.78 546.59C1071.78 546.59 1093.07 536.22 1105.57 560.8C1105.57 560.8 1083.39 568.44 1070.02 550.48L1071.78 546.59Z" fill="#AB3C2A"/>
<path d="M1079.31 525.41C1079.31 525.41 1099.8 505.84 1116.15 525.63C1116.15 525.63 1095.22 541.74 1078.37 529.77L1079.31 525.41Z" fill="#AB3C2A"/>
<path d="M1086.17 498.06C1086.17 498.06 1106.78 478.06 1123 498.98C1123 498.98 1099.87 515.41 1085.43 502.26L1086.17 498.06Z" fill="#AB3C2A"/>
<path d="M1090.02 473.67C1090.02 473.67 1105.9 448.67 1124.6 454.25C1124.6 454.25 1108.12 480.72 1090.2 479.54L1090.02 473.67Z" fill="#AB3C2A"/>
<path d="M1094.7 450.63C1094.7 450.63 1110.7 419.15 1125.84 424.63C1125.84 424.63 1114.3 448.83 1094.29 455.94L1094.7 450.63Z" fill="#AB3C2A"/>
<path d="M1095.81 420.9C1095.81 420.9 1112.26 396.12 1127.67 399.15C1127.67 399.15 1114.22 424.28 1094.21 428.07L1095.81 420.9Z" fill="#AB3C2A"/>
<path d="M1097.09 395.63C1097.09 395.63 1109.84 367.82 1120.2 367.63C1120.2 367.63 1114.08 395.24 1097.95 400.35L1097.09 395.63Z" fill="#AB3C2A"/>
<path d="M1099.59 371.06C1099.59 371.06 1113.76 342.9 1124.41 342.84C1124.41 342.84 1117.16 366.92 1100.06 373.53L1099.59 371.06Z" fill="#AB3C2A"/>
<path d="M1101.72 341.3C1101.72 341.3 1112.32 318 1121.1 315.36C1121.1 315.36 1115.8 343.76 1102.89 347.48L1101.72 341.3Z" fill="#AB3C2A"/>
<path d="M1108.48 317.69L1132.17 281.6C1132.17 281.6 1126.1 317.2 1105.02 324.6L1108.48 317.69Z" fill="#AB3C2A"/>
<path d="M1124.74 278.54C1124.74 278.54 1152.27 259.54 1153.27 256.47C1153.27 256.47 1139.27 283.08 1113.27 287.78L1124.74 278.54Z" fill="#AB3C2A"/>
<path d="M1126.39 269.99C1126.39 269.99 1158 239.6 1166.07 239.63C1166.07 239.63 1140 240.82 1125.63 268.37L1126.39 269.99Z" fill="#AB3C2A"/>
<path d="M1102.03 345.81L1103.18 345.96C1109.12 299.47 1117.78 271.96 1127.56 268.59L1127.18 267.49C1116.81 271.09 1108.09 298.18 1102.03 345.81Z" fill="#444053"/>
<path d="M1093.29 456.99L1095.03 457.13C1095.4 452.79 1095.68 448.35 1095.87 443.92C1097.53 405.44 1100.1 370.1 1103.48 343.61L1102.48 342.36C1099.09 368.91 1095.79 405.31 1094.13 443.85C1093.94 448.25 1093.66 452.67 1093.29 456.99Z" fill="#444053"/>
<path d="M960.09 667.54C960.39 667.41 991.02 653.73 1022.81 621.11C1041.44 602.005 1056.91 580.065 1068.66 556.11C1083.36 526.18 1092.32 489.4 1095.32 453.67L1093.51 454.52C1086.76 534.72 1050.25 589.52 1021.22 619.37C989.74 651.7 959.45 665.24 959.15 665.37L960.09 667.54Z" fill="#444053"/>
<path d="M1039.4 85.23H78.52C76.2497 85.23 74.0724 86.1318 72.4671 87.7371C70.8618 89.3424 69.96 91.5197 69.96 93.79V118.73H1047.96V93.79C1047.96 91.5197 1047.06 89.3424 1045.45 87.7371C1043.85 86.1318 1041.67 85.23 1039.4 85.23V85.23Z" fill="#3F3D56"/>
<path d="M69.96 118.73V679.97C69.96 684.548 71.7784 688.938 75.0153 692.175C78.2522 695.411 82.6423 697.23 87.22 697.23H1030.7C1035.28 697.23 1039.67 695.411 1042.9 692.175C1046.14 688.938 1047.96 684.548 1047.96 679.97V118.73H69.96Z" fill="white"/>
<path opacity="0.8" d="M85.45 105.73C87.6591 105.73 89.45 103.939 89.45 101.73C89.45 99.5208 87.6591 97.73 85.45 97.73C83.2408 97.73 81.45 99.5208 81.45 101.73C81.45 103.939 83.2408 105.73 85.45 105.73Z" fill="#FA5959"/>
<path opacity="0.8" d="M96.45 105.73C98.6591 105.73 100.45 103.939 100.45 101.73C100.45 99.5208 98.6591 97.73 96.45 97.73C94.2408 97.73 92.45 99.5208 92.45 101.73C92.45 103.939 94.2408 105.73 96.45 105.73Z" fill="#FED253"/>
<path opacity="0.8" d="M107.45 105.73C109.659 105.73 111.45 103.939 111.45 101.73C111.45 99.5208 109.659 97.73 107.45 97.73C105.241 97.73 103.45 99.5208 103.45 101.73C103.45 103.939 105.241 105.73 107.45 105.73Z" fill="#8CCF4D"/>
<path opacity="0.05" d="M946.87 212.31H160.87V557.93H946.87V212.31Z" fill="black"/>
<path d="M940.87 214.93H166.87V552.93H940.87V214.93Z" fill="#3F3D56"/>
<path d="M377.87 301.92C362.641 301.92 347.754 306.436 335.091 314.897C322.428 323.358 312.559 335.383 306.731 349.453C300.903 363.523 299.378 379.005 302.349 393.942C305.321 408.878 312.654 422.598 323.423 433.367C334.191 444.136 347.911 451.469 362.848 454.44C377.785 457.411 393.267 455.887 407.337 450.059C421.406 444.231 433.432 434.361 441.893 421.699C450.354 409.036 454.87 394.149 454.87 378.92C454.87 368.808 452.878 358.795 449.009 349.453C445.139 340.111 439.467 331.623 432.317 324.473C425.167 317.323 416.679 311.651 407.337 307.781C397.994 303.912 387.982 301.92 377.87 301.92V301.92ZM391.68 380.77V417.23H364.46V380.77C360.693 377.919 357.917 373.956 356.523 369.442C355.13 364.928 355.189 360.09 356.693 355.612C358.197 351.133 361.069 347.24 364.905 344.482C368.741 341.724 373.346 340.24 378.07 340.24C382.794 340.24 387.399 341.724 391.235 344.482C395.07 347.24 397.943 351.133 399.447 355.612C400.951 360.09 401.01 364.928 399.616 369.442C398.223 373.956 395.447 377.919 391.68 380.77V380.77Z" fill="#AB3C2A"/>
<path opacity="0.05" d="M377.87 301.92C362.641 301.92 347.754 306.436 335.091 314.897C322.428 323.358 312.559 335.383 306.731 349.453C300.903 363.523 299.378 379.005 302.349 393.942C305.321 408.878 312.654 422.598 323.423 433.367C334.191 444.136 347.911 451.469 362.848 454.44C377.785 457.411 393.267 455.887 407.337 450.059C421.406 444.231 433.432 434.361 441.893 421.699C450.354 409.036 454.87 394.149 454.87 378.92C454.87 368.808 452.878 358.795 449.009 349.453C445.139 340.111 439.467 331.623 432.317 324.473C425.167 317.323 416.679 311.651 407.337 307.781C397.994 303.912 387.982 301.92 377.87 301.92V301.92ZM391.68 380.77V417.23H364.46V380.77C360.693 377.919 357.917 373.956 356.523 369.442C355.13 364.928 355.189 360.09 356.693 355.612C358.197 351.133 361.069 347.24 364.905 344.482C368.741 341.724 373.346 340.24 378.07 340.24C382.794 340.24 387.399 341.724 391.235 344.482C395.07 347.24 397.943 351.133 399.447 355.612C400.951 360.09 401.01 364.928 399.616 369.442C398.223 373.956 395.447 377.919 391.68 380.77V380.77Z" fill="black"/>
<path d="M377.87 279.92C358.29 279.92 339.149 285.726 322.868 296.604C306.588 307.483 293.899 322.944 286.406 341.034C278.913 359.124 276.952 379.03 280.772 398.234C284.592 417.438 294.021 435.078 307.866 448.923C321.712 462.769 339.352 472.198 358.556 476.018C377.76 479.838 397.666 477.877 415.756 470.384C433.845 462.891 449.307 450.202 460.185 433.921C471.064 417.641 476.87 398.5 476.87 378.92C476.87 352.663 466.44 327.482 447.873 308.916C429.307 290.35 404.126 279.92 377.87 279.92V279.92ZM395.62 381.3V428.17H360.62V381.3C355.775 377.633 352.204 372.538 350.411 366.732C348.618 360.927 348.694 354.705 350.628 348.945C352.562 343.185 356.256 338.178 361.189 334.631C366.122 331.084 372.044 329.175 378.12 329.175C384.196 329.175 390.118 331.084 395.051 334.631C399.984 338.178 403.678 343.185 405.612 348.945C407.546 354.705 407.622 360.927 405.829 366.732C404.036 372.538 400.465 377.633 395.62 381.3V381.3Z" fill="#AB3C2A"/>
<path d="M837.87 365.93H517.87V399.93H837.87V365.93Z" fill="white"/>
<path d="M837.87 427.93H768.87V461.93H837.87V427.93Z" fill="#AB3C2A"/>
<path d="M549.37 382.42H543.58L548.73 377.28C548.822 377.185 548.874 377.057 548.874 376.925C548.874 376.792 548.822 376.665 548.73 376.57C548.684 376.523 548.628 376.486 548.567 376.46C548.506 376.435 548.441 376.422 548.375 376.422C548.309 376.422 548.244 376.435 548.183 376.46C548.122 376.486 548.067 376.523 548.02 376.57L542.87 381.72V375.92C542.87 375.787 542.817 375.66 542.724 375.566C542.63 375.473 542.503 375.42 542.37 375.42C542.238 375.422 542.113 375.476 542.019 375.569C541.926 375.662 541.873 375.788 541.87 375.92V381.72L536.73 376.54C536.684 376.493 536.628 376.456 536.567 376.43C536.506 376.405 536.441 376.392 536.375 376.392C536.309 376.392 536.244 376.405 536.183 376.43C536.122 376.456 536.067 376.493 536.02 376.54C535.928 376.635 535.876 376.762 535.876 376.895C535.876 377.027 535.928 377.155 536.02 377.25L541.17 382.39H535.37C535.238 382.392 535.113 382.446 535.019 382.539C534.926 382.632 534.873 382.758 534.87 382.89C534.87 383.023 534.923 383.15 535.017 383.243C535.11 383.337 535.238 383.39 535.37 383.39H541.17L536.02 388.54C535.928 388.635 535.876 388.762 535.876 388.895C535.876 389.027 535.928 389.155 536.02 389.25C536.116 389.34 536.243 389.39 536.375 389.39C536.507 389.39 536.634 389.34 536.73 389.25L541.87 384.1V389.89C541.87 390.023 541.923 390.15 542.017 390.243C542.11 390.337 542.238 390.39 542.37 390.39C542.503 390.39 542.63 390.337 542.724 390.243C542.817 390.15 542.87 390.023 542.87 389.89V384.1L548.02 389.25C548.116 389.34 548.243 389.39 548.375 389.39C548.507 389.39 548.634 389.34 548.73 389.25C548.822 389.155 548.874 389.027 548.874 388.895C548.874 388.762 548.822 388.635 548.73 388.54L543.58 383.39H549.37C549.503 383.39 549.63 383.337 549.724 383.243C549.817 383.15 549.87 383.023 549.87 382.89C549.862 382.763 549.806 382.643 549.713 382.556C549.62 382.468 549.498 382.42 549.37 382.42Z" fill="#AB3C2A"/>
<path d="M570.37 382.42H564.58L569.73 377.28C569.822 377.185 569.874 377.057 569.874 376.925C569.874 376.792 569.822 376.665 569.73 376.57C569.684 376.523 569.628 376.486 569.567 376.46C569.506 376.435 569.441 376.422 569.375 376.422C569.309 376.422 569.244 376.435 569.183 376.46C569.122 376.486 569.067 376.523 569.02 376.57L563.87 381.72V375.92C563.87 375.787 563.817 375.66 563.724 375.566C563.63 375.473 563.503 375.42 563.37 375.42C563.238 375.422 563.113 375.476 563.019 375.569C562.926 375.662 562.873 375.788 562.87 375.92V381.72L557.73 376.54C557.684 376.493 557.628 376.456 557.567 376.43C557.506 376.405 557.441 376.392 557.375 376.392C557.309 376.392 557.244 376.405 557.183 376.43C557.122 376.456 557.067 376.493 557.02 376.54C556.928 376.635 556.876 376.762 556.876 376.895C556.876 377.027 556.928 377.155 557.02 377.25L562.17 382.39H556.37C556.238 382.392 556.113 382.446 556.019 382.539C555.926 382.632 555.873 382.758 555.87 382.89C555.87 383.023 555.923 383.15 556.017 383.243C556.11 383.337 556.238 383.39 556.37 383.39H562.17L557.02 388.54C556.928 388.635 556.876 388.762 556.876 388.895C556.876 389.027 556.928 389.155 557.02 389.25C557.116 389.34 557.243 389.39 557.375 389.39C557.507 389.39 557.634 389.34 557.73 389.25L562.87 384.1V389.89C562.87 390.023 562.923 390.15 563.017 390.243C563.11 390.337 563.238 390.39 563.37 390.39C563.503 390.39 563.63 390.337 563.724 390.243C563.817 390.15 563.87 390.023 563.87 389.89V384.1L569.02 389.25C569.116 389.34 569.243 389.39 569.375 389.39C569.507 389.39 569.634 389.34 569.73 389.25C569.822 389.155 569.874 389.027 569.874 388.895C569.874 388.762 569.822 388.635 569.73 388.54L564.58 383.39H570.37C570.503 383.39 570.63 383.337 570.724 383.243C570.817 383.15 570.87 383.023 570.87 382.89C570.862 382.763 570.806 382.643 570.713 382.556C570.62 382.468 570.498 382.42 570.37 382.42Z" fill="#AB3C2A"/>
<path d="M591.37 382.42H585.58L590.73 377.28C590.822 377.185 590.874 377.057 590.874 376.925C590.874 376.792 590.822 376.665 590.73 376.57C590.684 376.523 590.628 376.486 590.567 376.46C590.506 376.435 590.441 376.422 590.375 376.422C590.309 376.422 590.244 376.435 590.183 376.46C590.122 376.486 590.067 376.523 590.02 376.57L584.87 381.72V375.92C584.87 375.787 584.817 375.66 584.724 375.566C584.63 375.473 584.503 375.42 584.37 375.42C584.238 375.422 584.113 375.476 584.019 375.569C583.926 375.662 583.873 375.788 583.87 375.92V381.72L578.73 376.54C578.684 376.493 578.628 376.456 578.567 376.43C578.506 376.405 578.441 376.392 578.375 376.392C578.309 376.392 578.244 376.405 578.183 376.43C578.122 376.456 578.067 376.493 578.02 376.54C577.928 376.635 577.876 376.762 577.876 376.895C577.876 377.027 577.928 377.155 578.02 377.25L583.17 382.39H577.37C577.238 382.392 577.113 382.446 577.019 382.539C576.926 382.632 576.873 382.758 576.87 382.89C576.87 383.023 576.923 383.15 577.017 383.243C577.11 383.337 577.238 383.39 577.37 383.39H583.17L578.02 388.54C577.928 388.635 577.876 388.762 577.876 388.895C577.876 389.027 577.928 389.155 578.02 389.25C578.116 389.34 578.243 389.39 578.375 389.39C578.507 389.39 578.634 389.34 578.73 389.25L583.87 384.1V389.89C583.87 390.023 583.923 390.15 584.017 390.243C584.11 390.337 584.238 390.39 584.37 390.39C584.503 390.39 584.63 390.337 584.724 390.243C584.817 390.15 584.87 390.023 584.87 389.89V384.1L590.02 389.25C590.116 389.34 590.243 389.39 590.375 389.39C590.507 389.39 590.634 389.34 590.73 389.25C590.822 389.155 590.874 389.027 590.874 388.895C590.874 388.762 590.822 388.635 590.73 388.54L585.58 383.39H591.37C591.503 383.39 591.63 383.337 591.724 383.243C591.817 383.15 591.87 383.023 591.87 382.89C591.862 382.763 591.806 382.643 591.713 382.556C591.62 382.468 591.498 382.42 591.37 382.42Z" fill="#AB3C2A"/>
<path d="M612.37 382.42H606.58L611.73 377.28C611.822 377.185 611.874 377.057 611.874 376.925C611.874 376.792 611.822 376.665 611.73 376.57C611.684 376.523 611.628 376.486 611.567 376.46C611.506 376.435 611.441 376.422 611.375 376.422C611.309 376.422 611.244 376.435 611.183 376.46C611.122 376.486 611.067 376.523 611.02 376.57L605.87 381.72V375.92C605.87 375.787 605.817 375.66 605.724 375.566C605.63 375.473 605.503 375.42 605.37 375.42C605.238 375.422 605.113 375.476 605.019 375.569C604.926 375.662 604.873 375.788 604.87 375.92V381.72L599.73 376.54C599.684 376.493 599.628 376.456 599.567 376.43C599.506 376.405 599.441 376.392 599.375 376.392C599.309 376.392 599.244 376.405 599.183 376.43C599.122 376.456 599.067 376.493 599.02 376.54C598.928 376.635 598.876 376.762 598.876 376.895C598.876 377.027 598.928 377.155 599.02 377.25L604.17 382.39H598.37C598.238 382.392 598.113 382.446 598.019 382.539C597.926 382.632 597.873 382.758 597.87 382.89C597.87 383.023 597.923 383.15 598.017 383.243C598.11 383.337 598.238 383.39 598.37 383.39H604.17L599.02 388.54C598.928 388.635 598.876 388.762 598.876 388.895C598.876 389.027 598.928 389.155 599.02 389.25C599.116 389.34 599.243 389.39 599.375 389.39C599.507 389.39 599.634 389.34 599.73 389.25L604.87 384.1V389.89C604.87 390.023 604.923 390.15 605.017 390.243C605.11 390.337 605.238 390.39 605.37 390.39C605.503 390.39 605.63 390.337 605.724 390.243C605.817 390.15 605.87 390.023 605.87 389.89V384.1L611.02 389.25C611.116 389.34 611.243 389.39 611.375 389.39C611.507 389.39 611.634 389.34 611.73 389.25C611.822 389.155 611.874 389.027 611.874 388.895C611.874 388.762 611.822 388.635 611.73 388.54L606.58 383.39H612.37C612.503 383.39 612.63 383.337 612.724 383.243C612.817 383.15 612.87 383.023 612.87 382.89C612.862 382.763 612.806 382.643 612.713 382.556C612.62 382.468 612.498 382.42 612.37 382.42Z" fill="#AB3C2A"/>
<path d="M633.37 382.42H627.58L632.73 377.28C632.822 377.185 632.874 377.057 632.874 376.925C632.874 376.792 632.822 376.665 632.73 376.57C632.684 376.523 632.628 376.486 632.567 376.46C632.506 376.435 632.441 376.422 632.375 376.422C632.309 376.422 632.244 376.435 632.183 376.46C632.122 376.486 632.067 376.523 632.02 376.57L626.87 381.72V375.92C626.87 375.787 626.817 375.66 626.724 375.566C626.63 375.473 626.503 375.42 626.37 375.42C626.238 375.422 626.113 375.476 626.019 375.569C625.926 375.662 625.873 375.788 625.87 375.92V381.72L620.73 376.54C620.684 376.493 620.628 376.456 620.567 376.43C620.506 376.405 620.441 376.392 620.375 376.392C620.309 376.392 620.244 376.405 620.183 376.43C620.122 376.456 620.067 376.493 620.02 376.54C619.928 376.635 619.876 376.762 619.876 376.895C619.876 377.027 619.928 377.155 620.02 377.25L625.17 382.39H619.37C619.238 382.392 619.113 382.446 619.019 382.539C618.926 382.632 618.873 382.758 618.87 382.89C618.87 383.023 618.923 383.15 619.017 383.243C619.11 383.337 619.238 383.39 619.37 383.39H625.17L620.02 388.54C619.928 388.635 619.876 388.762 619.876 388.895C619.876 389.027 619.928 389.155 620.02 389.25C620.116 389.34 620.243 389.39 620.375 389.39C620.507 389.39 620.634 389.34 620.73 389.25L625.87 384.1V389.89C625.87 390.023 625.923 390.15 626.017 390.243C626.11 390.337 626.238 390.39 626.37 390.39C626.503 390.39 626.63 390.337 626.724 390.243C626.817 390.15 626.87 390.023 626.87 389.89V384.1L632.02 389.25C632.116 389.34 632.243 389.39 632.375 389.39C632.507 389.39 632.634 389.34 632.73 389.25C632.822 389.155 632.874 389.027 632.874 388.895C632.874 388.762 632.822 388.635 632.73 388.54L627.58 383.39H633.37C633.503 383.39 633.63 383.337 633.724 383.243C633.817 383.15 633.87 383.023 633.87 382.89C633.862 382.763 633.806 382.643 633.713 382.556C633.62 382.468 633.498 382.42 633.37 382.42Z" fill="#AB3C2A"/>
<path d="M654.37 382.42H648.58L653.73 377.28C653.822 377.185 653.874 377.057 653.874 376.925C653.874 376.792 653.822 376.665 653.73 376.57C653.684 376.523 653.628 376.486 653.567 376.46C653.506 376.435 653.441 376.422 653.375 376.422C653.309 376.422 653.244 376.435 653.183 376.46C653.122 376.486 653.067 376.523 653.02 376.57L647.87 381.72V375.92C647.87 375.787 647.817 375.66 647.724 375.566C647.63 375.473 647.503 375.42 647.37 375.42C647.238 375.422 647.113 375.476 647.019 375.569C646.926 375.662 646.873 375.788 646.87 375.92V381.72L641.73 376.54C641.684 376.493 641.628 376.456 641.567 376.43C641.506 376.405 641.441 376.392 641.375 376.392C641.309 376.392 641.244 376.405 641.183 376.43C641.122 376.456 641.067 376.493 641.02 376.54C640.928 376.635 640.876 376.762 640.876 376.895C640.876 377.027 640.928 377.155 641.02 377.25L646.17 382.39H640.37C640.238 382.392 640.113 382.446 640.019 382.539C639.926 382.632 639.873 382.758 639.87 382.89C639.87 383.023 639.923 383.15 640.017 383.243C640.11 383.337 640.238 383.39 640.37 383.39H646.17L641.02 388.54C640.928 388.635 640.876 388.762 640.876 388.895C640.876 389.027 640.928 389.155 641.02 389.25C641.116 389.34 641.243 389.39 641.375 389.39C641.507 389.39 641.634 389.34 641.73 389.25L646.87 384.1V389.89C646.87 390.023 646.923 390.15 647.017 390.243C647.11 390.337 647.238 390.39 647.37 390.39C647.503 390.39 647.63 390.337 647.724 390.243C647.817 390.15 647.87 390.023 647.87 389.89V384.1L653.02 389.25C653.116 389.34 653.243 389.39 653.375 389.39C653.507 389.39 653.634 389.34 653.73 389.25C653.822 389.155 653.874 389.027 653.874 388.895C653.874 388.762 653.822 388.635 653.73 388.54L648.58 383.39H654.37C654.503 383.39 654.63 383.337 654.724 383.243C654.817 383.15 654.87 383.023 654.87 382.89C654.862 382.763 654.806 382.643 654.713 382.556C654.62 382.468 654.498 382.42 654.37 382.42Z" fill="#AB3C2A"/>
<path d="M675.37 382.42H669.58L674.73 377.28C674.822 377.185 674.874 377.057 674.874 376.925C674.874 376.792 674.822 376.665 674.73 376.57C674.684 376.523 674.628 376.486 674.567 376.46C674.506 376.435 674.441 376.422 674.375 376.422C674.309 376.422 674.244 376.435 674.183 376.46C674.122 376.486 674.067 376.523 674.02 376.57L668.87 381.72V375.92C668.87 375.787 668.817 375.66 668.724 375.566C668.63 375.473 668.503 375.42 668.37 375.42C668.238 375.422 668.113 375.476 668.019 375.569C667.926 375.662 667.873 375.788 667.87 375.92V381.72L662.73 376.54C662.684 376.493 662.628 376.456 662.567 376.43C662.506 376.405 662.441 376.392 662.375 376.392C662.309 376.392 662.244 376.405 662.183 376.43C662.122 376.456 662.067 376.493 662.02 376.54C661.928 376.635 661.876 376.762 661.876 376.895C661.876 377.027 661.928 377.155 662.02 377.25L667.17 382.39H661.37C661.238 382.392 661.113 382.446 661.019 382.539C660.926 382.632 660.873 382.758 660.87 382.89C660.87 383.023 660.923 383.15 661.017 383.243C661.11 383.337 661.238 383.39 661.37 383.39H667.17L662.02 388.54C661.928 388.635 661.876 388.762 661.876 388.895C661.876 389.027 661.928 389.155 662.02 389.25C662.116 389.34 662.243 389.39 662.375 389.39C662.507 389.39 662.634 389.34 662.73 389.25L667.87 384.1V389.89C667.87 390.023 667.923 390.15 668.017 390.243C668.11 390.337 668.238 390.39 668.37 390.39C668.503 390.39 668.63 390.337 668.724 390.243C668.817 390.15 668.87 390.023 668.87 389.89V384.1L674.02 389.25C674.116 389.34 674.243 389.39 674.375 389.39C674.507 389.39 674.634 389.34 674.73 389.25C674.822 389.155 674.874 389.027 674.874 388.895C674.874 388.762 674.822 388.635 674.73 388.54L669.58 383.39H675.37C675.503 383.39 675.63 383.337 675.724 383.243C675.817 383.15 675.87 383.023 675.87 382.89C675.862 382.763 675.806 382.643 675.713 382.556C675.62 382.468 675.498 382.42 675.37 382.42Z" fill="#AB3C2A"/>
<path d="M696.37 382.42H690.58L695.73 377.28C695.822 377.185 695.874 377.057 695.874 376.925C695.874 376.792 695.822 376.665 695.73 376.57C695.684 376.523 695.628 376.486 695.567 376.46C695.506 376.435 695.441 376.422 695.375 376.422C695.309 376.422 695.244 376.435 695.183 376.46C695.122 376.486 695.067 376.523 695.02 376.57L689.87 381.72V375.92C689.87 375.787 689.817 375.66 689.724 375.566C689.63 375.473 689.503 375.42 689.37 375.42C689.238 375.422 689.113 375.476 689.019 375.569C688.926 375.662 688.873 375.788 688.87 375.92V381.72L683.73 376.54C683.684 376.493 683.628 376.456 683.567 376.43C683.506 376.405 683.441 376.392 683.375 376.392C683.309 376.392 683.244 376.405 683.183 376.43C683.122 376.456 683.067 376.493 683.02 376.54C682.928 376.635 682.876 376.762 682.876 376.895C682.876 377.027 682.928 377.155 683.02 377.25L688.17 382.39H682.37C682.238 382.392 682.113 382.446 682.019 382.539C681.926 382.632 681.873 382.758 681.87 382.89C681.87 383.023 681.923 383.15 682.017 383.243C682.11 383.337 682.238 383.39 682.37 383.39H688.17L683.02 388.54C682.928 388.635 682.876 388.762 682.876 388.895C682.876 389.027 682.928 389.155 683.02 389.25C683.116 389.34 683.243 389.39 683.375 389.39C683.507 389.39 683.634 389.34 683.73 389.25L688.87 384.1V389.89C688.87 390.023 688.923 390.15 689.017 390.243C689.11 390.337 689.238 390.39 689.37 390.39C689.503 390.39 689.63 390.337 689.724 390.243C689.817 390.15 689.87 390.023 689.87 389.89V384.1L695.02 389.25C695.116 389.34 695.243 389.39 695.375 389.39C695.507 389.39 695.634 389.34 695.73 389.25C695.822 389.155 695.874 389.027 695.874 388.895C695.874 388.762 695.822 388.635 695.73 388.54L690.58 383.39H696.37C696.503 383.39 696.63 383.337 696.724 383.243C696.817 383.15 696.87 383.023 696.87 382.89C696.862 382.763 696.806 382.643 696.713 382.556C696.62 382.468 696.498 382.42 696.37 382.42Z" fill="#AB3C2A"/>
<path d="M717.37 382.42H711.58L716.73 377.28C716.822 377.185 716.874 377.057 716.874 376.925C716.874 376.792 716.822 376.665 716.73 376.57C716.684 376.523 716.628 376.486 716.567 376.46C716.506 376.435 716.441 376.422 716.375 376.422C716.309 376.422 716.244 376.435 716.183 376.46C716.122 376.486 716.067 376.523 716.02 376.57L710.87 381.72V375.92C710.87 375.787 710.817 375.66 710.724 375.566C710.63 375.473 710.503 375.42 710.37 375.42C710.238 375.422 710.113 375.476 710.019 375.569C709.926 375.662 709.873 375.788 709.87 375.92V381.72L704.73 376.54C704.684 376.493 704.628 376.456 704.567 376.43C704.506 376.405 704.441 376.392 704.375 376.392C704.309 376.392 704.244 376.405 704.183 376.43C704.122 376.456 704.067 376.493 704.02 376.54C703.928 376.635 703.876 376.762 703.876 376.895C703.876 377.027 703.928 377.155 704.02 377.25L709.17 382.39H703.37C703.238 382.392 703.113 382.446 703.019 382.539C702.926 382.632 702.873 382.758 702.87 382.89C702.87 383.023 702.923 383.15 703.017 383.243C703.11 383.337 703.238 383.39 703.37 383.39H709.17L704.02 388.54C703.928 388.635 703.876 388.762 703.876 388.895C703.876 389.027 703.928 389.155 704.02 389.25C704.116 389.34 704.243 389.39 704.375 389.39C704.507 389.39 704.634 389.34 704.73 389.25L709.87 384.1V389.89C709.87 390.023 709.923 390.15 710.017 390.243C710.11 390.337 710.238 390.39 710.37 390.39C710.503 390.39 710.63 390.337 710.724 390.243C710.817 390.15 710.87 390.023 710.87 389.89V384.1L716.02 389.25C716.116 389.34 716.243 389.39 716.375 389.39C716.507 389.39 716.634 389.34 716.73 389.25C716.822 389.155 716.874 389.027 716.874 388.895C716.874 388.762 716.822 388.635 716.73 388.54L711.58 383.39H717.37C717.503 383.39 717.63 383.337 717.724 383.243C717.817 383.15 717.87 383.023 717.87 382.89C717.862 382.763 717.806 382.643 717.713 382.556C717.62 382.468 717.498 382.42 717.37 382.42Z" fill="#AB3C2A"/>
<path d="M738.37 382.42H732.58L737.73 377.28C737.822 377.185 737.874 377.057 737.874 376.925C737.874 376.792 737.822 376.665 737.73 376.57C737.684 376.523 737.628 376.486 737.567 376.46C737.506 376.435 737.441 376.422 737.375 376.422C737.309 376.422 737.244 376.435 737.183 376.46C737.122 376.486 737.067 376.523 737.02 376.57L731.87 381.72V375.92C731.87 375.787 731.817 375.66 731.724 375.566C731.63 375.473 731.503 375.42 731.37 375.42C731.238 375.422 731.113 375.476 731.019 375.569C730.926 375.662 730.873 375.788 730.87 375.92V381.72L725.73 376.54C725.684 376.493 725.628 376.456 725.567 376.43C725.506 376.405 725.441 376.392 725.375 376.392C725.309 376.392 725.244 376.405 725.183 376.43C725.122 376.456 725.067 376.493 725.02 376.54C724.928 376.635 724.876 376.762 724.876 376.895C724.876 377.027 724.928 377.155 725.02 377.25L730.17 382.39H724.37C724.238 382.392 724.113 382.446 724.019 382.539C723.926 382.632 723.873 382.758 723.87 382.89C723.87 383.023 723.923 383.15 724.017 383.243C724.11 383.337 724.238 383.39 724.37 383.39H730.17L725.02 388.54C724.928 388.635 724.876 388.762 724.876 388.895C724.876 389.027 724.928 389.155 725.02 389.25C725.116 389.34 725.243 389.39 725.375 389.39C725.507 389.39 725.634 389.34 725.73 389.25L730.87 384.1V389.89C730.87 390.023 730.923 390.15 731.017 390.243C731.11 390.337 731.238 390.39 731.37 390.39C731.503 390.39 731.63 390.337 731.724 390.243C731.817 390.15 731.87 390.023 731.87 389.89V384.1L737.02 389.25C737.116 389.34 737.243 389.39 737.375 389.39C737.507 389.39 737.634 389.34 737.73 389.25C737.822 389.155 737.874 389.027 737.874 388.895C737.874 388.762 737.822 388.635 737.73 388.54L732.58 383.39H738.37C738.503 383.39 738.63 383.337 738.724 383.243C738.817 383.15 738.87 383.023 738.87 382.89C738.862 382.763 738.806 382.643 738.713 382.556C738.62 382.468 738.498 382.42 738.37 382.42Z" fill="#AB3C2A"/>
<path d="M759.37 382.42H753.58L758.73 377.28C758.822 377.185 758.874 377.057 758.874 376.925C758.874 376.792 758.822 376.665 758.73 376.57C758.684 376.523 758.628 376.486 758.567 376.46C758.506 376.435 758.441 376.422 758.375 376.422C758.309 376.422 758.244 376.435 758.183 376.46C758.122 376.486 758.067 376.523 758.02 376.57L752.87 381.72V375.92C752.87 375.787 752.817 375.66 752.724 375.566C752.63 375.473 752.503 375.42 752.37 375.42C752.238 375.422 752.113 375.476 752.019 375.569C751.926 375.662 751.873 375.788 751.87 375.92V381.72L746.73 376.54C746.684 376.493 746.628 376.456 746.567 376.43C746.506 376.405 746.441 376.392 746.375 376.392C746.309 376.392 746.244 376.405 746.183 376.43C746.122 376.456 746.067 376.493 746.02 376.54C745.928 376.635 745.876 376.762 745.876 376.895C745.876 377.027 745.928 377.155 746.02 377.25L751.17 382.39H745.37C745.238 382.392 745.113 382.446 745.019 382.539C744.926 382.632 744.873 382.758 744.87 382.89C744.87 383.023 744.923 383.15 745.017 383.243C745.11 383.337 745.238 383.39 745.37 383.39H751.17L746.02 388.54C745.928 388.635 745.876 388.762 745.876 388.895C745.876 389.027 745.928 389.155 746.02 389.25C746.116 389.34 746.243 389.39 746.375 389.39C746.507 389.39 746.634 389.34 746.73 389.25L751.87 384.1V389.89C751.87 390.023 751.923 390.15 752.017 390.243C752.11 390.337 752.238 390.39 752.37 390.39C752.503 390.39 752.63 390.337 752.724 390.243C752.817 390.15 752.87 390.023 752.87 389.89V384.1L758.02 389.25C758.116 389.34 758.243 389.39 758.375 389.39C758.507 389.39 758.634 389.34 758.73 389.25C758.822 389.155 758.874 389.027 758.874 388.895C758.874 388.762 758.822 388.635 758.73 388.54L753.58 383.39H759.37C759.503 383.39 759.63 383.337 759.724 383.243C759.817 383.15 759.87 383.023 759.87 382.89C759.862 382.763 759.806 382.643 759.713 382.556C759.62 382.468 759.498 382.42 759.37 382.42Z" fill="#AB3C2A"/>
<path d="M920.36 504.07C920.332 502.861 920.181 501.658 919.91 500.48C919.01 497.1 916.98 493.01 913.64 491.99C910.191 490.934 906.861 489.527 903.7 487.79C903.1 477.07 905.56 466.1 902.88 455.71C901.88 451.91 900.23 448.27 899.79 444.38C899.24 439.54 900.56 434.38 898.63 429.92C897.11 426.4 893.77 423.92 890.18 422.62C886.59 421.32 882.72 420.97 878.91 420.62C874.11 420.23 858.57 418.39 853.15 422.68C852.776 422.97 852.44 423.306 852.15 423.68V423.68C852.03 423.845 851.923 424.019 851.83 424.2L851.78 424.28C851.671 424.488 851.581 424.706 851.51 424.93V424.93C851.434 425.175 851.378 425.426 851.34 425.68C851.34 425.76 851.34 425.84 851.34 425.92C851.34 426 851.34 426.27 851.34 426.45V426.72C851.34 426.9 851.34 427.08 851.34 427.27C851.34 427.46 851.34 427.41 851.34 427.48C851.41 428.38 851.54 429.28 851.54 430.17C851.551 430.613 851.51 431.056 851.42 431.49C851.087 432.669 850.523 433.771 849.76 434.73V434.73L849.58 434.99C849.47 435.15 849.36 435.3 849.26 435.46C849.16 435.62 849.08 435.74 849 435.88C848.92 436.02 848.84 436.11 848.77 436.24C848.673 436.405 848.587 436.575 848.51 436.75C848.51 436.85 848.4 436.94 848.36 437.04C848.235 437.31 848.134 437.592 848.06 437.88C847.826 438.749 847.805 439.661 848 440.54C848.27 441.662 848.733 442.728 849.37 443.69C849.62 444.1 849.89 444.5 850.17 444.9L850.87 445.85C850.739 446.778 850.669 447.713 850.66 448.65C850.66 451.781 851.372 454.872 852.74 457.688C854.109 460.505 856.099 462.974 858.56 464.91C858.956 469.133 858.913 473.386 858.43 477.6C858.34 478.48 858.23 479.37 858.11 480.25C857.99 481.13 857.9 481.71 857.78 482.44C856.317 482.65 854.825 482.537 853.41 482.11C852.757 481.819 852.09 481.562 851.41 481.34C848.5 480.61 845.53 483.51 842.65 482.63C842.65 482.77 842.57 482.9 842.52 483.03C841.919 482.656 841.228 482.453 840.52 482.44C838.81 482.36 837.42 481.12 836.18 479.95L832.37 476.36C832.122 476.14 831.9 475.892 831.71 475.62C831.505 475.231 831.351 474.818 831.25 474.39C830.61 472.32 829.06 470.67 827.56 469.1C827.276 468.742 826.899 468.469 826.47 468.31C826.304 468.285 826.136 468.285 825.97 468.31C825.868 468.17 825.758 468.037 825.64 467.91C825.381 467.613 825.104 467.332 824.81 467.07C822.99 465.39 822.81 463.95 821.23 462.07C819.852 460.277 818.602 458.389 817.49 456.42C817.36 455.37 817.18 454.29 816.96 453.2C816.456 450.705 815.723 448.261 814.77 445.9L812.77 441.47L812.54 441.7C811.09 439.54 809.54 438.36 808.15 438.64C805.82 439.12 804.67 443.64 805.04 449.55L805.84 455.55C805.84 455.7 805.91 455.85 805.95 456C805.806 456.711 805.732 457.435 805.73 458.16C805.73 459 806.51 459.62 806.92 460.37C807.576 461.386 807.924 462.571 807.92 463.78C807.87 464.21 807.74 464.62 807.72 465.04C807.774 465.98 808.101 466.883 808.66 467.64L813.66 476.04L814.66 477.8L814.72 477.88C815.036 478.494 815.495 479.023 816.06 479.42C816.256 481.523 816.814 483.577 817.71 485.49C817.88 485.87 818.07 486.23 818.27 486.59C819.614 488.8 821.197 490.855 822.99 492.72L825.37 495.39C827.72 498.01 830.07 500.64 832.62 503.06C833.533 504.031 834.636 504.804 835.86 505.33C836.46 505.57 837.112 505.647 837.751 505.554C838.39 505.461 838.994 505.201 839.5 504.8C839.5 506.04 839.5 507.28 839.5 508.52C839.871 508.543 840.23 508.664 840.538 508.872C840.847 509.08 841.095 509.366 841.256 509.701C841.417 510.037 841.485 510.409 841.454 510.78C841.423 511.15 841.294 511.506 841.08 511.81C838.98 517.2 836.86 522.64 833.68 527.47C835.925 528.799 838.005 530.386 839.88 532.2C841.096 533.548 842.178 535.012 843.11 536.57C843.2 537.31 843.27 538.04 843.31 538.77C844.05 550.69 839.44 562.52 835.31 573.88C834.12 577.1 832.82 580.47 832.92 583.82C832.136 584.303 831.388 584.841 830.68 585.43C831.5 587.57 831.18 589.48 831.09 591.77C831.06 593.143 830.779 594.499 830.26 595.77C829.825 596.651 829.345 597.509 828.82 598.34C826.23 602.91 825.66 608.34 825.14 613.56C824.83 616.71 826.05 620.56 824.62 623.38C822.15 628.22 819.96 633.38 819.62 638.76C819.608 639.971 819.454 641.176 819.16 642.35C818.85 643.35 818.3 644.2 818.02 645.18C817.732 646.493 817.664 647.845 817.82 649.18C818.01 653.973 817.298 658.76 815.72 663.29C814.47 666.86 813.09 670.68 814.07 674.35C811.657 676.884 810.168 680.156 809.84 683.64C809.814 684.531 809.707 685.418 809.52 686.29C809.214 687.181 808.812 688.036 808.32 688.84C806.307 692.506 805.364 696.664 805.6 700.84C802.6 704.91 801.1 709.93 800.21 714.92C799.32 719.91 798.93 724.99 797.79 729.92C796.27 736.44 793.52 743.03 792.98 749.71C789.74 751.78 788.34 755.79 787.72 759.58C787.1 763.37 787 767.35 785.41 770.85C784.59 772.67 783.41 774.3 782.63 776.16C782.083 777.641 781.681 779.171 781.43 780.73C780.95 783.17 780.53 785.89 781.12 788.23C780.272 789.128 779.282 789.882 778.19 790.46C778.35 789.84 778.48 789.22 778.59 788.59C776.01 790.93 771.33 790.11 769.27 792.92C768.652 793.826 768.41 794.937 768.597 796.018C768.783 797.098 769.384 798.064 770.27 798.71C770.915 799.103 771.611 799.403 772.34 799.6C777.34 801.2 782.48 802.81 787.62 801.96C788.228 801.894 788.816 801.707 789.35 801.41C790.019 800.918 790.569 800.282 790.96 799.55C791.73 798.33 792.5 797.11 793.26 795.89C795.102 796.44 796.975 796.877 798.87 797.2C799.06 798.8 799.2 800.4 799.27 802C800.27 802.2 801.61 802.26 802.08 801.33C802.223 800.978 802.281 800.598 802.25 800.22C802.25 799.51 802.35 798.57 802.41 797.61H802.61C805.661 797.733 808.697 797.119 811.46 795.82C810.39 786.96 813.92 778.3 816.98 769.92C820.21 761.1 822.98 752.12 825.77 743.14C827.77 736.82 829.98 730.7 831.94 724.37C834.407 716.37 836.883 708.37 839.37 700.37C840.45 696.85 841.54 693.37 842.78 689.87C845.39 682.788 848.488 675.895 852.05 669.24C853.05 667.35 854.05 665.48 854.87 663.52C855.87 661.13 856.58 658.63 857.38 656.16C859.123 651.092 861.222 646.153 863.66 641.38C863.73 641.25 863.78 641.13 863.85 641.01C864.66 644.32 865.47 647.68 866.01 651.01C866.741 655.093 866.798 659.268 866.18 663.37C865.7 666.16 864.79 668.92 864.9 671.75C865.05 675.66 867.14 679.21 868.17 682.98C868.834 685.801 869.209 688.683 869.29 691.58C869.57 696.08 872.01 701.13 870.29 705.3C864.94 718.51 867.53 733.43 864.48 747.3C862.91 754.42 858.1 761.11 858.48 768.39C858.747 773.557 859.2 778.71 859.84 783.85C859.994 785.472 860.416 787.057 861.09 788.54C861.489 789.32 861.947 790.069 862.46 790.78C862.02 790.95 861.65 791.4 861.33 792.35C860.51 794.85 861.33 797.95 863.55 799.35C864.455 799.834 865.43 800.171 866.44 800.35C867.8 800.737 869.206 800.932 870.62 800.93C871.06 800.906 871.497 800.853 871.93 800.77C873.476 801.42 875.054 801.987 876.66 802.47C876.66 802.88 876.74 803.29 876.79 803.7C876.793 803.914 876.84 804.126 876.93 804.32C877.02 804.515 877.149 804.689 877.31 804.83C877.56 804.946 877.836 804.995 878.11 804.97H883.54C883.54 804.52 883.54 804.06 883.54 803.61C884.161 803.675 884.789 803.609 885.384 803.416C885.978 803.223 886.525 802.907 886.99 802.49C887.471 801.878 887.812 801.168 887.99 800.41C889.47 795.39 890.94 790.367 892.4 785.34C894.151 779.784 894.879 773.956 894.55 768.14C892.62 749.71 896.86 731.22 895.48 712.74C894.649 701.633 895.221 690.465 897.18 679.5C897.63 677.02 898.18 674.5 898.38 672.03C898.82 667.37 898.28 662.66 898.61 658.03C898.72 656.41 898.94 654.8 899.14 653.19C900.51 643.197 901.228 633.126 901.29 623.04C901.259 619.698 901.052 616.36 900.67 613.04C901.713 612.775 902.659 612.22 903.4 611.44C904.29 610.28 904.06 608.65 904.05 607.17C904.05 603.63 905.54 600.29 906.74 596.95C908.28 592.343 909.542 587.648 910.52 582.89C911.553 579.056 912.117 575.11 912.2 571.14C912.2 570.74 912.18 570.34 912.14 569.94C912.517 569.679 912.831 569.337 913.06 568.94C913.321 568.354 913.483 567.729 913.54 567.09C913.9 564.54 914.27 561.98 914.63 559.42C914.897 557.587 915.16 555.757 915.42 553.93L918.6 531.74C918.87 529.81 919.15 527.89 919.42 525.97L920.25 520.23C920.34 519.55 920.44 518.87 920.51 518.23C922.95 514.15 920.62 508.71 920.36 504.07ZM893.83 587.15C892.65 584.35 891.55 581.48 891.83 578.46H891.72C891.983 577.531 891.937 576.541 891.59 575.64C891.28 574.91 890.74 574.29 890.41 573.56C890.055 572.669 889.872 571.719 889.87 570.76C889.622 564.678 890.102 558.588 891.3 552.62C891.43 551.92 891.57 551.21 891.7 550.51C892.119 550.268 892.503 549.968 892.84 549.62C893.366 549.02 893.801 548.347 894.13 547.62C895.26 545.35 896.29 543.04 897.24 540.69C897.55 539.93 898 539.05 898.77 538.86C898.61 544.71 899.21 550.68 896.83 555.96C896.378 556.811 896.042 557.719 895.83 558.66C895.61 560.15 896.23 561.66 896.01 563.14C895.9 563.91 895.57 564.62 895.44 565.38C895.341 565.753 895.343 566.146 895.445 566.518C895.547 566.89 895.745 567.229 896.02 567.5C896.152 567.593 896.297 567.667 896.45 567.72C896.39 568.12 896.34 568.53 896.3 568.92C896.22 569.74 896.18 570.51 896.13 570.99C895.9 573.436 895.81 575.894 895.86 578.35C895.86 581 895.96 583.65 895.92 586.35C895.957 587.125 895.827 587.899 895.54 588.62C895.342 588.992 895.085 589.329 894.78 589.62C894.49 588.72 894.17 587.93 893.83 587.15Z" fill="url(#paint0_linear)"/>
<path d="M814.892 471.12C817.944 470.494 818.982 462.983 817.212 454.343C815.441 445.702 811.532 439.204 808.481 439.83C805.429 440.455 804.391 447.966 806.161 456.607C807.932 465.247 811.841 471.745 814.892 471.12Z" fill="#FBBEBE"/>
<path d="M861.49 792.54C860.67 795.02 861.49 798.12 863.71 799.47C864.609 799.949 865.578 800.287 866.58 800.47C867.937 800.853 869.34 801.045 870.75 801.04C872.48 800.96 874.14 800.28 875.87 800.04C876.07 799.99 876.281 800.018 876.46 800.12C876.547 800.213 876.611 800.324 876.649 800.445C876.688 800.566 876.698 800.694 876.68 800.82C876.699 801.803 876.772 802.785 876.9 803.76C876.901 803.974 876.949 804.186 877.038 804.381C877.128 804.576 877.258 804.749 877.42 804.89C877.67 805.006 877.946 805.055 878.22 805.03H883.64C883.763 800.268 883.241 795.512 882.09 790.89C882.015 790.536 881.88 790.198 881.69 789.89C881.23 789.386 880.626 789.037 879.96 788.89C878.635 788.339 877.204 788.089 875.77 788.16C874.02 788.39 872.56 789.52 871.07 790.46C869.58 791.4 867.55 792.23 865.74 791.75C863.93 791.27 862.42 789.76 861.49 792.54Z" fill="#3F3D56"/>
<path d="M781.91 788.15C780.386 789.782 778.517 791.053 776.44 791.87L775.52 792.31C775.393 792.358 775.284 792.446 775.21 792.56C775.192 792.638 775.192 792.719 775.21 792.796C775.227 792.874 775.261 792.947 775.31 793.01C776.075 794.194 777.207 795.096 778.532 795.578C779.857 796.06 781.303 796.096 782.65 795.68C783.245 795.531 783.797 795.243 784.26 794.84C785.022 793.936 785.459 792.802 785.5 791.62C785.803 790.401 785.751 789.121 785.35 787.93C783.96 784.8 783.45 786.22 781.91 788.15Z" fill="#FBBEBE"/>
<path d="M802.69 800.47C802.721 800.848 802.662 801.228 802.52 801.58C802.05 802.5 800.74 802.45 799.72 802.25C799.565 798.857 799.154 795.481 798.49 792.15C796.55 792.06 795.15 793.9 794.11 795.55L791.43 799.8C791.042 800.532 790.495 801.167 789.83 801.66C789.294 801.953 788.706 802.14 788.1 802.21C782.98 803.06 777.81 801.45 772.87 799.85C772.142 799.655 771.445 799.358 770.8 798.97C769.918 798.323 769.322 797.359 769.135 796.281C768.949 795.204 769.187 794.096 769.8 793.19C771.87 790.39 776.52 791.19 779.1 788.87C778.831 790.502 778.388 792.101 777.78 793.64C781.23 793.12 783.55 789.96 786.33 787.85C787.028 787.257 787.869 786.858 788.77 786.69C789.444 786.633 790.122 786.705 790.77 786.9C793.975 787.707 796.974 789.183 799.57 791.23C800.62 792.06 802.26 793.23 802.72 794.51C803.21 796.04 802.69 798.84 802.69 800.47Z" fill="#3F3D56"/>
<path d="M871.48 470.53C882.89 470.53 892.14 461.28 892.14 449.87C892.14 438.46 882.89 429.21 871.48 429.21C860.07 429.21 850.82 438.46 850.82 449.87C850.82 461.28 860.07 470.53 871.48 470.53Z" fill="#FBBEBE"/>
<path d="M912.18 571.85C912.097 575.8 911.536 579.725 910.51 583.54C909.532 588.278 908.27 592.953 906.73 597.54C905.54 600.87 904.05 604.21 904.06 607.74C904.06 609.21 904.3 610.84 903.4 612C902.598 612.814 901.588 613.392 900.48 613.67C899.927 613.817 899.416 614.091 898.989 614.472C898.562 614.852 898.23 615.328 898.02 615.86C897.081 614.457 896.378 612.91 895.94 611.28C894.147 605.787 892.48 600.263 890.94 594.71C890.799 594.39 890.738 594.041 890.763 593.693C890.787 593.344 890.896 593.007 891.08 592.71C891.334 592.489 891.63 592.323 891.95 592.22C892.975 591.802 893.914 591.199 894.72 590.44C895.098 590.104 895.41 589.701 895.64 589.25C895.931 588.533 896.064 587.763 896.03 586.99C896.03 584.34 896.03 581.7 895.96 579.05C895.918 576.603 896.012 574.156 896.24 571.72C896.24 571.24 896.33 570.47 896.41 569.65C896.56 568.08 896.86 566.26 897.71 565.65C898.98 564.8 902.78 565.94 904.22 566.14C906.7 566.48 909.22 566.88 911.64 567.35C911.992 568.824 912.173 570.334 912.18 571.85Z" fill="#3F3D56"/>
<path d="M828.76 473C827.96 474.6 826.04 475.37 824.56 476.38L819.49 479.86C819.151 480.165 818.754 480.399 818.323 480.547C817.892 480.695 817.435 480.753 816.98 480.72C816.568 480.568 816.19 480.334 815.868 480.034C815.547 479.733 815.289 479.372 815.11 478.97C815.113 478.944 815.113 478.917 815.11 478.89L814.06 477.13L809.06 468.75C808.504 468 808.181 467.103 808.13 466.17C808.13 465.74 808.28 465.34 808.32 464.91C808.334 463.702 807.985 462.518 807.32 461.51C806.92 460.76 806.12 460.14 806.14 459.3C806.102 458.196 806.292 457.097 806.7 456.07C807.225 455.121 807.977 454.316 808.89 453.73C809.36 453.39 809.84 453.07 810.34 452.73C810.606 452.549 810.9 452.414 811.21 452.33C812.04 452.16 812.86 452.85 813.7 452.88C817.31 455.3 818.7 459.88 821.54 463.18C823.14 465.06 823.3 466.5 825.11 468.18C825.4 468.44 825.68 468.72 825.95 469.01C826.308 469.4 826.611 469.838 826.85 470.31C827.18 471.17 829.17 472.18 828.76 473Z" fill="#3F3D56"/>
<path d="M864.22 470.54C865.71 473.69 866.87 477.15 866.44 480.61C866.352 481.547 866.055 482.453 865.57 483.26C864.13 485.47 861.11 485.87 858.48 486C857.926 485.954 857.368 486.018 856.839 486.19C856.31 486.361 855.821 486.637 855.4 487C855.049 487.511 854.877 488.124 854.911 488.742C854.945 489.361 855.184 489.951 855.59 490.42C856.435 491.322 857.485 492.008 858.65 492.42C862.81 494.25 867.3 495.76 871.82 495.34C873.92 495.14 875.96 494.53 878.05 494.22C880.328 493.973 882.618 493.846 884.91 493.84C887.63 493.74 890.34 493.47 893.05 493.2L900.23 492.49C900.622 492.496 901.003 492.357 901.3 492.1C901.83 491.48 901.15 490.57 900.49 490.1C896.68 487.28 891.83 485.34 889.66 481.1C888.66 479.1 888.35 476.72 887.61 474.56C886.87 472.4 885.69 470.45 885.23 468.25C884.985 466.32 884.874 464.375 884.9 462.43C884.925 460.468 884.211 458.569 882.9 457.11C881.47 455.78 879.4 455.44 877.46 455.36C872.68 455.15 867.59 456.29 864.2 459.66C863.29 460.57 862.51 461.66 861.57 462.48C860.63 463.3 859.35 463.54 859.97 464.62C860.59 465.7 861.81 466.37 862.47 467.32C863.138 468.345 863.723 469.422 864.22 470.54V470.54Z" fill="#FBBEBE"/>
<path d="M904.95 499.63C903.689 507.33 901.638 514.88 898.83 522.16C897.418 525.447 896.216 528.821 895.23 532.26C894.46 535.36 894.61 538.68 893.9 541.79C893.02 545.66 892.14 549.54 891.43 553.44C890.239 559.395 889.762 565.472 890.01 571.54C890.012 572.496 890.196 573.442 890.55 574.33C890.88 575.05 891.41 575.67 891.72 576.41C891.952 577.06 892.047 577.751 891.999 578.439C891.95 579.128 891.76 579.799 891.44 580.41C890.927 581.555 890.231 582.608 889.38 583.53C880.06 586.31 870.09 585.4 860.38 585.99C851.43 586.53 842.38 588.37 833.56 586.84C832.56 582.84 834.23 578.65 835.66 574.75C839.81 563.42 844.4 551.62 843.66 539.75C843.583 538.366 843.426 536.987 843.19 535.62C841.74 527.21 843.32 518.5 845.85 510.35C847.42 505.27 847.35 499.86 846.99 494.57C846.812 492.852 846.789 491.122 846.92 489.4C847.065 487.642 847.718 485.964 848.8 484.57C848.8 484.5 848.89 484.43 848.94 484.36C848.99 484.29 849.38 484.3 849.69 484.36C849.769 484.394 849.854 484.411 849.94 484.411C850.026 484.411 850.111 484.394 850.19 484.36L850.3 484.29C850.342 484.26 850.393 484.244 850.445 484.244C850.497 484.244 850.548 484.26 850.59 484.29C850.82 484.43 850.95 484.91 851.45 485C852.189 485.112 852.933 485.182 853.68 485.21C854.578 485.237 855.47 485.364 856.34 485.59H856.46C857.761 485.809 859.095 485.696 860.34 485.26C861.168 485.053 861.968 484.744 862.72 484.34C862.94 484.1 864.32 483.88 864.6 483.71C865.51 483.16 865.31 480.58 865.5 479.52C865.605 478.457 865.858 477.414 866.25 476.42C866.706 475.687 867.334 475.076 868.08 474.642C868.826 474.208 869.668 473.964 870.53 473.93C872.252 473.889 873.973 474.043 875.66 474.39C879.39 474.92 883.21 474.83 886.87 475.69C888.71 476.12 890.72 476.77 892.41 475.93C892.87 476.04 892.94 476.44 892.94 476.93C892.897 477.396 892.803 477.855 892.66 478.3C892.02 481.06 894.19 483.6 896.19 485.6C897.035 486.543 898.032 487.337 899.14 487.95C900.14 488.41 901.14 488.6 902.14 489.1C902.95 489.532 903.638 490.162 904.14 490.93C904.717 491.811 905.105 492.802 905.28 493.84C905.495 495.775 905.383 497.732 904.95 499.63Z" fill="#3F3D56"/>
<path opacity="0.1" d="M904.95 499.63C903.689 507.33 901.638 514.88 898.83 522.16C897.418 525.447 896.216 528.821 895.23 532.26C894.46 535.36 894.61 538.68 893.9 541.79C893.02 545.66 892.14 549.54 891.43 553.44C891.22 553.56 891 553.67 890.78 553.77C889.536 554.364 888.217 554.788 886.86 555.03C884.422 555.325 881.953 555.244 879.54 554.79L865.27 552.88C859.57 552.11 853.5 551.18 849.27 547.32C846.92 545.2 845.38 542.4 843.69 539.7C843.613 538.315 843.456 536.937 843.22 535.57C841.77 527.16 843.35 518.45 845.88 510.3C847.45 505.22 847.38 499.81 847.02 494.52C846.842 492.802 846.819 491.072 846.95 489.35C847.095 487.592 847.748 485.913 848.83 484.52C849.122 484.434 849.419 484.368 849.72 484.32V484.32C849.921 484.279 850.125 484.253 850.33 484.24H850.62C850.957 484.241 851.293 484.281 851.62 484.36C852.301 484.577 852.969 484.834 853.62 485.13H853.74C854.598 485.412 855.498 485.541 856.4 485.51C857.72 485.51 859.08 485.3 860.4 485.21C862.031 484.955 863.7 485.255 865.14 486.06C866.07 486.807 866.952 487.612 867.78 488.47C868.781 489.256 869.906 489.868 871.11 490.28C879.718 493.566 889.268 493.365 897.73 489.72C898.543 489.258 899.465 489.023 900.4 489.04C901.091 489.175 901.745 489.455 902.32 489.86C902.92 490.21 903.51 490.55 904.12 490.86C904.697 491.741 905.085 492.732 905.26 493.77C905.489 495.727 905.384 497.708 904.95 499.63V499.63Z" fill="black"/>
<path d="M913.66 493.01C909.678 491.794 905.852 490.116 902.26 488.01C901.684 487.607 901.03 487.328 900.34 487.19C899.403 487.179 898.479 487.413 897.66 487.87C889.202 491.514 879.655 491.715 871.05 488.43C869.848 488.014 868.723 487.402 867.72 486.62C866.889 485.765 866.008 484.96 865.08 484.21C861.79 482.08 857.24 484.58 853.56 483.21C852.908 482.918 852.24 482.661 851.56 482.44C848.65 481.71 845.69 484.61 842.83 483.73C841.766 486.622 840.979 489.609 840.48 492.65C840.074 496.142 839.857 499.654 839.83 503.17C839.83 505.28 839.73 507.39 839.83 509.5C840.183 509.558 840.519 509.688 840.819 509.882C841.118 510.077 841.374 510.331 841.57 510.63C841.702 510.978 841.755 511.351 841.728 511.723C841.7 512.094 841.592 512.455 841.41 512.78C839.32 518.15 837.2 523.58 834.03 528.39C836.264 529.721 838.338 531.305 840.21 533.11C843.71 536.81 845.43 542 849.21 545.42C853.47 549.27 859.54 550.21 865.21 550.97L879.48 552.88C881.897 553.332 884.368 553.417 886.81 553.13C888.164 552.883 889.479 552.456 890.72 551.86C891.531 551.521 892.27 551.032 892.9 550.42C893.428 549.821 893.862 549.147 894.19 548.42C895.32 546.16 896.35 543.85 897.3 541.51C897.63 540.68 898.13 539.71 899.03 539.64C904.33 534.86 909.33 529.96 914.63 525.18C916.76 523.415 918.67 521.4 920.32 519.18C922.95 515.29 920.56 509.78 920.32 505.08C920.291 503.878 920.141 502.682 919.87 501.51C919.01 498.1 916.99 494.02 913.66 493.01Z" fill="#AB3C2A"/>
<path opacity="0.1" d="M828.76 473C827.96 474.6 826.04 475.37 824.56 476.38L819.49 479.86C819.151 480.165 818.754 480.399 818.323 480.547C817.892 480.694 817.435 480.753 816.98 480.72C816.568 480.568 816.19 480.334 815.868 480.034C815.547 479.733 815.289 479.372 815.11 478.97C815.11 478.74 815.11 478.49 815.11 478.25C815.072 477.441 815.18 476.631 815.43 475.86C815.927 474.729 816.696 473.739 817.67 472.98C819.553 471.197 821.792 469.834 824.24 468.98C824.622 468.832 825.037 468.79 825.44 468.86C825.596 468.901 825.744 468.965 825.88 469.05C826.238 469.44 826.541 469.878 826.78 470.35C827.18 471.17 829.17 472.18 828.76 473Z" fill="black"/>
<path d="M840.7 483.54C839 483.46 837.61 482.23 836.37 481.06L832.58 477.54C832.326 477.326 832.104 477.076 831.92 476.8C831.715 476.411 831.56 475.998 831.46 475.57C830.656 473.55 829.397 471.743 827.78 470.29C827.498 469.932 827.12 469.661 826.69 469.51C826.283 469.435 825.864 469.477 825.48 469.63C823.031 470.483 820.792 471.846 818.91 473.63C817.937 474.39 817.167 475.38 816.67 476.51C816.418 477.28 816.31 478.09 816.35 478.9C816.373 481.542 816.967 484.148 818.09 486.54C818.26 486.91 818.45 487.28 818.65 487.64C819.984 489.845 821.561 491.895 823.35 493.75L825.73 496.41C828.07 499.03 830.41 501.65 832.95 504.06C833.86 505.031 834.964 505.801 836.19 506.32C836.805 506.571 837.478 506.648 838.134 506.542C838.79 506.436 839.405 506.152 839.91 505.72C840.389 505.165 840.75 504.519 840.97 503.82C842.51 499.82 843.97 495.66 844.06 491.35C844.081 489.624 844.008 487.898 843.84 486.18C843.69 484.36 842.4 483.65 840.7 483.54Z" fill="#AB3C2A"/>
<path d="M901.3 623.54C901.242 633.599 900.527 643.644 899.16 653.61C898.96 655.22 898.74 656.83 898.63 658.44C898.3 663.11 898.84 667.8 898.4 672.44C898.17 674.95 897.65 677.44 897.21 679.89C895.256 690.825 894.685 701.962 895.51 713.04C896.89 731.47 892.66 749.91 894.58 768.29C894.813 771.864 894.615 775.453 893.99 778.98C893.632 781.168 893.114 783.328 892.44 785.44C890.98 790.447 889.514 795.447 888.04 800.44C887.867 801.2 887.525 801.91 887.04 802.52C886.53 802.961 885.932 803.288 885.285 803.48C884.638 803.671 883.958 803.722 883.29 803.63C877.52 803.45 872.09 800.96 866.85 798.53C866.248 798.292 865.69 797.954 865.2 797.53C864.11 796.4 864.2 794.62 863.72 793.13C863.24 791.64 861.94 790.24 861.2 788.71C860.592 787.263 860.224 785.726 860.11 784.16C859.444 779.04 858.99 773.9 858.75 768.74C858.37 761.48 863.17 754.8 864.75 747.74C867.75 733.86 865.21 718.98 870.54 705.81C872.22 701.65 869.78 696.61 869.54 692.13C869.454 689.24 869.079 686.366 868.42 683.55C867.42 679.79 865.31 676.25 865.16 672.35C865.05 669.53 865.96 666.78 866.43 664C867.054 659.909 866.996 655.743 866.26 651.67C865.73 648.31 864.92 644.95 864.11 641.67L863.93 642.04C861.494 646.802 859.398 651.731 857.66 656.79C856.86 659.24 856.16 661.74 855.16 664.12C854.34 666.12 853.33 667.95 852.34 669.83C848.789 676.46 845.699 683.326 843.09 690.38C841.85 693.84 840.76 697.38 839.68 700.85L832.27 724.85C830.27 731.16 828.08 737.26 826.12 743.56C823.35 752.56 820.58 761.48 817.36 770.28C814.36 778.63 810.79 787.28 811.86 796.1C809.103 797.396 806.075 798.01 803.03 797.89C797.876 797.434 792.82 796.207 788.03 794.25C786.12 793.54 784.14 792.74 782.85 791.17C780.63 788.46 781.18 784.49 781.85 781.04C782.103 779.485 782.505 777.958 783.05 776.48C783.81 774.64 785.05 773.01 785.83 771.19C787.4 767.7 787.5 763.75 788.12 759.96C788.74 756.17 790.12 752.17 793.36 750.11C793.91 743.45 796.65 736.88 798.16 730.37C799.3 725.44 799.68 720.37 800.58 715.37C801.48 710.37 802.93 705.37 805.95 701.32C805.712 697.144 806.655 692.985 808.67 689.32C809.157 688.515 809.556 687.66 809.86 686.77C810.047 685.901 810.154 685.018 810.18 684.13C810.511 680.655 811.997 677.391 814.4 674.86C813.4 671.21 814.79 667.4 816.04 663.86C817.615 659.343 818.327 654.57 818.14 649.79C817.985 648.455 818.049 647.104 818.33 645.79C818.61 644.79 819.16 643.94 819.48 642.98C819.766 641.804 819.916 640.6 819.93 639.39C820.32 633.98 822.51 628.88 824.93 624.05C826.37 621.23 825.15 617.4 825.45 614.26C825.97 609.04 826.54 603.64 829.13 599.09C829.61 598.23 830.13 597.41 830.56 596.52C831.081 595.249 831.363 593.893 831.39 592.52C831.48 590.23 831.8 588.33 830.98 586.2C836.33 581.75 843.63 580.5 850.59 580.2C857.55 579.9 864.59 580.53 871.4 579.05C873.4 578.6 875.4 577.98 877.51 577.68C882.3 576.98 887.16 578.07 891.89 579.15C891.56 582.15 892.66 585.03 893.89 587.82C898.692 599.121 901.211 611.261 901.3 623.54V623.54Z" fill="#33313F"/>
<path opacity="0.1" d="M877.75 625.83L866.26 651.67C865.73 648.31 864.92 644.95 864.11 641.67L863.93 642.04V641.5L870.19 627.73L877.75 625.83Z" fill="black"/>
<path opacity="0.1" d="M912.18 571.85C911.517 572.346 910.726 572.641 909.9 572.7C908.633 572.745 907.368 572.572 906.16 572.19L897.16 569.94C896.878 569.87 896.603 569.773 896.34 569.65C896.49 568.08 896.79 566.26 897.64 565.65C898.91 564.8 902.71 565.94 904.15 566.14C906.63 566.48 909.15 566.88 911.57 567.35C911.945 568.822 912.15 570.331 912.18 571.85V571.85Z" fill="black"/>
<path d="M919.79 512.35C919.98 513.18 920.25 514 920.41 514.84C920.679 516.901 920.608 518.992 920.2 521.03L919.38 526.75L918.56 532.5L915.39 554.63L914.61 560.11L913.51 567.76C913.458 568.397 913.296 569.019 913.03 569.6C912.703 570.144 912.245 570.597 911.699 570.92C911.152 571.243 910.534 571.425 909.9 571.45C908.634 571.49 907.37 571.318 906.16 570.94L897.16 568.68C896.766 568.61 896.391 568.457 896.06 568.23C895.785 567.961 895.587 567.624 895.485 567.254C895.383 566.883 895.381 566.492 895.48 566.12C895.61 565.36 895.94 564.65 896.05 563.89C896.27 562.41 895.65 560.89 895.87 559.42C896.086 558.484 896.422 557.58 896.87 556.73C899.87 550.1 898.13 542.36 899.15 535.16C900.068 529.493 902.462 524.168 906.09 519.72C908.33 516.912 910.902 514.387 913.75 512.2C914.87 511.33 916.65 509.54 918.06 509.2C919.87 508.82 919.49 511.09 919.79 512.35Z" fill="#AB3C2A"/>
<path d="M851.68 426.21C851.02 428.31 852.05 430.62 851.58 432.76C851.07 435.12 848.85 436.76 848.22 439.13C847.22 442.74 850.28 446.03 852.52 449.03C860.82 460.17 859.73 475.59 856.89 489.18C854.605 500.083 851.445 510.785 847.44 521.18C846.19 524.41 844.81 527.69 842.35 530.11C846.95 528.79 851.84 527.46 856.45 528.74C862.29 530.36 867.33 536.03 873.25 534.74C876.81 533.95 879.31 530.79 882.51 529.04C888.51 525.81 895.74 527.84 902.43 528.88C903.872 529.22 905.38 529.144 906.78 528.66C907.85 528.085 908.758 527.249 909.42 526.23C912.406 522.4 914.194 517.773 914.56 512.93C914.718 510.519 914.362 508.101 913.516 505.838C912.67 503.574 911.352 501.516 909.65 499.8C908.23 498.46 906.53 497.38 905.44 495.8C904.38 493.955 903.812 491.868 903.79 489.74C903 478.74 905.68 467.51 902.92 456.87C901.92 453.08 900.29 449.45 899.85 445.57C899.3 440.74 900.61 435.57 898.69 431.15C897.18 427.64 893.85 425.15 890.26 423.87C886.67 422.59 882.83 422.23 879.02 421.87C873.54 421.41 853.97 419.06 851.68 426.21Z" fill="#33313F"/>
<g opacity="0.1">
<path opacity="0.1" d="M856.89 489.18C854.616 500.038 851.473 510.696 847.49 521.05C848.18 519.68 848.76 518.24 849.31 516.81C853.319 506.416 856.48 495.714 858.76 484.81C861.61 471.21 862.7 455.81 854.4 444.66C852.4 442 849.83 439.12 849.92 436C849.181 436.944 848.606 438.005 848.22 439.14C847.22 442.75 850.28 446.04 852.52 449.04C860.82 460.17 859.73 475.59 856.89 489.18Z" fill="black"/>
<path opacity="0.1" d="M851.7 431.75C852.503 430.753 853.101 429.608 853.46 428.38C853.615 426.894 853.574 425.395 853.34 423.92C852.57 424.5 851.992 425.297 851.68 426.21C851.09 427.98 851.77 429.9 851.7 431.75Z" fill="black"/>
<path opacity="0.1" d="M911.3 521.83C910.638 522.846 909.73 523.678 908.66 524.25C907.262 524.744 905.751 524.82 904.31 524.47C897.62 523.47 890.31 521.41 884.39 524.64C881.18 526.38 878.69 529.54 875.12 530.34C869.21 531.66 864.17 525.99 858.33 524.34C854.19 523.19 849.83 524.14 845.66 525.34C844.832 527.107 843.713 528.723 842.35 530.12C846.95 528.8 851.84 527.47 856.45 528.75C862.29 530.37 867.33 536.04 873.25 534.75C876.81 533.96 879.31 530.8 882.51 529.05C888.51 525.82 895.74 527.85 902.43 528.89C903.872 529.23 905.38 529.154 906.78 528.67C907.85 528.095 908.758 527.259 909.42 526.24C911.232 523.849 912.632 521.172 913.56 518.32C912.892 519.542 912.137 520.715 911.3 521.83Z" fill="black"/>
</g>
</g>
<defs>
<linearGradient id="paint0_linear" x1="768.6" y1="612.42" x2="921.6" y2="612.42" gradientUnits="userSpaceOnUse">
<stop stop-color="#808080" stop-opacity="0.25"/>
<stop offset="0.54" stop-color="#808080" stop-opacity="0.12"/>
<stop offset="1" stop-color="#808080" stop-opacity="0.1"/>
</linearGradient>
<clipPath id="clip0">
<rect width="1166.17" height="805.09" fill="white"/>
</clipPath>
</defs>
</svg>
