<svg width="854" height="621" viewBox="0 0 854 621" fill="none" xmlns="http://www.w3.org/2000/svg">
<g clip-path="url(#clip0)">
<path opacity="0.1" d="M60.3527 501.391C83.8369 501.391 102.875 494.622 102.875 486.271C102.875 477.92 83.8369 471.151 60.3527 471.151C36.8685 471.151 17.8308 477.92 17.8308 486.271C17.8308 494.622 36.8685 501.391 60.3527 501.391Z" fill="black"/>
<path opacity="0.1" d="M747.298 563.903C770.783 563.903 789.82 557.133 789.82 548.783C789.82 540.432 770.783 533.663 747.298 533.663C723.814 533.663 704.776 540.432 704.776 548.783C704.776 557.133 723.814 563.903 747.298 563.903Z" fill="black"/>
<path opacity="0.1" d="M503.544 17.4164C438.835 42.4117 368.693 43.5741 303.54 20.0435C211.201 -13.2963 90.6094 -21.8296 45.9236 130.949C-30.3417 391.969 125.685 485.137 125.685 485.137C125.685 485.137 234.617 509.556 294.932 553.678C380.609 616.351 485.534 637.301 584.373 607.912C647.58 589.115 701.753 558.28 717.24 507.826C760.556 366.718 733.058 281.904 811.45 244.699C889.841 207.494 846.223 69.6656 790.472 66.5377C734.721 63.4097 603.376 95.3792 562.744 31.7899C548.258 9.21375 526.1 8.69399 503.544 17.4164Z" fill="black"/>
<path d="M745.579 550.928C745.579 550.928 756.918 512.334 743.443 483.927C737.705 472.048 735.974 458.629 738.511 445.683C739.763 439.545 741.576 433.535 743.925 427.728" stroke="#5C5C5E" stroke-width="2" stroke-miterlimit="10"/>
<path d="M735.534 409.782C735.534 414.507 744.095 428.229 744.095 428.229C744.095 428.229 752.656 414.517 752.656 409.782C752.656 407.51 751.754 405.331 750.147 403.725C748.541 402.118 746.362 401.216 744.09 401.216C741.819 401.216 739.64 402.118 738.034 403.725C736.427 405.331 735.525 407.51 735.525 409.782H735.534Z" fill="#2BAB70"/>
<path d="M721.379 435.987C723.949 439.956 738.596 446.817 738.596 446.817C738.596 446.817 738.331 430.648 735.761 426.679C735.15 425.735 734.359 424.921 733.433 424.283C732.507 423.645 731.465 423.196 730.365 422.96C729.266 422.725 728.131 422.709 727.025 422.912C725.919 423.116 724.865 423.535 723.921 424.146C722.977 424.758 722.163 425.549 721.525 426.475C720.887 427.4 720.438 428.443 720.203 429.542C719.967 430.642 719.951 431.777 720.155 432.883C720.358 433.989 720.777 435.044 721.388 435.987H721.379Z" fill="#2BAB70"/>
<path d="M721.993 480.752C726.217 482.878 742.319 481.413 742.319 481.413C742.319 481.413 733.928 467.588 729.704 465.462C727.676 464.439 725.326 464.264 723.169 464.975C721.012 465.685 719.226 467.224 718.204 469.251C717.181 471.279 717.006 473.63 717.717 475.786C718.427 477.943 719.966 479.729 721.993 480.752Z" fill="#2BAB70"/>
<path d="M730.091 514.526C733.871 517.361 750.01 518.609 750.01 518.609C750.01 518.609 744.076 503.564 740.278 500.758C738.452 499.407 736.164 498.836 733.918 499.172C731.672 499.508 729.651 500.723 728.301 502.548C726.95 504.374 726.38 506.662 726.716 508.908C727.051 511.155 728.266 513.175 730.091 514.526Z" fill="#2BAB70"/>
<path d="M756.568 447.733C753.176 451.032 737.367 454.443 737.367 454.443C737.367 454.443 741.241 438.746 744.634 435.448C746.263 433.866 748.454 432.995 750.725 433.028C752.995 433.061 755.16 433.994 756.743 435.623C758.326 437.252 759.196 439.443 759.164 441.715C759.131 443.986 758.197 446.151 756.568 447.733Z" fill="#2BAB70"/>
<path d="M765.536 487.338C761.312 489.465 745.21 488 745.21 488C745.21 488 753.601 474.174 757.825 472.095C759.852 471.073 762.203 470.898 764.36 471.608C766.516 472.319 768.302 473.857 769.325 475.885C770.347 477.913 770.522 480.263 769.812 482.42C769.101 484.577 767.563 486.363 765.536 487.386V487.338Z" fill="#2BAB70"/>
<path d="M768.966 527.038C765.186 529.873 749.047 531.12 749.047 531.12C749.047 531.12 754.981 516.076 758.779 513.269C760.605 511.918 762.893 511.348 765.139 511.684C767.385 512.02 769.406 513.234 770.756 515.06C772.107 516.886 772.678 519.174 772.342 521.42C772.006 523.666 770.792 525.687 768.966 527.038Z" fill="#2BAB70"/>
<path d="M60.3717 486.384C60.3717 486.384 84.6469 404.055 55.836 343.386C43.7409 317.937 39.7722 289.379 45.3189 261.766C47.9929 248.67 51.8613 235.846 56.8754 223.456" stroke="#5C5C5E" stroke-width="2" stroke-miterlimit="10"/>
<path d="M38.9501 185.136C38.9501 195.228 57.225 224.505 57.225 224.505C57.225 224.505 75.4905 195.21 75.4905 185.136C75.4905 180.289 73.5651 175.64 70.1379 172.212C66.7107 168.785 62.0624 166.859 57.2156 166.859C52.3687 166.859 47.7204 168.785 44.2932 172.212C40.866 175.64 38.9406 180.289 38.9406 185.136H38.9501Z" fill="#2BAB70"/>
<path d="M8.74063 241.052C14.2307 249.557 45.4795 264.167 45.4795 264.167C45.4795 264.167 44.9126 229.655 39.4225 221.188C36.7368 217.243 32.615 214.506 27.9378 213.56C23.2606 212.615 18.3992 213.536 14.3924 216.128C10.3856 218.719 7.55129 222.775 6.49519 227.429C5.4391 232.083 6.24498 236.965 8.74063 241.033V241.052Z" fill="#2BAB70"/>
<path d="M10.054 336.61C19.0687 341.156 53.4358 338.018 53.4358 338.018C53.4358 338.018 35.4821 308.515 26.5147 303.998C24.3717 302.917 22.0368 302.269 19.6432 302.091C17.2497 301.912 14.8445 302.207 12.5649 302.958C10.2853 303.709 8.17591 304.902 6.35726 306.468C4.5386 308.035 3.04626 309.944 1.96544 312.087C0.884616 314.231 0.236479 316.566 0.0580316 318.959C-0.120416 321.353 0.174323 323.759 0.92542 326.038C2.44233 330.643 5.72599 334.456 10.054 336.639V336.61Z" fill="#2BAB70"/>
<path d="M27.2991 408.686C35.416 414.687 69.821 417.399 69.821 417.399C69.821 417.399 57.1589 385.269 49.0325 379.296C45.1355 376.414 40.2532 375.198 35.4597 375.916C30.6662 376.634 26.3541 379.226 23.4721 383.124C20.5901 387.021 19.3742 391.904 20.0919 396.698C20.8095 401.491 23.4021 405.804 27.2991 408.686Z" fill="#2BAB70"/>
<path d="M83.8532 266.085C76.615 273.116 42.881 280.402 42.881 280.402C42.881 280.402 51.1397 246.892 58.3778 239.861C61.8551 236.477 66.5339 234.614 71.385 234.68C76.2361 234.747 80.8621 236.738 84.2453 240.215C87.6286 243.693 89.4919 248.372 89.4255 253.224C89.359 258.075 87.3682 262.701 83.891 266.085H83.8532Z" fill="#2BAB70"/>
<path d="M102.988 350.672C93.9733 355.218 59.6062 352.08 59.6062 352.08C59.6062 352.08 77.5599 322.577 86.5273 318.06C88.6703 316.979 91.0052 316.331 93.3988 316.153C95.7923 315.974 98.1975 316.269 100.477 317.02C102.757 317.771 104.866 318.964 106.685 320.531C108.503 322.097 109.996 324.006 111.077 326.149C112.157 328.293 112.806 330.628 112.984 333.021C113.162 335.415 112.868 337.821 112.117 340.1C111.365 342.38 110.173 344.49 108.606 346.308C107.04 348.127 105.131 349.62 102.988 350.701V350.672Z" fill="#2BAB70"/>
<path d="M110.311 435.401C102.194 441.402 67.7893 444.114 67.7893 444.114C67.7893 444.114 80.4514 411.984 88.5778 406.012C92.4748 403.13 97.357 401.913 102.151 402.631C106.944 403.349 111.256 405.942 114.138 409.839C117.02 413.736 118.236 418.619 117.518 423.413C116.801 428.207 114.208 432.519 110.311 435.401Z" fill="#2BAB70"/>
<path d="M358.27 283.303L305.609 276.48C303.474 276.206 301.83 275.393 301.886 274.684C301.981 273.975 303.776 273.645 305.959 273.956L358.507 281.564C359.952 281.772 361.049 282.32 360.982 282.802C360.916 283.255 359.707 283.492 358.27 283.303Z" fill="#5C5C5E"/>
<path d="M358.601 284.201L305.779 278.739C303.635 278.521 301.811 278.918 301.745 279.627C301.679 280.336 303.389 281.082 305.524 281.271L358.441 285.996C359.896 286.129 361.086 285.845 361.134 285.363C361.171 284.853 360.047 284.352 358.601 284.201Z" fill="#5C5C5E"/>
<path d="M437.843 323.938L490.495 317.115C492.63 316.841 494.274 316.028 494.218 315.319C494.123 314.611 492.328 314.28 490.145 314.592L437.597 322.199C436.152 322.407 435.056 322.955 435.122 323.437C435.188 323.891 436.397 324.127 437.843 323.938Z" fill="#5C5C5E"/>
<path d="M437.503 324.836L490.325 319.373C492.47 319.156 494.293 319.553 494.359 320.262C494.426 320.97 492.715 321.717 490.58 321.906L437.663 326.631C436.208 326.763 435.018 326.48 434.97 325.998C434.933 325.488 436.057 324.987 437.503 324.836Z" fill="#5C5C5E"/>
<path d="M263.664 380.497H250.822V564.64H263.664V380.497Z" fill="#5C5C5E"/>
<path d="M544.138 380.497H531.297V564.64H544.138V380.497Z" fill="#5C5C5E"/>
<path d="M245.918 365.509H542.626C548.14 365.509 553.427 367.699 557.326 371.598C561.225 375.497 563.415 380.785 563.415 386.299V389.058H225.13V386.299C225.13 380.785 227.32 375.497 231.219 371.598C235.117 367.699 240.405 365.509 245.918 365.509Z" fill="#DFE6F5"/>
<path opacity="0.1" d="M244.973 365.509H541.681C547.195 365.509 552.483 367.699 556.381 371.598C560.28 375.497 562.47 380.785 562.47 386.299V389.058H224.185V386.299C224.185 380.785 226.375 375.497 230.274 371.598C234.172 367.699 239.46 365.509 244.973 365.509Z" fill="black"/>
<path d="M245.918 361.218H542.626C548.14 361.218 553.427 363.409 557.326 367.308C561.225 371.206 563.415 376.494 563.415 382.008V384.768H225.13V382.008C225.13 376.494 227.32 371.206 231.219 367.308C235.117 363.409 240.405 361.218 245.918 361.218Z" fill="#DFE6F5"/>
<path d="M394.272 346.231C408.462 346.231 419.965 334.727 419.965 320.536C419.965 306.345 408.462 294.841 394.272 294.841C380.083 294.841 368.58 306.345 368.58 320.536C368.58 334.727 380.083 346.231 394.272 346.231Z" fill="#FFD77C" stroke="#F98D1C" stroke-miterlimit="10"/>
<path d="M394.272 340.901C405.519 340.901 414.636 331.783 414.636 320.536C414.636 309.289 405.519 300.171 394.272 300.171C383.026 300.171 373.909 309.289 373.909 320.536C373.909 331.783 383.026 340.901 394.272 340.901Z" fill="#FFD77C" stroke="#F98D1C" stroke-miterlimit="10"/>
<path d="M394.272 336.053C402.841 336.053 409.788 329.106 409.788 320.536C409.788 311.966 402.841 305.019 394.272 305.019C385.703 305.019 378.757 311.966 378.757 320.536C378.757 329.106 385.703 336.053 394.272 336.053Z" fill="#FFD77C" stroke="#F98D1C" stroke-miterlimit="10"/>
<path d="M394.272 329.258C399.089 329.258 402.994 325.353 402.994 320.536C402.994 315.719 399.089 311.813 394.272 311.813C389.455 311.813 385.551 315.719 385.551 320.536C385.551 325.353 389.455 329.258 394.272 329.258Z" fill="#FFD77C" stroke="#F98D1C" stroke-miterlimit="10"/>
<path d="M379.286 360.15C393.475 360.15 404.978 348.647 404.978 334.456C404.978 320.265 393.475 308.761 379.286 308.761C365.096 308.761 353.593 320.265 353.593 334.456C353.593 348.647 365.096 360.15 379.286 360.15Z" fill="#FFD77C" stroke="#F98D1C" stroke-miterlimit="10"/>
<path d="M379.286 354.821C390.532 354.821 399.649 345.703 399.649 334.456C399.649 323.208 390.532 314.091 379.286 314.091C368.039 314.091 358.922 323.208 358.922 334.456C358.922 345.703 368.039 354.821 379.286 354.821Z" fill="#FFD77C" stroke="#F98D1C" stroke-miterlimit="10"/>
<path d="M379.286 349.973C387.855 349.973 394.802 343.026 394.802 334.456C394.802 325.886 387.855 318.939 379.286 318.939C370.717 318.939 363.77 325.886 363.77 334.456C363.77 343.026 370.717 349.973 379.286 349.973Z" fill="#FFD77C" stroke="#F98D1C" stroke-miterlimit="10"/>
<path d="M379.286 343.178C384.103 343.178 388.007 339.273 388.007 334.456C388.007 329.639 384.103 325.733 379.286 325.733C374.469 325.733 370.564 329.639 370.564 334.456C370.564 339.273 374.469 343.178 379.286 343.178Z" fill="#FFD77C" stroke="#F98D1C" stroke-miterlimit="10"/>
<path d="M409.259 360.15C423.449 360.15 434.952 348.647 434.952 334.456C434.952 320.265 423.449 308.761 409.259 308.761C395.069 308.761 383.566 320.265 383.566 334.456C383.566 348.647 395.069 360.15 409.259 360.15Z" fill="#FFD77C" stroke="#F98D1C" stroke-miterlimit="10"/>
<path d="M409.259 354.821C420.505 354.821 429.622 345.703 429.622 334.456C429.622 323.208 420.505 314.091 409.259 314.091C398.013 314.091 388.896 323.208 388.896 334.456C388.896 345.703 398.013 354.821 409.259 354.821Z" fill="#FFD77C" stroke="#F98D1C" stroke-miterlimit="10"/>
<path d="M409.259 349.973C417.828 349.973 424.775 343.026 424.775 334.456C424.775 325.886 417.828 318.939 409.259 318.939C400.69 318.939 393.743 325.886 393.743 334.456C393.743 343.026 400.69 349.973 409.259 349.973Z" fill="#FFD77C" stroke="#F98D1C" stroke-miterlimit="10"/>
<path d="M409.259 343.178C414.076 343.178 417.981 339.273 417.981 334.456C417.981 329.639 414.076 325.733 409.259 325.733C404.442 325.733 400.537 329.639 400.537 334.456C400.537 339.273 404.442 343.178 409.259 343.178Z" fill="#FFD77C" stroke="#F98D1C" stroke-miterlimit="10"/>
<path d="M340.742 326.972H447.793V331.999C447.793 336.963 446.816 341.878 444.916 346.465C443.017 351.051 440.232 355.218 436.723 358.728C433.213 362.238 429.046 365.022 424.46 366.922C419.875 368.821 414.96 369.799 409.996 369.799H378.539C373.576 369.799 368.661 368.821 364.075 366.922C359.489 365.022 355.322 362.238 351.813 358.728C348.303 355.218 345.519 351.051 343.619 346.465C341.72 341.878 340.742 336.963 340.742 331.999V326.972Z" fill="#5C5C5E"/>
<path opacity="0.1" d="M438.136 326.962C437.857 338.129 433.227 348.744 425.231 356.544C417.236 364.344 406.509 368.711 395.34 368.712H374.089C377.189 369.42 380.358 369.782 383.538 369.789H404.95C410.575 369.792 416.146 368.686 421.344 366.535C426.542 364.384 431.265 361.229 435.244 357.252C439.222 353.275 442.378 348.553 444.532 343.356C446.685 338.158 447.793 332.588 447.793 326.962H438.136Z" fill="black"/>
<path d="M537.722 533.587V520.745H259.383V533.587H537.722Z" fill="#5C5C5E"/>
<path d="M155.025 475.895H143.79V578.125H155.025V475.895Z" fill="#5C5C5E"/>
<path d="M243.764 475.895H232.529V578.125H243.764V475.895Z" fill="#5C5C5E"/>
<path d="M252.759 459.045C252.759 465.868 229.628 471.406 201.091 471.406C172.554 471.406 150.546 465.878 150.546 459.045C150.546 452.213 172.554 446.685 201.091 446.685C229.628 446.685 252.759 452.251 252.759 459.045Z" fill="#F6C6CD"/>
<path d="M134.804 459.036H252.75V469.336C252.75 471.968 251.705 474.492 249.844 476.352C247.983 478.213 245.46 479.259 242.828 479.259H151.813C147.302 479.259 142.975 477.467 139.786 474.277C136.596 471.087 134.804 466.76 134.804 462.249V459.036Z" fill="#5C5C5E"/>
<path d="M114.774 340.835L117.208 340.286C118.919 339.9 120.714 340.209 122.197 341.146C123.68 342.083 124.73 343.571 125.116 345.282L154.574 475.792L150.887 476.625C147.792 477.323 144.546 476.764 141.864 475.069C139.181 473.375 137.282 470.684 136.583 467.589L109.76 348.749C109.569 347.9 109.546 347.021 109.695 346.164C109.843 345.306 110.159 344.486 110.625 343.751C111.091 343.016 111.697 342.38 112.409 341.88C113.121 341.379 113.925 341.024 114.774 340.835Z" fill="#5C5C5E"/>
<path d="M635.4 579.939H646.635V477.709H635.4V579.939Z" fill="#5C5C5E"/>
<path d="M546.661 579.939H557.896V477.709H546.661V579.939Z" fill="#5C5C5E"/>
<path d="M537.684 460.86C537.684 467.683 560.816 473.22 589.353 473.22C617.89 473.22 639.898 467.692 639.898 460.86C639.898 454.027 617.881 448.471 589.353 448.471C560.826 448.471 537.684 454.037 537.684 460.86Z" fill="#F6C6CD"/>
<path d="M638.613 481.083H547.597C544.965 481.083 542.442 480.037 540.581 478.176C538.72 476.315 537.675 473.792 537.675 471.16V460.859H655.621V464.072C655.621 468.584 653.829 472.91 650.64 476.1C647.45 479.29 643.124 481.083 638.613 481.083Z" fill="#5C5C5E"/>
<path d="M639.555 478.438L635.868 477.606L665.33 347.077C665.716 345.366 666.766 343.878 668.249 342.941C669.732 342.004 671.527 341.695 673.238 342.081L675.671 342.631C677.383 343.017 678.87 344.067 679.807 345.55C680.744 347.034 681.054 348.828 680.667 350.54L653.84 469.398C653.142 472.49 651.246 475.179 648.567 476.874C645.889 478.569 642.648 479.131 639.555 478.438Z" fill="#5C5C5E"/>
<path d="M643.555 421.066L646.871 420.017C646.871 420.017 641.202 382.141 641.258 348.196C641.258 347.251 641.258 346.24 641.258 345.267C641.324 343.15 641.4 341.052 641.504 339.001C641.636 336.374 641.665 333.87 641.646 331.441C641.958 298.754 629.078 284.947 629.078 284.947C629.078 284.947 613.959 263.382 604.897 259.186C604.113 256.729 603.215 253.573 602.422 249.906C602.715 249.708 602.998 249.51 603.272 249.302C607.015 246.525 610.595 243.537 613.997 240.352C618.646 235.996 623.106 230.685 622.861 224.694C622.886 224.11 622.867 223.526 622.804 222.946C621.944 215.716 614.432 210.273 611.399 203.422C608.847 197.667 609.613 191.26 607.383 185.419C605.153 179.579 597.366 174.146 591.489 177.217C589.325 178.351 588.021 180.354 586.216 181.876C581.737 185.656 574.518 186.005 568.395 184.285C562.272 182.566 560.457 175.554 551.896 175.535C552.656 175.79 553.383 176.135 554.06 176.565C553.345 176.444 552.621 176.381 551.896 176.376C553.638 176.927 555.182 177.971 556.342 179.381C557.503 180.792 558.23 182.508 558.435 184.323C558.422 184.551 558.397 184.778 558.36 185.004C554.939 186.846 550.441 185.797 546.34 185.731C542.239 185.665 537.571 187.735 537.977 191.089C537.908 191.471 537.908 191.861 537.977 192.242C538.516 194.784 541.918 196.703 542.334 199.056C542.334 199.122 542.334 199.179 542.334 199.245C534.744 203.037 526.534 205.432 518.096 206.313C517.822 206.313 517.945 206.644 518.342 207.126H518.096C516.556 207.287 527.328 215.801 528.556 216.359C533.054 218.4 538.431 219.903 543.193 221.471L543.609 221.604C542.005 225.332 541.178 229.348 541.181 233.407C541.181 247.96 551.641 260.188 565.806 263.647C568.451 266.737 571.229 270.13 573.762 273.503H573.582C573.582 273.503 557.301 295.163 557.821 327.51C557.775 331.564 557.989 335.617 558.463 339.644C547.994 339.049 525.495 336.289 508.382 323.759C485.297 306.871 459.548 311.937 464.915 322.067C470.283 332.197 497.771 340.636 502.202 341.487C502.618 341.562 503.582 341.789 504.961 342.129C499.5 343.159 495.758 344.964 495.985 347.393C496.429 352.033 519.958 366.813 534.16 367.654C543.543 368.212 554.835 371.103 563.746 373.645C564.606 393.065 559.909 398.886 559.909 398.886C559.909 398.886 561.308 399.746 563.623 400.965L562.631 403.8C556.867 407.127 549.761 410.595 543.297 411.994C535.061 413.686 527.055 416.351 519.447 419.932L487.48 435.382C484.626 436.707 482.156 438.738 480.304 441.282C478.452 443.827 477.279 446.802 476.897 449.926C476.198 456.475 478.173 464.659 488.869 471.151C489.531 476.471 492.781 482.68 501.314 488.369C517.85 499.369 561.308 532.321 567.223 536.819C567.336 544.861 566.278 560.992 556.356 563.506C543.921 566.662 553.928 578.626 563.982 578.154C566.368 579.056 568.964 579.247 571.456 578.702C582.115 576.169 621.179 562.637 623.843 542.395C623.954 541.517 624.004 540.633 623.994 539.749C624.149 536.298 623.289 532.877 621.519 529.911C621.936 530.826 622.274 531.774 622.53 532.746C619.298 525.375 611.427 520.745 605.304 518.136C605.304 518.07 605.304 517.995 605.304 517.928C604.359 517.56 603.414 517.258 602.639 516.983C602.655 516.436 602.613 515.888 602.516 515.349L541.256 473.135C541.256 473.135 567.894 451.183 595.42 454.566C622.946 457.949 627.33 452.95 627.33 452.95C627.33 452.95 641.447 439.522 642.865 424.061L643.753 423.825C643.753 423.825 643.687 422.852 643.555 421.066Z" fill="url(#paint0_linear)"/>
<path d="M568.744 531.017C568.744 531.017 571.248 558.582 558.719 561.928C546.189 565.273 557.887 578.635 567.903 576.103C577.92 573.57 614.687 560.227 617.191 540.193C619.695 520.159 592.131 513.458 592.131 513.458L568.744 531.017Z" fill="#5C5C5E"/>
<path opacity="0.05" d="M568.744 531.017C568.744 531.017 571.248 558.582 558.719 561.928C546.189 565.273 557.887 578.635 567.903 576.103C577.92 573.57 614.687 560.227 617.191 540.193C619.695 520.159 592.131 513.458 592.131 513.458L568.744 531.017Z" fill="black"/>
<path d="M573.781 531.848C573.781 531.848 576.285 559.414 563.755 562.759C551.225 566.105 562.924 579.467 572.94 576.934C582.956 574.402 619.723 561.058 622.227 541.024C624.732 520.99 597.168 514.29 597.168 514.29L573.781 531.848Z" fill="#535355"/>
<path opacity="0.1" d="M599.672 515.141L576.304 532.689C576.304 532.689 576.408 533.88 576.474 535.78C585.299 533.36 604.529 526.934 604.822 516.879C603.142 516.197 601.422 515.617 599.672 515.141Z" fill="black"/>
<path d="M585.054 274.949H575.028V282.471H585.054V274.949Z" fill="#F8BDC5"/>
<path d="M575.453 396.495C575.453 396.495 559.531 409.007 546.453 411.974C538.678 413.657 531.14 416.295 524.011 419.827L493.934 435.117C491.203 436.492 488.86 438.529 487.12 441.044C485.38 443.558 484.298 446.469 483.975 449.51C483.115 458.015 486.535 469.204 506.946 475.857L571.267 529.325L591.319 512.617L522.821 459.999L575.453 427.416V396.495Z" fill="#5C5C5E"/>
<path opacity="0.1" d="M575.453 396.495C575.453 396.495 559.531 409.007 546.453 411.974C538.678 413.657 531.14 416.295 524.011 419.827L493.934 435.117C491.203 436.492 488.86 438.529 487.12 441.044C485.38 443.558 484.298 446.469 483.975 449.51C483.115 458.015 486.535 469.204 506.946 475.857L571.267 529.325L591.319 512.617L522.821 459.999L575.453 427.416V396.495Z" fill="#2F2E41"/>
<path d="M566.259 340.532C566.259 340.532 535.35 341.364 513.626 324.656C491.903 307.948 467.684 312.957 472.692 322.983C477.7 333.01 503.601 341.364 507.777 342.195C511.954 343.027 572.099 359.744 572.099 359.744L566.259 340.532Z" fill="#F8BDC5"/>
<path opacity="0.05" d="M566.259 340.532C566.259 340.532 535.35 341.364 513.626 324.656C491.903 307.948 467.684 312.957 472.692 322.983C477.7 333.01 503.601 341.364 507.777 342.195C511.954 343.027 572.099 359.744 572.099 359.744L566.259 340.532Z" fill="black"/>
<path d="M569.604 388.992L559.579 419.072C559.579 419.072 503.195 453.744 498.593 458.337C495.021 461.909 490.239 475.885 506.946 487.575C523.652 499.265 569.595 536.035 569.595 536.035C569.595 536.035 604.68 528.475 602.176 514.3L544.535 472.531C544.535 472.531 569.595 450.795 595.495 454.15C621.396 457.505 625.573 452.478 625.573 452.478C625.573 452.478 645.624 432.406 638.934 413.222C632.244 394.039 569.604 388.992 569.604 388.992Z" fill="#5C5C5E"/>
<path d="M557.074 252.855C557.074 252.855 585.479 283.766 583.807 292.951C582.134 302.137 606.362 266.217 606.362 266.217C606.362 266.217 598.803 247.837 600.513 227.784L557.074 252.855Z" fill="#F8BDC5"/>
<path opacity="0.1" d="M581.86 281.205C583.798 279.159 585.838 277.213 587.974 275.374C592.248 271.869 596.169 267.954 599.681 263.685C605.531 256.125 627.245 288.746 627.245 288.746C627.245 288.746 640.606 303.781 638.943 339.71C637.28 375.639 641.032 423.674 641.032 423.674L635.976 425.082C631.718 426.503 627.188 426.914 622.743 426.283C618.299 425.651 614.062 423.995 610.369 421.444C603.697 416.832 595.25 411.994 588.824 411.559C576.294 410.727 565.012 403.621 565.012 403.621C565.012 403.621 570.445 390.674 562.092 348.896C553.739 307.117 575.028 277.425 575.028 277.425C575.028 277.425 576.71 286.516 581.86 281.205Z" fill="black"/>
<path d="M643.951 419.903L638.943 421.576L635.967 422.568C631.709 423.99 627.178 424.401 622.734 423.77C618.289 423.138 614.053 421.481 610.359 418.93C603.697 414.328 595.24 409.48 588.815 409.045C576.304 408.204 562.13 399.018 562.13 399.018C562.13 399.018 570.483 388.16 562.13 346.382C553.777 304.603 575.075 274.949 575.075 274.949C575.075 274.949 576.757 283.993 581.907 278.672C583.841 276.628 585.878 274.685 588.011 272.851C592.286 269.345 596.207 265.43 599.719 261.161C605.568 253.601 627.283 286.223 627.283 286.223C627.283 286.223 640.644 301.258 638.981 337.187C638.801 340.967 638.726 344.86 638.716 348.801C638.594 382.424 643.951 419.903 643.951 419.903Z" fill="#766D6D"/>
<path opacity="0.1" d="M596.336 338.028L597.168 356.408C597.168 356.408 552.888 358.912 543.704 349.727C534.519 340.541 568.744 376.745 576.304 378.965C583.4 381.054 601.723 382.897 611.332 383.086C614.078 383.174 616.79 382.463 619.138 381.038C621.487 379.614 623.371 377.538 624.561 375.062C625.682 372.627 626.044 369.91 625.601 367.266C623.928 356.408 625.601 333.01 625.601 333.01L596.336 338.028Z" fill="black"/>
<path d="M596.336 336.355L597.168 354.736C597.168 354.736 552.888 357.24 543.704 348.055C534.519 338.869 501.286 340.901 501.938 348.055C502.353 352.647 524.493 367.266 537.845 368.108C551.197 368.949 568.744 375.072 576.304 377.293C583.4 379.381 601.722 381.224 611.332 381.413C614.078 381.502 616.789 380.79 619.138 379.366C621.487 377.942 623.371 375.866 624.561 373.39C625.682 370.954 626.044 368.238 625.601 365.594C623.928 354.736 625.601 331.337 625.601 331.337L596.336 336.355Z" fill="#F8BDC5"/>
<path opacity="0.1" d="M606.362 282.887C606.362 282.887 587.151 285.391 589.656 313.798C592.16 342.205 595.505 344.709 595.505 344.709C595.505 344.709 623.909 342.205 627.245 341.364C630.581 340.523 628.917 309.621 628.917 309.621C628.917 309.621 628.076 282.055 606.362 282.887Z" fill="black"/>
<path d="M606.362 282.055C606.362 282.055 587.151 284.56 589.656 312.966C592.16 341.373 595.505 343.878 595.505 343.878C595.505 343.878 623.909 341.373 627.245 340.532C630.581 339.691 628.917 308.79 628.917 308.79C628.917 308.79 628.076 281.205 606.362 282.055Z" fill="#766D6D"/>
<path opacity="0.1" d="M599.256 245.71C597.943 239.095 600.636 237.054 601.344 228.587L557.878 253.648C557.878 253.648 562.857 259.073 568.517 266.037C571.047 266.677 573.647 266.995 576.256 266.982C587.643 267.03 593.87 254.801 599.256 245.71Z" fill="black"/>
<path d="M575.444 266.179C592.514 266.179 606.352 252.34 606.352 235.268C606.352 218.196 592.514 204.357 575.444 204.357C558.373 204.357 544.535 218.196 544.535 235.268C544.535 252.34 558.373 266.179 575.444 266.179Z" fill="#F8BDC5"/>
<path opacity="0.1" d="M583.24 225.884C578.515 228.889 578.449 235.684 581.491 240.39C584.534 245.096 589.779 248.205 594.824 251.135C596.289 251.985 597.905 252.864 599.549 252.675C600.813 252.429 601.984 251.837 602.932 250.965C606.463 248.209 609.833 245.253 613.024 242.11C617.616 237.593 622.029 232.027 621.311 225.724C620.498 218.57 613.43 213.183 610.576 206.408C608.176 200.738 608.895 194.378 606.797 188.585C604.699 182.792 597.347 177.434 591.848 180.467C589.816 181.582 588.588 183.576 586.887 185.079C582.673 188.802 575.879 189.171 570.115 187.47C564.35 185.769 562.64 178.823 554.599 178.804C558.596 180.212 561.298 184.38 560.684 188.179C557.462 190.002 553.229 188.963 549.345 188.897C545.461 188.831 540.841 191.004 541.511 194.501C542.097 197.336 546.189 199.443 545.584 202.278C538.486 206.018 530.748 208.39 522.773 209.271C521.328 209.432 531.457 217.852 532.61 218.409C536.834 220.432 541.908 221.915 546.378 223.465C558.52 227.651 570.956 229.145 583.24 225.884Z" fill="black"/>
<path d="M583.24 225.043C578.515 228.049 578.449 234.843 581.491 239.549C584.534 244.255 589.779 247.364 594.824 250.294C596.289 251.144 597.905 252.023 599.549 251.834C600.813 251.588 601.984 250.996 602.932 250.124C606.463 247.368 609.833 244.412 613.024 241.269C617.616 236.752 622.029 231.186 621.311 224.883C620.498 217.729 613.43 212.343 610.576 205.567C608.176 199.897 608.895 193.537 606.797 187.744C604.699 181.951 597.347 176.593 591.848 179.627C589.816 180.742 588.588 182.736 586.887 184.238C582.673 187.962 575.879 188.33 570.115 186.629C564.35 184.928 562.64 177.982 554.599 177.963C558.596 179.371 561.298 183.539 560.684 187.338C557.462 189.162 553.229 188.122 549.345 188.056C545.461 187.99 540.841 190.163 541.511 193.66C542.097 196.495 546.189 198.602 545.584 201.437C538.486 205.177 530.748 207.549 522.773 208.43C521.328 208.591 531.457 217.011 532.61 217.569C536.834 219.591 541.908 221.074 546.378 222.624C558.52 226.82 570.956 228.285 583.24 225.043Z" fill="#916168"/>
<path opacity="0.1" d="M620.045 528.692C621.386 531.786 621.854 535.188 621.396 538.529C618.892 558.582 582.134 571.945 572.108 574.44C566.826 575.763 561.072 572.672 558.662 568.959C560.212 573.324 566.883 577.624 572.949 576.112C582.975 573.608 619.733 560.236 622.237 540.202C622.784 536.229 622.014 532.186 620.045 528.692Z" fill="white"/>
<path d="M354.566 551.476C353.82 549.794 349.946 546.515 331.264 545.806C318.47 545.324 314.114 538.567 312.933 531.971C317.138 531.423 320.426 530.667 321.503 529.618C321.503 529.618 321.447 529.316 321.352 528.777L321.503 528.664C320.686 523.906 320.26 519.089 320.228 514.262C320.203 510.131 320.64 506.01 321.532 501.977C322.052 499.31 322.271 496.594 322.184 493.878C322.288 477.813 316.646 449.576 316.646 449.576L315.871 426.112C315.794 423.184 314.929 420.331 313.367 417.854C311.806 415.376 309.606 413.365 306.999 412.031C305.143 411.071 303.088 410.559 300.998 410.538C300.998 410.538 271.384 405.87 244.728 403.328C242.838 401.806 236.176 397.705 220.906 400.058L212.118 374.335C212.047 374.024 211.997 373.708 211.967 373.39C212.279 370.12 214.461 365.197 224.638 364.885L226.764 366.775C226.764 366.775 227.142 366.028 227.776 364.885C240.4 364.743 309.172 364.044 312.715 364.885C316.618 365.83 350.806 358.213 351.788 357.268C365.074 344.312 312.715 350.597 312.715 350.597C307.566 351.438 290.925 350.436 273.879 349.047C282.317 336.393 290.254 293.443 290.254 293.443C290.254 293.443 320.492 278.2 311.742 269.629C302.992 261.057 276.581 288.68 276.581 288.68C276.581 288.68 265.837 320.12 260.952 329.646C259.062 333.426 256.615 334.201 254.432 333.766C255.424 332.972 256.067 332.5 256.067 332.5C256.067 332.5 234.579 315.348 232.623 308.686C232.259 307.594 231.777 306.545 231.187 305.558C230.157 299.519 228.352 293.575 223.949 289.615C223.209 288.821 222.392 288.103 221.511 287.47C220.32 286.62 218.969 285.883 217.844 284.957C218.477 282.046 219.214 279.022 219.98 276.092C235.93 274.202 248.328 260.972 248.328 244.907C248.325 242.485 248.037 240.071 247.468 237.716C249.852 237.873 252.236 237.41 254.388 236.374C256.541 235.337 258.388 233.762 259.752 231.8C262.974 226.999 262.87 220.46 260.168 215.395C259.051 213.338 257.587 211.49 255.84 209.933C253.056 207.128 249.66 205.006 245.918 203.733C242.677 202.609 239.096 201.938 236.526 199.736C235.377 198.234 234.332 196.655 233.398 195.011C232.319 193.397 231.05 191.918 229.618 190.607C224.894 185.741 218.222 182.745 211.428 181.422C203.151 179.806 194.599 180.382 186.18 180.959C183.033 181.176 179.338 181.734 177.921 184.474C176.853 186.534 177.552 189.001 177.411 191.297C176.967 198.602 168.613 202.637 161.347 204.404C154.08 206.172 145.415 207.702 141.91 214.11C138.725 219.893 140.965 226.905 141.985 233.397C143.685 244.796 141.154 256.424 134.87 266.085C131.676 270.97 127.556 275.318 125.033 280.562C122.238 286.409 121.589 293.053 123.2 299.33C123.673 301.163 124.353 303.034 124.013 304.906C123.626 306.448 122.867 307.873 121.802 309.054C117.456 314.42 112.049 318.829 105.918 322.006C99.7879 325.182 93.067 327.056 86.1777 327.51C86.7562 329.429 87.8868 331.134 89.4282 332.415C91.3866 334.351 93.6703 335.928 96.175 337.074C102.774 340.383 109.712 342.965 116.869 344.775C121.688 345.994 126.725 346.864 131.629 346.032C136.533 345.201 141.314 342.394 143.327 337.952C144.499 335.382 144.669 332.471 145.708 329.854C147.778 324.618 152.909 321.226 156.377 316.737C155.209 328.304 154.657 339.925 154.723 351.551C154.723 355.189 154.723 358.468 154.723 361.511C154.723 374.637 153.778 383.691 145.642 400.086C144.673 401.81 144.248 403.787 144.423 405.756C144.246 406.821 144.349 407.913 144.722 408.925C145.095 409.937 145.725 410.835 146.549 411.53C145.982 414.801 145.707 418.115 145.727 421.434C145.614 433.379 149.649 449.416 171.042 453.479L209.132 451.589C209.132 451.589 262.851 441.109 277.498 448.754C278.707 449.011 279.791 449.675 280.57 450.634C281.349 451.594 281.775 452.791 281.778 454.027C281.733 454.822 281.61 455.61 281.41 456.38C281.002 458.856 280.847 461.367 280.947 463.874C280.881 479.939 284.339 516.397 284.339 516.397V531.858C281.901 535.524 278.896 540.949 279.284 544.946C279.284 545.031 279.284 545.126 279.284 545.211C279.284 545.296 279.284 545.447 279.34 545.56C279.397 545.674 279.34 545.768 279.407 545.872C279.473 545.976 279.463 546.071 279.492 546.175C279.52 546.279 279.567 546.401 279.614 546.505C279.662 546.609 279.681 546.675 279.718 546.76C279.756 546.846 279.841 547.006 279.907 547.12L280.021 547.318C280.134 547.5 280.261 547.674 280.399 547.838C285.284 553.508 309.692 564.479 317.516 564.035C325.822 563.563 353.65 564.98 354.633 552.601C354.757 552.231 354.733 551.828 354.566 551.476Z" fill="url(#paint1_linear)"/>
<path d="M285.133 527.548C285.133 527.548 273.794 541.724 278.518 547.394C283.243 553.064 306.866 563.903 314.426 563.459C322.458 562.986 349.388 564.404 350.333 552.119C350.333 552.119 352.223 546.449 327.655 545.504C303.086 544.559 310.646 519.043 310.646 519.043L285.133 527.548Z" fill="#5C5C5E"/>
<path opacity="0.1" d="M150.008 408.478C150.008 408.478 138.669 447.223 172.686 453.838L209.538 451.948C209.538 451.948 261.51 441.553 275.684 449.113C275.684 449.113 281.353 450.058 279.463 457.618C277.573 465.178 282.298 516.208 282.298 516.208V533.218C282.298 533.218 314.426 533.218 318.205 529.438C318.205 529.438 315.371 514.318 318.205 502.033C321.04 489.748 313.481 451.003 313.481 451.003L312.734 427.68C312.679 424.799 311.857 421.984 310.352 419.525C308.847 417.067 306.714 415.054 304.173 413.694C302.385 412.746 300.395 412.241 298.371 412.22C298.371 412.22 234.116 401.825 211.438 403.715C188.759 405.605 150.008 408.478 150.008 408.478Z" fill="black"/>
<path d="M150.008 407.533C150.008 407.533 138.669 446.278 172.686 452.893L209.538 451.003C209.538 451.003 261.51 440.608 275.684 448.168C275.684 448.168 281.353 449.113 279.463 456.673C277.573 464.233 282.298 515.264 282.298 515.264V532.274C282.298 532.274 314.426 532.274 318.205 528.494C318.205 528.494 315.371 513.374 318.205 501.088C321.04 488.803 313.481 450.058 313.481 450.058L312.734 426.736C312.679 423.854 311.857 421.039 310.352 418.58C308.847 416.122 306.714 414.109 304.173 412.749C302.385 411.801 300.395 411.296 298.371 411.275C298.371 411.275 234.116 400.88 211.438 402.77C188.759 404.66 150.008 407.533 150.008 407.533Z" fill="#766D6D"/>
<path d="M247.336 330.988C247.336 330.988 254.895 340.438 259.62 330.988C264.344 321.538 274.739 290.352 274.739 290.352C274.739 290.352 300.252 262.947 308.756 271.452C317.26 279.957 287.968 295.077 287.968 295.077C287.968 295.077 277.573 352.723 268.124 353.668C258.675 354.613 244.501 353.668 244.501 353.668L239.776 343.273L247.336 330.988Z" fill="#F8BDC5"/>
<path opacity="0.05" d="M247.336 330.988C247.336 330.988 254.895 340.438 259.62 330.988C264.344 321.538 274.739 290.352 274.739 290.352C274.739 290.352 300.252 262.947 308.756 271.452C317.26 279.957 287.968 295.077 287.968 295.077C287.968 295.077 277.573 352.723 268.124 353.668C258.675 354.613 244.501 353.668 244.501 353.668L239.776 343.273L247.336 330.988Z" fill="black"/>
<path d="M213.318 283.737C213.318 283.737 230.327 303.582 232.217 310.197C234.107 316.812 254.895 333.823 254.895 333.823C254.895 333.823 239.776 345.163 242.611 350.833C245.446 356.503 222.767 331.933 222.767 331.933L196.309 293.187L213.318 283.737Z" fill="#EB6475"/>
<path opacity="0.1" d="M213.318 283.737C213.318 283.737 230.327 303.582 232.217 310.197C234.107 316.812 254.895 333.823 254.895 333.823C254.895 333.823 239.776 345.163 242.611 350.833C245.446 356.503 222.767 331.933 222.767 331.933L196.309 293.187L213.318 283.737Z" fill="black"/>
<path d="M224.657 261.058C224.657 261.058 216.153 288.463 216.153 298.858C216.153 309.253 180.246 296.023 181.19 290.353C182.135 284.683 201.979 263.893 202.924 255.388C203.869 246.882 224.657 261.058 224.657 261.058Z" fill="#F8BDC5"/>
<path opacity="0.1" d="M196.309 279.957C196.309 279.957 163.237 271.452 158.512 319.647C153.787 367.843 162.292 373.513 148.118 402.808C133.944 432.103 244.501 406.588 244.501 406.588C244.501 406.588 238.831 399.973 220.878 402.808L212.373 377.293C212.373 377.293 209.538 365.953 225.602 365.953C241.666 365.953 234.107 332.877 234.107 332.877C234.107 332.877 225.602 304.527 220.878 301.692C216.153 298.857 207.648 281.847 196.309 279.957Z" fill="black"/>
<path d="M196.309 278.068C196.309 278.068 163.237 269.563 158.512 317.758C153.787 365.953 162.292 371.623 148.118 400.918C133.944 430.213 244.501 404.698 244.501 404.698C244.501 404.698 238.831 398.083 220.878 400.918L212.373 375.403C212.373 375.403 209.538 364.063 225.602 364.063C241.666 364.063 234.107 330.988 234.107 330.988C234.107 330.988 225.602 302.638 220.878 299.803C216.153 296.968 207.648 279.958 196.309 278.068Z" fill="#EB6475"/>
<path d="M229.382 346.108C229.382 346.108 298.362 353.668 309.701 351.778C309.701 351.778 360.349 345.541 347.498 358.393C346.553 359.338 313.481 366.898 309.701 365.953C305.921 365.008 225.602 365.953 225.602 365.953L224.657 356.503L229.382 346.108Z" fill="#F8BDC5"/>
<path opacity="0.1" d="M176.466 322.482L226.547 367.843C226.547 367.843 235.996 348.943 238.831 348.943C241.666 348.943 204.814 293.187 204.814 293.187C204.814 293.187 195.364 281.847 189.695 287.517C184.025 293.187 167.016 289.407 176.466 322.482Z" fill="black"/>
<path d="M175.521 320.593L225.602 365.953C225.602 365.953 235.051 347.053 237.886 347.053C240.721 347.053 203.869 291.298 203.869 291.298C203.869 291.298 194.419 279.958 188.75 285.628C183.08 291.298 166.072 287.518 175.521 320.593Z" fill="#EB6475"/>
<path d="M216.153 278.068C233.375 278.068 247.336 264.105 247.336 246.882C247.336 229.659 233.375 215.697 216.153 215.697C198.931 215.697 184.97 229.659 184.97 246.882C184.97 264.105 198.931 278.068 216.153 278.068Z" fill="#F8BDC5"/>
<path opacity="0.1" d="M243.461 239.048C248.753 241.137 255.235 238.632 258.353 233.879C261.472 229.126 261.377 222.652 258.75 217.606C256.123 212.56 251.266 208.893 245.909 206.984C242.658 205.831 239.039 205.17 236.544 202.788C234.966 201.286 234.031 199.254 232.85 197.421C228.437 190.541 220.566 186.477 212.562 184.88C204.559 183.283 196.281 183.85 188.136 184.417C185.093 184.635 181.521 185.183 180.142 187.904C179.112 189.946 179.782 192.393 179.65 194.671C179.225 201.919 171.146 205.935 164.087 207.674C157.029 209.413 148.845 211.048 145.406 217.436C142.325 223.172 144.527 230.127 145.482 236.572C147.114 247.83 144.674 259.3 138.602 268.92C135.513 273.768 131.534 278.077 129.087 283.284C126.38 289.102 125.753 295.674 127.31 301.9C127.774 303.724 128.426 305.576 128.104 307.429C127.734 308.951 127.001 310.361 125.969 311.539C121.827 316.839 116.621 321.21 110.684 324.371C104.748 327.532 98.2152 329.413 91.5071 329.891C92.5843 333.945 96.5058 336.506 100.238 338.396C106.607 341.672 113.319 344.233 120.252 346.032C124.91 347.242 129.786 348.102 134.53 347.279C139.273 346.457 143.894 343.669 145.869 339.266C147.003 336.714 147.173 333.832 148.175 331.224C150.433 325.374 156.452 321.84 159.684 316.463C162.774 311.322 163.974 310.717 164.758 304.783C165.542 298.848 167.272 292.441 172.147 288.954C177.25 285.297 184.432 285.996 190.101 288.803C195.771 291.609 199.276 290.513 204.011 294.633C212.315 301.848 221.61 307.837 231.612 312.418C230.667 304.178 229.146 294.983 222.456 290.078C220.566 288.67 218.175 287.593 217.173 285.438C215.576 282.008 218.307 277.822 217.069 274.24C215.832 270.658 211.126 269.335 209.038 266.085C207.261 263.325 207.743 259.574 209.406 256.739C211.069 253.904 213.696 251.806 216.313 249.821C218.638 248.063 220.994 246.347 223.382 244.671C225.539 243.302 227.476 241.613 229.127 239.662C230.072 238.368 230.695 235.533 232.009 234.616C235.316 232.329 240.4 237.848 243.461 239.048Z" fill="black"/>
<path d="M242.516 238.103C247.808 240.192 254.29 237.687 257.408 232.934C260.527 228.181 260.432 221.707 257.805 216.661C255.178 211.615 250.322 207.948 244.964 206.039C241.713 204.886 238.094 204.225 235.6 201.843C234.021 200.341 233.086 198.309 231.905 196.476C227.492 189.596 219.621 185.533 211.617 183.936C203.614 182.339 195.336 182.906 187.191 183.473C184.148 183.69 180.576 184.238 179.197 186.96C178.167 189.001 178.838 191.448 178.705 193.726C178.28 200.974 170.201 204.99 163.142 206.729C156.084 208.468 147.901 210.103 144.461 216.491C141.38 222.227 143.582 229.182 144.537 235.627C146.169 246.885 143.729 258.356 137.657 267.975C134.568 272.823 130.589 277.132 128.142 282.339C125.435 288.158 124.808 294.73 126.366 300.955C126.829 302.779 127.481 304.632 127.159 306.484C126.789 308.006 126.056 309.416 125.024 310.595C120.882 315.894 115.676 320.265 109.74 323.426C103.803 326.588 97.2703 328.468 90.5621 328.946C91.6394 333.001 95.5608 335.561 99.2933 337.452C105.662 340.728 112.374 343.288 119.307 345.087C123.965 346.297 128.841 347.157 133.585 346.335C138.328 345.512 142.949 342.725 144.924 338.321C146.058 335.769 146.228 332.887 147.23 330.279C149.488 324.429 155.507 320.895 158.739 315.518C161.829 310.377 163.029 309.772 163.813 303.838C164.597 297.903 166.327 291.496 171.203 288.009C176.305 284.352 183.487 285.051 189.156 287.858C194.826 290.664 198.331 289.568 203.066 293.688C211.37 300.903 220.665 306.892 230.667 311.473C229.722 303.233 228.201 294.038 221.511 289.133C219.621 287.725 217.23 286.648 216.228 284.493C214.632 281.063 217.362 276.877 216.124 273.295C214.887 269.714 210.181 268.391 208.093 265.14C206.316 262.38 206.798 258.629 208.461 255.794C210.124 252.959 212.751 250.861 215.369 248.876C217.693 247.119 220.049 245.402 222.437 243.726C224.594 242.357 226.531 240.668 228.182 238.718C229.127 237.423 229.75 234.588 231.064 233.671C234.371 231.384 239.455 236.903 242.516 238.103Z" fill="#916168"/>
<g opacity="0.1">
<path opacity="0.1" d="M309.569 526.49C309.64 523.975 310.001 521.476 310.646 519.043L310.174 519.204C309.702 521.603 309.499 524.047 309.569 526.49Z" fill="white"/>
<path opacity="0.1" d="M314.426 561.569C306.866 562.013 283.243 551.174 278.518 545.504C277.898 544.736 277.517 543.803 277.422 542.82C277.284 543.617 277.309 544.433 277.498 545.22C277.686 546.006 278.034 546.746 278.518 547.394C283.243 553.064 306.866 563.903 314.426 563.459C322.458 562.986 349.388 564.404 350.333 552.119C350.404 551.779 350.357 551.426 350.201 551.117C348.037 562.438 322.259 561.106 314.426 561.569Z" fill="white"/>
</g>
<path d="M352.695 279.485H351.75V318.23H352.695V279.485Z" fill="#FFD77C" stroke="#F98D1C" stroke-width="0.25" stroke-miterlimit="10"/>
<path d="M353.64 279.485H352.695V318.23H353.64V279.485Z" fill="#FFD77C" stroke="#F98D1C" stroke-width="0.25" stroke-miterlimit="10"/>
<path d="M354.585 279.485H353.64V318.23H354.585V279.485Z" fill="#FFD77C" stroke="#F98D1C" stroke-width="0.25" stroke-miterlimit="10"/>
<path d="M355.53 279.485H354.585V318.23H355.53V279.485Z" fill="#FFD77C" stroke="#F98D1C" stroke-width="0.25" stroke-miterlimit="10"/>
<path d="M356.475 279.485H355.53V318.23H356.475V279.485Z" fill="#FFD77C" stroke="#F98D1C" stroke-width="0.25" stroke-miterlimit="10"/>
<path d="M357.42 279.485H356.475V318.23H357.42V279.485Z" fill="#FFD77C" stroke="#F98D1C" stroke-width="0.25" stroke-miterlimit="10"/>
<path d="M358.365 279.485H357.42V318.23H358.365V279.485Z" fill="#FFD77C" stroke="#F98D1C" stroke-width="0.25" stroke-miterlimit="10"/>
</g>
<defs>
<linearGradient id="paint0_linear" x1="555.515" y1="579.051" x2="555.515" y2="175.535" gradientUnits="userSpaceOnUse">
<stop stop-color="#808080" stop-opacity="0.25"/>
<stop offset="0.54" stop-color="#808080" stop-opacity="0.12"/>
<stop offset="1" stop-color="#808080" stop-opacity="0.1"/>
</linearGradient>
<linearGradient id="paint1_linear" x1="102510" y1="275732" x2="102510" y2="119958" gradientUnits="userSpaceOnUse">
<stop stop-color="#808080" stop-opacity="0.25"/>
<stop offset="0.54" stop-color="#808080" stop-opacity="0.12"/>
<stop offset="1" stop-color="#808080" stop-opacity="0.1"/>
</linearGradient>
<clipPath id="clip0">
<rect width="854" height="621" fill="white"/>
</clipPath>
</defs>
</svg>
