<svg width="1010" height="790" viewBox="0 0 1010 790" fill="none" xmlns="http://www.w3.org/2000/svg">
<g clip-path="url(#clip0)">
<path opacity="0.1" d="M354.13 774.63C451.387 774.63 530.23 759.694 530.23 741.27C530.23 722.846 451.387 707.91 354.13 707.91C256.873 707.91 178.03 722.846 178.03 741.27C178.03 759.694 256.873 774.63 354.13 774.63Z" fill="#AB3C2A"/>
<path opacity="0.1" d="M586.55 111.4C521.83 109.16 460.19 88.26 401.33 65.4C342.47 42.54 284.17 17.22 221 5.11005C180.37 -2.67995 133.9 -3.78995 101.17 17.97C69.66 38.97 59.48 75.12 54.01 108.69C49.89 133.95 47.47 160.54 58.75 184.19C66.59 200.61 80.49 214.41 90.11 230.14C123.58 284.86 99.92 352.34 63.66 405.77C46.66 430.83 26.91 454.77 13.78 481.42C0.649997 508.07 -5.42 538.71 6.07 565.97C17.45 592.97 44.58 613.21 73.97 627.46C133.66 656.41 203.97 664.69 272.58 669.39C424.41 679.77 577.04 675.28 729.27 670.77C785.61 669.11 842.19 667.42 897.61 658.71C928.39 653.87 960.16 646.19 982.51 627.65C1010.87 604.12 1017.9 564.28 998.89 534.78C967.01 485.28 878.89 472.99 856.58 419.88C844.32 390.64 856.91 358.08 874.74 330.97C912.98 272.8 977.07 221.77 980.44 155.29C982.76 109.63 951.95 63.9001 904.31 42.2901C854.38 19.6401 785.13 22.4901 748.31 59.9801C710.36 98.5401 643.7 113.39 586.55 111.4Z" fill="#AB3C2A"/>
<path d="M535.12 361.74L504.49 341.09L519.94 318.09L439.04 311.64L409.97 334.12L373.58 313.72L343.23 317.37L342.87 309.37C342.494 301.03 341.656 292.717 340.36 284.47C340.49 281.97 340.58 279.1 340.57 275.98C340.57 262.83 338.79 245.4 330.97 233.78L332.77 217.6L318.17 200.35C320.515 195.68 323.188 191.182 326.17 186.89C326.67 186.17 327.17 185.47 327.71 184.79C346.66 183.42 361.61 167.84 361.61 148.79C361.61 147.91 361.61 147.03 361.51 146.16C361.51 145.81 361.44 145.45 361.4 145.1C363.25 146.1 365.12 147.1 366.99 148.1C367.34 148.6 367.74 149.1 368.18 149.69L368.27 149.8L368.83 150.49L369.01 150.7C369.21 150.94 369.42 151.17 369.63 151.41L369.77 151.57C370.3 152.16 370.86 152.76 371.46 153.35C371.531 153.408 371.598 153.472 371.66 153.54L372.41 154.24L372.62 154.43C373.26 155 373.94 155.55 374.62 156.07L374.84 156.23L375.7 156.82L375.98 157C376.31 157.2 376.65 157.41 376.98 157.6L377.1 157.67C377.49 157.88 377.89 158.08 378.29 158.27L378.49 158.35C378.83 158.497 379.163 158.637 379.49 158.77L379.8 158.88C380.15 159 380.49 159.11 380.85 159.21L381.07 159.27C381.51 159.38 381.95 159.47 382.4 159.54H382.45C382.874 159.609 383.301 159.652 383.73 159.67H384.02C384.403 159.69 384.787 159.69 385.17 159.67H385.42C385.9 159.642 386.377 159.586 386.85 159.5C389.087 159.206 391.236 158.435 393.15 157.24C393.637 156.914 394.07 156.512 394.43 156.05C396.43 153.43 394.23 150.56 394.23 150.56C393.45 148.7 388.39 147.39 388.39 147.39C388.39 147.39 372.39 140.71 372.39 135.39C372.39 130.07 368.39 102.47 327.1 96.16C327.1 96.16 300.24 94.65 292.69 109.03L292.53 110.71C290.31 112.1 288.47 114.89 286.28 115.71C285.334 115.913 284.421 116.25 283.57 116.71V116.52C283.317 116.741 283.11 117.009 282.96 117.31C282.49 118.246 282.208 119.265 282.13 120.31C281.905 121.586 281.462 122.814 280.82 123.94C280.641 124.26 280.441 124.567 280.22 124.86V124.86L280.05 125.13C281.211 125.22 282.377 125.032 283.45 124.58C283.281 125.949 282.945 127.292 282.45 128.58C283.086 128.601 283.714 128.438 284.26 128.112C284.806 127.786 285.247 127.309 285.53 126.74V126.66L285.66 126.48C285.912 126.017 286.119 125.532 286.28 125.03L286.17 125.15C286.37 124.5 286.55 123.84 286.77 123.2C286.871 122.839 287.037 122.501 287.26 122.2C287.527 121.931 287.853 121.728 288.213 121.608C288.572 121.489 288.955 121.455 289.33 121.51L288.92 130.18H289.1C288.859 130.811 288.565 131.42 288.22 132C286.8 134.3 284.22 135.87 283.27 138.39C282.86 139.605 282.704 140.892 282.81 142.17C282.81 142.92 282.9 143.68 282.96 144.43V144.37C283.1 146.37 283.14 148.27 282.06 149.88C281.32 150.98 280.13 151.81 279.72 153.06C279.607 153.408 279.556 153.774 279.57 154.14C279.65 155.236 279.879 156.316 280.25 157.35C280.254 157.33 280.254 157.31 280.25 157.29C280.499 158.051 280.558 158.861 280.42 159.65C279.97 161.65 277.54 163.32 277.66 165.23C277.653 165.481 277.69 165.732 277.77 165.97C278.238 166.903 279.047 167.619 280.03 167.97C281.572 168.847 283.343 169.237 285.11 169.09C285.772 168.97 286.413 168.751 287.01 168.44C286.31 170.05 285.59 171.64 284.86 173.15C284.75 173.39 284.63 173.63 284.51 173.87C284.51 173.87 278.33 169.74 274.82 178.16C273.795 179.91 273.062 181.815 272.65 183.8C272.474 184.594 272.227 185.371 271.91 186.12C270.352 188.758 268.02 190.853 265.23 192.12C258.07 195.4 229.15 231.47 228.64 240.81C228.39 244.456 227.773 248.067 226.8 251.59C224.523 259.885 223.939 268.554 225.08 277.08C225.437 279.835 226.03 282.555 226.85 285.21C229.92 294.54 231.97 311.95 231.97 311.95L235.29 342.17C235.167 346.341 235.347 350.515 235.83 354.66C232.44 358.53 218.83 374.66 224.03 379.05C228.03 382.51 235.03 381.94 238.96 381.23C235.65 389.42 230.44 403.66 229.75 413.44C228.75 427.91 231.46 447.08 235.75 454.44C240.04 461.8 254.34 480.68 254.34 480.68C254.34 480.68 253.67 506.58 258.78 515.99C263.89 525.4 265.95 544.92 265.95 544.92C265.95 544.92 270.72 561.4 268.33 567.46C265.94 573.52 272.76 578.56 265.6 582.59C258.44 586.62 249.28 677.45 249.28 677.45C249.28 677.45 245.59 736.98 249.28 740.01C249.477 740.153 249.689 740.277 249.91 740.38V760.38C249.91 760.38 247.35 764.58 257.76 765.43C264.89 766 285.1 767.29 297.09 768.04L306.38 768.62C306.38 768.62 328.38 773 338.1 768.62C347.82 764.24 365.05 764.34 362.49 752.77C362.151 751.195 361.696 749.648 361.13 748.14C358.32 740.96 353.55 740.14 344.76 738.14C344.25 738.03 343.76 737.93 343.31 737.85C334.05 736.24 331.01 740.55 325.82 734.94C321.31 730.09 306.95 724.66 302.06 722.94C302.18 722.58 302.33 722.23 302.45 721.86C301.065 721.625 299.777 720.997 298.74 720.05L311.99 720.89L319.88 721.38C319.88 721.38 338.58 725.11 346.88 721.38C355.18 717.65 369.78 717.75 367.6 707.92C367.313 706.58 366.929 705.264 366.45 703.98C364.06 697.88 360 697.21 352.53 695.52C352.1 695.43 351.7 695.34 351.3 695.27C343.43 693.9 340.85 697.56 336.44 692.8C332.66 688.74 320.73 684.19 316.44 682.64C316.44 680.42 313.44 677.26 311.55 674.09C309.33 670.39 313.43 657.44 313.43 657.44L315.77 603.71C316.661 603.313 317.604 603.044 318.57 602.91C318.57 602.91 329.15 592.81 326.76 582.05C326.273 578.796 326.019 575.511 326 572.22C329.48 568.99 334.27 564.22 335.63 561.28C337.85 556.49 335.63 533.28 335.63 533.28V444.53L353.33 446.32L369.39 447.97L374.28 448.47L390.34 450.09L427.25 453.82L460.51 447.52L474.9 444.8L504.49 439.2V366.8L535.12 361.74ZM291.51 121.83L289.45 121.61C290.13 121.64 290.85 121.77 291.51 121.83Z" fill="url(#paint0_linear)"/>
<path d="M463.33 408.75C453.33 423.06 417.38 415.48 417.38 415.48L389.52 389.41L385.77 385.88L392.06 372.52C392.06 372.52 394.06 373.07 397.49 374.05C415.5 379.28 471.77 396.72 463.33 408.75Z" fill="#EFB7B9"/>
<path opacity="0.1" d="M397.47 374.05C396.24 378.33 392.87 384.74 389.52 389.41L385.77 385.88L392.06 372.52C392.06 372.52 394.08 373.07 397.47 374.05Z" fill="black"/>
<path d="M301.92 223.39C301.92 223.39 276.24 234.78 277.5 262.75C278.407 280.769 280.37 298.72 283.38 316.51C283.38 316.51 278.13 358.6 299.99 369.45C321.85 380.3 342.08 389.22 342.08 389.22C342.08 389.22 376.28 392.9 380.53 394.42C384.78 395.94 398.06 372.7 395.61 369.08C393.16 365.46 361.77 357.87 357.77 351.83C353.77 345.79 344.52 342.06 344.52 342.06C344.52 342.06 334.97 336.28 334.32 331.06C333.67 325.84 336.19 321.95 336.83 319.66C337.47 317.37 339.09 295.26 339.09 295.26C339.09 295.26 349.87 216.56 301.92 223.39Z" fill="#DCE6F2"/>
<path opacity="0.1" d="M318.87 315.36C318.87 315.36 283.64 321.26 287.05 333.59C287.05 333.59 299.84 320.28 318.87 315.36Z" fill="black"/>
<path opacity="0.1" d="M319.14 320.35C319.14 320.35 299.77 336.16 303.56 336.97C307.35 337.78 319.14 320.35 319.14 320.35Z" fill="black"/>
<path opacity="0.1" d="M328.45 325.86C328.45 325.86 323.26 336.49 326.45 335.77C329.64 335.05 328.45 325.86 328.45 325.86Z" fill="black"/>
<path opacity="0.1" d="M398.77 375.18L396.63 374.57C397.24 372.57 397.41 370.95 396.91 370.2C394.46 366.58 363.09 359 359.1 352.95C355.11 346.9 345.85 343.18 345.85 343.18C345.85 343.18 336.3 337.4 335.65 332.18C335 326.96 337.52 323.07 338.16 320.78C338.8 318.49 340.42 296.37 340.42 296.37C340.42 296.37 351.17 217.68 303.22 224.51C303.22 224.51 277.54 235.91 278.79 263.88C279.697 281.9 281.664 299.851 284.68 317.64C284.68 317.64 279.43 359.73 301.29 370.58C323.15 381.43 343.38 390.35 343.38 390.35C343.38 390.35 377.57 394.02 381.83 395.55C383.44 396.13 386.35 393.14 389.2 389.03L390.82 390.54L418.68 416.6C418.68 416.6 454.63 424.19 464.63 409.88C473.08 397.84 416.82 380.4 398.77 375.18Z" fill="black"/>
<path d="M287.14 118.41C286.161 118.601 285.223 118.964 284.37 119.48C283.37 120.31 283.37 121.73 283.12 122.97C282.826 124.695 282.142 126.33 281.12 127.75C282.258 127.833 283.399 127.645 284.45 127.2C284.279 128.569 283.943 129.912 283.45 131.2C284.073 131.216 284.688 131.052 285.22 130.727C285.752 130.402 286.179 129.931 286.45 129.37C286.979 128.243 287.398 127.068 287.7 125.86C287.794 125.499 287.957 125.159 288.18 124.86C289.1 123.77 290.81 124.26 292.23 124.4C293.412 124.5 294.599 124.281 295.668 123.768C296.737 123.255 297.649 122.465 298.31 121.48C299.82 119.19 299.91 113.33 296.31 112.71C292.55 112.09 290.21 117.27 287.14 118.41Z" fill="#965D7B"/>
<g opacity="0.1">
<path opacity="0.1" d="M284.27 120.71C284.36 120.22 284.42 119.71 284.53 119.22C283.58 120.05 283.53 121.46 283.28 122.71C283.154 123.431 282.956 124.138 282.69 124.82C283.477 123.565 284.014 122.169 284.27 120.71V120.71Z" fill="black"/>
<path opacity="0.1" d="M284.59 128.97C285.088 127.683 285.424 126.34 285.59 124.97C284.589 125.391 283.505 125.579 282.42 125.52C282.104 126.223 281.719 126.893 281.27 127.52C282.404 127.608 283.542 127.423 284.59 126.98C284.424 128.35 284.088 129.693 283.59 130.98C284.213 130.995 284.827 130.83 285.359 130.505C285.891 130.181 286.318 129.71 286.59 129.15C286.839 128.695 287.04 128.216 287.19 127.72C286.897 128.13 286.505 128.46 286.05 128.678C285.596 128.896 285.094 128.997 284.59 128.97V128.97Z" fill="black"/>
<path opacity="0.1" d="M293.37 122.17C291.95 122.03 290.23 121.54 289.31 122.63C289.091 122.932 288.928 123.27 288.83 123.63C288.74 123.89 288.66 124.16 288.59 124.43C289.54 123.68 291.08 124.08 292.37 124.21C293.551 124.306 294.737 124.087 295.806 123.574C296.874 123.061 297.787 122.272 298.45 121.29C298.753 120.804 298.979 120.275 299.12 119.72C298.435 120.568 297.553 121.234 296.55 121.661C295.548 122.089 294.456 122.263 293.37 122.17Z" fill="black"/>
</g>
<path d="M317.24 201L332.49 219.34L330.5 237.85L312.07 209L317.24 201Z" fill="#DCE6F2"/>
<path opacity="0.1" d="M332.48 219.34L330.61 236.75L330.49 237.85L313.86 211.81L312.07 209L312.59 208.19L317.23 201L318.26 202.24L332.48 219.34Z" fill="black"/>
<path d="M340.4 176.17C335.24 177.65 330.31 182.73 326.02 188.9C323.12 193.157 320.527 197.615 318.26 202.24C316.85 205.06 315.61 207.77 314.58 210.13L313.86 211.81C312.12 215.92 311.15 218.67 311.15 218.67C311.15 218.67 271.65 188.97 277.9 186.97C280 186.3 282.76 181.8 285.49 176.13L285.83 175.41C287.56 171.77 289.26 167.71 290.77 163.89C293.86 156.04 296.15 149.22 296.15 149.22C296.15 149.22 356.15 171.67 340.4 176.17Z" fill="#EFB7B9"/>
<path d="M364.03 147.55C364.03 147.55 373.15 164.05 385.4 161.8C397.65 159.55 392.61 152.94 392.61 152.94L364.03 147.55Z" fill="#444053"/>
<path d="M346.36 718.7C338.28 722.39 320.01 718.7 320.01 718.7L312.31 718.22C302.31 717.58 285.57 716.5 279.65 716.02C271.01 715.31 273.13 711.77 273.13 711.77V690.38L315.05 679.76C315.05 679.76 331.62 685.43 336.16 690.38C340.47 695.1 342.99 691.47 350.68 692.83C351.06 692.9 351.46 692.98 351.88 693.08C359.18 694.75 363.14 695.41 365.48 701.46C365.95 702.731 366.328 704.034 366.61 705.36C368.77 715.1 354.43 715.03 346.36 718.7Z" fill="#A36468"/>
<path opacity="0.1" d="M365.48 701.46C363.978 702.399 362.399 703.208 360.76 703.88C355.26 706.39 350.03 709.45 344.47 711.82C338.91 714.19 332.92 715.88 326.9 715.43C323.75 715.2 320.53 714.43 317.52 715.33C315.658 716.049 313.905 717.021 312.31 718.22C302.31 717.58 285.57 716.5 279.65 716.02C271.01 715.31 273.13 711.77 273.13 711.77V709.27C273.44 709.27 273.79 709.18 274.19 709.15C276.259 709.117 278.32 709.424 280.29 710.06C284.63 711.24 288.95 712.4 293.29 713.56C293.647 712.213 294.274 710.953 295.134 709.856C295.993 708.759 297.067 707.849 298.29 707.18C300.767 705.865 303.547 705.227 306.35 705.33C313.08 705.42 319.45 708.61 326.17 708.93C328.049 709.103 329.94 708.786 331.66 708.01C332.58 707.55 333.39 706.88 334.29 706.37C335.73 705.673 337.252 705.159 338.82 704.84C343.227 703.743 347.553 702.347 351.77 700.66C352.97 700.19 354.37 699.34 354.21 698.06C354 696.36 351.33 696.16 350.63 694.6C350.506 694.319 350.449 694.013 350.463 693.706C350.477 693.399 350.562 693.099 350.71 692.83C351.09 692.9 351.49 692.98 351.91 693.08C359.18 694.75 363.14 695.41 365.48 701.46Z" fill="black"/>
<path d="M337.82 765.5C328.32 769.84 306.82 765.5 306.82 765.5L297.77 764.97C286.05 764.22 266.31 762.97 259.34 762.38C249.17 761.54 251.67 757.38 251.67 757.38V732.17L301 719.67C301 719.67 320.5 726.34 325.84 732.17C330.91 737.72 333.84 733.45 342.93 735.05C343.38 735.13 343.85 735.23 344.34 735.34C352.93 737.34 357.59 738.09 360.34 745.21C360.897 746.705 361.341 748.239 361.67 749.8C364.15 761.26 347.32 761.17 337.82 765.5Z" fill="#A36468"/>
<path opacity="0.1" d="M360.32 745.21C358.553 746.314 356.697 747.267 354.77 748.06C348.3 751.01 342.14 754.61 335.6 757.4C329.06 760.19 322.01 762.17 314.92 761.65C311.22 761.38 307.43 760.45 303.92 761.53C301.721 762.387 299.651 763.544 297.77 764.97C286.05 764.22 266.31 762.97 259.34 762.38C249.17 761.54 251.67 757.38 251.67 757.38V754.44C252.084 754.372 252.501 754.326 252.92 754.3C255.356 754.256 257.783 754.617 260.1 755.37L275.39 759.49C275.816 757.901 276.561 756.415 277.581 755.124C278.601 753.833 279.873 752.763 281.32 751.98C284.235 750.426 287.51 749.674 290.81 749.8C298.73 749.91 306.22 753.66 314.13 754.04C316.333 754.241 318.55 753.873 320.57 752.97C321.66 752.42 322.57 751.63 323.67 751.04C325.361 750.212 327.153 749.607 329 749.24C334.157 747.939 339.222 746.295 344.16 744.32C345.57 743.76 347.22 742.76 347.03 741.26C346.78 739.26 343.64 739.02 342.81 737.18C342.67 736.848 342.606 736.489 342.624 736.129C342.641 735.769 342.739 735.417 342.91 735.1C343.36 735.18 343.83 735.28 344.32 735.39C352.91 737.31 357.57 738.09 360.32 745.21Z" fill="black"/>
<path d="M316.32 592.51L313.65 655.34C313.65 655.34 309.65 668.17 311.82 671.84C313.99 675.51 317.65 679.17 316.32 681.34C314.99 683.51 298.99 706.97 293.82 697.97C288.65 688.97 283.55 649.97 283.55 649.97L288.32 601.8L316.32 592.51Z" fill="#444053"/>
<path d="M327.9 435.97L335.32 445.89V532.17C335.32 532.17 337.49 555.17 335.32 559.92C333.15 564.67 322.15 574.17 322.15 574.17L312.9 526.67L314.9 476.42L327.9 435.97Z" fill="#444053"/>
<path opacity="0.1" d="M316.32 592.51L313.65 655.34C313.65 655.34 309.65 668.17 311.82 671.84C313.99 675.51 317.65 679.17 316.32 681.34C314.99 683.51 298.99 706.97 293.82 697.97C288.65 688.97 283.55 649.97 283.55 649.97L288.32 601.8L316.32 592.51Z" fill="black"/>
<path opacity="0.1" d="M327.9 435.97L335.32 445.89V532.17C335.32 532.17 337.49 555.17 335.32 559.92C333.15 564.67 322.15 574.17 322.15 574.17L312.9 526.67L314.9 476.42L327.9 435.97Z" fill="black"/>
<path d="M335.32 399.17V445.84L326.99 482.17C326.99 482.17 324.32 569.84 326.65 580.5C328.98 591.16 318.65 601.17 318.65 601.17C318.65 601.17 312.65 601.84 312.65 606.5C312.65 611.16 302.65 624.5 302.65 624.5L302.98 650.5C302.98 650.5 307.32 699.17 300.65 708.5C293.98 717.83 302.98 719.17 302.98 719.17C294.65 746.5 254.65 740.17 251.04 737.17C247.43 734.17 251.04 675.17 251.04 675.17C251.04 675.17 259.98 585.17 266.98 581.17C273.98 577.17 267.32 572.17 269.65 566.17C271.98 560.17 267.32 543.84 267.32 543.84C267.32 543.84 265.32 524.5 260.32 515.17C255.32 505.84 255.98 480.17 255.98 480.17C255.98 480.17 241.98 461.5 237.82 454.17C233.66 446.84 230.98 427.84 231.98 413.5C232.66 403.81 237.75 389.7 240.98 381.58C242.53 377.69 243.65 375.17 243.65 375.17L244.6 375.42L299.22 389.72L335.32 399.17Z" fill="#444053"/>
<path opacity="0.1" d="M340.4 176.17C335.24 177.65 330.31 182.73 326.02 188.9H324.9C318.612 188.904 312.434 187.249 306.991 184.1C301.547 180.952 297.032 176.423 293.9 170.97C292.591 168.71 291.538 166.312 290.76 163.82C293.85 155.97 296.14 149.15 296.14 149.15C296.14 149.15 356.15 171.67 340.4 176.17Z" fill="black"/>
<path d="M360.65 151.17C360.659 156.642 359.412 162.042 357.004 166.956C354.597 171.87 351.094 176.165 346.765 179.512C342.437 182.858 337.397 185.166 332.036 186.259C326.674 187.351 321.134 187.198 315.841 185.811C310.548 184.424 305.643 181.841 301.506 178.261C297.369 174.68 294.108 170.198 291.976 165.159C289.844 160.12 288.897 154.659 289.208 149.196C289.519 143.733 291.08 138.415 293.77 133.65C294.854 131.714 296.119 129.886 297.55 128.19C299.908 125.381 302.68 122.946 305.77 120.97C310.989 117.653 316.98 115.747 323.157 115.438C329.333 115.129 335.484 116.427 341.009 119.206C346.534 121.985 351.243 126.149 354.677 131.293C358.111 136.436 360.151 142.382 360.6 148.55C360.62 149.43 360.65 150.3 360.65 151.17Z" fill="#EFB7B9"/>
<path opacity="0.1" d="M330.61 236.75L330.49 237.85L313.86 211.85C312.12 215.96 311.15 218.71 311.15 218.71C311.15 218.71 271.65 188.97 277.9 186.97C280 186.3 282.76 181.8 285.49 176.13L285.83 175.41C288.73 184.05 305.58 201.32 312.59 208.24C313.4 209.04 314.07 209.7 314.59 210.18L315.66 211.18L316.22 211.74C318.77 214.37 329.53 225.97 330.61 236.75Z" fill="black"/>
<path d="M343.04 324.97L341.22 383.54L340.9 393.97C340.9 393.97 319.34 391.97 299.22 389.77C283.02 388 267.75 386.09 265.4 384.97C262.4 383.56 255.97 382.47 250.9 381.78C246.98 381.25 243.9 380.97 243.9 380.97C243.9 380.97 242.75 381.31 240.98 381.63C237.12 382.33 230.34 382.9 226.39 379.47C221.34 375.08 234.61 359.13 237.92 355.3L238.65 354.47L237.4 342.92L234.15 312.97C234.15 312.97 232.15 295.72 229.15 286.47C228.348 283.84 227.769 281.147 227.42 278.42C226.305 269.972 226.876 261.386 229.1 253.16C230.05 249.664 230.653 246.084 230.9 242.47C231.4 233.22 259.65 197.47 266.65 194.22C269.799 192.751 272.333 190.225 273.81 187.08C274.298 186.091 274.664 185.047 274.9 183.97C277.9 170.97 285.49 176.13 285.49 176.13C287.32 186.3 315.65 213.22 315.65 213.22L316.21 213.78C319.02 216.66 331.54 230.18 330.65 241.72C330.472 246.015 331.114 250.305 332.54 254.36C338.303 272.505 341.615 291.338 342.39 310.36L343.04 324.97Z" fill="#DCE6F2"/>
<path opacity="0.1" d="M302.9 255.42C302.9 255.42 295.9 272.42 290.65 275.17C285.4 277.92 305.4 280.97 302.9 255.42Z" fill="black"/>
<path opacity="0.1" d="M308.15 287.17C308.15 287.17 292.15 289.17 292.15 292.17C292.15 295.17 308.15 287.17 308.15 287.17Z" fill="black"/>
<path opacity="0.1" d="M324.9 306.67C324.9 306.67 301.65 356.17 295.15 357.67C288.65 359.17 324.9 306.67 324.9 306.67Z" fill="black"/>
<path opacity="0.1" d="M315.21 215.73L295.98 224.09L272.77 189.03C273.258 188.041 273.624 186.997 273.86 185.92C276.86 172.92 284.45 178.08 284.45 178.08C286.28 188.25 314.61 215.17 314.61 215.17L315.21 215.73Z" fill="black"/>
<path d="M316.21 213.73L296.98 222.09L273.77 187.03C274.258 186.041 274.624 184.997 274.86 183.92C277.86 170.92 285.45 176.08 285.45 176.08C287.28 186.25 315.61 213.17 315.61 213.17L316.21 213.73Z" fill="#DCE6F2"/>
<path opacity="0.1" d="M340.9 393.97C340.9 393.97 319.34 391.97 299.22 389.77L335.32 399.22V410.22C333.74 411.65 332.37 412.39 331.48 412.01C327.32 410.26 293.37 404.76 293.37 404.76C293.37 404.76 273.65 394.76 252.37 382.76C251.853 382.474 251.353 382.16 250.87 381.82C248.389 380.135 246.251 377.994 244.57 375.51C240.64 369.82 238.72 362.51 237.89 355.34C237.423 351.231 237.25 347.094 237.37 342.96C237.473 338.273 237.901 333.598 238.65 328.97C236.592 311.044 235.59 293.013 235.65 274.97C235.9 246.97 262.15 236.97 262.15 236.97C310.4 232.72 295.44 310.72 295.44 310.72C295.44 310.72 292.65 332.72 291.89 334.97C291.13 337.22 288.4 340.97 288.77 346.22C289.14 351.47 298.36 357.75 298.36 357.75C298.36 357.75 307.36 361.97 311.07 368.22C313.77 372.83 331.31 379.08 341.22 383.54L340.9 393.97Z" fill="black"/>
<path opacity="0.1" d="M357.06 128.97C357.078 130.617 356.737 132.248 356.06 133.75C355.547 134.975 354.953 136.165 354.28 137.31C353.228 139.417 351.734 141.272 349.9 142.75C347.59 144.4 344.67 144.86 341.9 145.53C339.13 146.2 336.25 147.27 334.67 149.63C333.814 151.147 333.241 152.808 332.98 154.53C332.715 156.251 332.028 157.879 330.98 159.27C330.434 159.949 329.679 160.427 328.831 160.63C327.984 160.833 327.094 160.748 326.3 160.39C325.464 159.826 324.829 159.01 324.49 158.06C323.35 155.49 323.06 152.64 322.6 149.87C322.14 147.1 321.49 144.25 319.79 142.02C318.09 139.79 315.08 138.32 312.41 139.19C311.516 139.534 310.701 140.055 310.014 140.722C309.327 141.389 308.781 142.187 308.41 143.07C307.671 144.837 307.164 146.693 306.9 148.59C305.66 155.377 304.197 162.123 302.51 168.83C302.459 169.105 302.346 169.365 302.18 169.59C301.914 169.855 301.555 170.006 301.18 170.01C298.94 170.31 296.79 168.74 294.53 168.91C294.297 168.925 294.066 168.962 293.84 169.02C290.186 162.67 288.573 155.349 289.218 148.051C289.864 140.753 292.738 133.83 297.45 128.22L297.63 128.17C299.133 127.636 300.5 126.776 301.63 125.65C303.074 124.205 304.41 122.658 305.63 121.02L306.43 120.02C308.729 117.251 311.347 114.764 314.23 112.61C315.017 111.965 315.92 111.476 316.89 111.17C317.72 111.008 318.571 110.981 319.41 111.09C322.863 111.505 326.345 111.635 329.82 111.48C332.241 111.099 334.682 110.852 337.13 110.74C343.46 110.92 348.86 115.39 352.86 120.29C355.01 122.8 356.93 125.69 357.06 128.97Z" fill="black"/>
<path d="M289.1 134.6C287.71 136.88 285.2 138.43 284.26 140.93C282.88 144.56 285.21 149.08 283.07 152.32C282.36 153.41 281.19 154.22 280.79 155.47C280.11 157.58 281.97 159.83 281.49 162C281.01 164.17 278.15 166 278.91 168.12C279.359 169.045 280.147 169.761 281.11 170.12C282.625 170.989 284.369 171.376 286.11 171.23C288.84 170.78 290.87 168.1 293.64 167.9C295.89 167.74 298.04 169.3 300.28 169.01C300.655 168.997 301.012 168.844 301.28 168.58C301.45 168.357 301.563 168.096 301.61 167.82C303.29 161.12 304.757 154.373 306.01 147.58C306.265 145.682 306.77 143.826 307.51 142.06C307.884 141.179 308.431 140.382 309.118 139.716C309.805 139.049 310.618 138.527 311.51 138.18C314.18 137.32 317.18 138.78 318.89 141.01C320.6 143.24 321.25 146.09 321.71 148.86C322.17 151.63 322.46 154.48 323.59 157.05C323.933 158.003 324.571 158.823 325.41 159.39C326.91 160.26 328.93 159.57 330.08 158.27C331.134 156.879 331.821 155.246 332.08 153.52C332.341 151.801 332.914 150.144 333.77 148.63C335.35 146.27 338.24 145.2 341 144.53C343.76 143.86 346.67 143.39 349 141.74C350.831 140.264 352.325 138.412 353.38 136.31C354.86 133.73 356.24 130.93 356.12 127.96C355.99 124.72 354.07 121.83 352.02 119.31C348.02 114.41 342.61 109.94 336.28 109.77C333.831 109.872 331.39 110.12 328.97 110.51C325.495 110.666 322.013 110.532 318.56 110.11C317.72 110.01 316.87 110.04 316.04 110.2C315.069 110.497 314.167 110.986 313.39 111.64C310.504 113.79 307.882 116.274 305.58 119.04C304.095 121.008 302.485 122.879 300.76 124.64C299.629 125.767 298.263 126.631 296.76 127.17C295.76 127.45 294.76 127.25 293.81 127.56C290.86 128.49 290.47 132.34 289.1 134.6Z" fill="#965D7B"/>
<path opacity="0.1" d="M385.4 161.79C377.4 163.26 370.77 156.79 367.1 152.07C365.973 150.637 364.947 149.126 364.03 147.55L391.49 152.73L392.6 152.94C392.6 152.94 397.65 159.55 385.4 161.79Z" fill="black"/>
<g opacity="0.1">
<path opacity="0.1" d="M281.49 159.14C281.602 157.832 281.403 156.516 280.91 155.3C280.91 155.4 280.82 155.5 280.79 155.6C280.36 156.94 280.94 158.33 281.31 159.72C281.389 159.533 281.45 159.339 281.49 159.14V159.14Z" fill="black"/>
<path opacity="0.1" d="M283.87 142.77C283.767 144.153 283.794 145.542 283.95 146.92C284.053 145.537 284.026 144.148 283.87 142.77Z" fill="black"/>
<path opacity="0.1" d="M353.32 133.42C352.268 135.527 350.774 137.382 348.94 138.86C346.63 140.51 343.72 140.97 340.94 141.64C338.16 142.31 335.29 143.38 333.71 145.74C332.855 147.258 332.283 148.918 332.02 150.64C331.76 152.365 331.072 153.998 330.02 155.39C328.87 156.69 326.85 157.39 325.35 156.51C324.511 155.943 323.873 155.123 323.53 154.17C322.4 151.6 322.1 148.76 321.65 145.98C321.2 143.2 320.53 140.36 318.83 138.13C317.13 135.9 314.12 134.43 311.45 135.3C310.557 135.646 309.743 136.167 309.056 136.834C308.369 137.5 307.823 138.298 307.45 139.18C306.71 140.946 306.205 142.802 305.95 144.7C304.703 151.493 303.237 158.24 301.55 164.94C301.503 165.216 301.39 165.477 301.22 165.7C300.952 165.963 300.595 166.117 300.22 166.13C297.98 166.42 295.83 164.86 293.58 165.02C290.81 165.22 288.78 167.9 286.05 168.34C284.309 168.496 282.562 168.108 281.05 167.23C280.355 166.931 279.731 166.488 279.22 165.93C278.986 166.265 278.831 166.649 278.767 167.052C278.703 167.456 278.731 167.869 278.85 168.26C279.29 169.191 280.081 169.91 281.05 170.26C282.562 171.138 284.309 171.526 286.05 171.37C288.78 170.93 290.81 168.25 293.58 168.05C295.83 167.89 297.98 169.45 300.22 169.16C300.595 169.147 300.952 168.993 301.22 168.73C301.39 168.507 301.503 168.246 301.55 167.97C303.23 161.303 304.697 154.557 305.95 147.73C306.205 145.832 306.71 143.976 307.45 142.21C307.823 141.328 308.369 140.53 309.056 139.864C309.743 139.197 310.557 138.676 311.45 138.33C314.12 137.46 317.12 138.93 318.83 141.16C320.54 143.39 321.19 146.24 321.65 149.01C322.11 151.78 322.4 154.63 323.53 157.2C323.873 158.153 324.511 158.973 325.35 159.54C326.85 160.41 328.87 159.72 330.02 158.42C331.072 157.028 331.76 155.395 332.02 153.67C332.283 151.948 332.855 150.288 333.71 148.77C335.29 146.41 338.18 145.35 340.94 144.67C343.7 143.99 346.61 143.54 348.94 141.89C350.774 140.412 352.268 138.557 353.32 136.45C354.8 133.88 356.18 131.08 356.06 128.11C356.04 127.728 356 127.348 355.94 126.97C355.458 129.259 354.57 131.443 353.32 133.42V133.42Z" fill="black"/>
</g>
<path opacity="0.1" d="M356.1 133.72C358.664 138.28 360.184 143.352 360.55 148.57C351.64 143.57 343.26 138.08 339.03 136.17C331.66 132.84 304.1 133.34 293.74 133.65C294.824 131.714 296.089 129.886 297.52 128.19C299.887 125.378 302.669 122.944 305.77 120.97C309.876 118.364 314.471 116.623 319.273 115.853C324.076 115.083 328.985 115.3 333.7 116.491C338.415 117.683 342.838 119.823 346.698 122.782C350.558 125.741 353.774 129.456 356.15 133.7L356.1 133.72Z" fill="black"/>
<path opacity="0.1" d="M387.9 157.55C383.09 159.03 375.24 156.17 367.1 152.07C365.973 150.637 364.947 149.126 364.03 147.55L391.49 152.73C393.31 153.97 393.77 155.74 387.9 157.55Z" fill="black"/>
<path d="M327.03 99.05C327.03 99.05 300.78 97.55 293.4 111.8L292.21 124.43L290.21 124.21L289.81 132.8C289.81 132.8 329.93 131.05 339.06 135.17C348.19 139.29 376.56 160.05 387.93 156.55C399.3 153.05 386.93 149.8 386.93 149.8C386.93 149.8 371.28 143.17 371.28 137.97C371.28 132.77 367.4 105.3 327.03 99.05Z" fill="#444053"/>
<path opacity="0.1" d="M276.4 567.25C276.4 567.25 293.15 583.5 300.4 582.25C300.4 582.25 279.9 580.5 276.4 567.25Z" fill="black"/>
<path opacity="0.1" d="M272.9 574.78C272.9 574.78 274.4 583.14 278.4 582.32C282.4 581.5 272.9 574.78 272.9 574.78Z" fill="black"/>
<path opacity="0.1" d="M299.15 714.5C299.15 714.5 275.37 733 279.38 733.5C283.39 734 299.15 714.5 299.15 714.5Z" fill="black"/>
<path d="M330.96 347.33L407.96 334.8V407.7L334.8 403.87L330.96 347.33Z" fill="#AB3C2A"/>
<path opacity="0.05" d="M330.96 347.33L407.96 334.8V407.7L334.8 403.87L330.96 347.33Z" fill="black"/>
<path d="M407.96 334.8L500.3 341.71L495.19 405.15L407.96 407.7V334.8Z" fill="#AB3C2A"/>
<path opacity="0.1" d="M407.96 334.8L500.3 341.71L495.19 405.15L407.96 407.7V334.8Z" fill="black"/>
<path d="M436.35 312.55L407.96 334.8L500.3 341.71L515.39 318.94L436.35 312.55Z" fill="#AB3C2A"/>
<path d="M303.08 323.03L372.4 314.59L407.96 334.8L330.96 347.33L303.08 323.03Z" fill="#AB3C2A"/>
<path d="M424.84 353.73V453.4L388.77 449.7L373.08 448.1L368.3 447.6L352.62 445.99L330.96 443.77V347.33L407.95 352.57L424.84 353.73Z" fill="#AB3C2A"/>
<path d="M500.3 341.71V438.91L471.39 444.46L457.33 447.16L424.84 453.4V353.73L500.3 341.71Z" fill="#AB3C2A"/>
<path opacity="0.05" d="M500.3 341.71V438.91L471.39 444.46L457.33 447.16L424.84 453.4V353.73L500.3 341.71Z" fill="black"/>
<path d="M303.08 368.31L330.96 347.33L424.84 353.73L411.02 377.01L303.08 368.31Z" fill="#AB3C2A"/>
<path opacity="0.1" d="M303.08 368.31L330.96 347.33L424.84 353.73L411.02 377.01L303.08 368.31Z" fill="white"/>
<path d="M500.3 341.71L424.84 353.73L449.4 375.73L530.23 362.17L500.3 341.71Z" fill="#AB3C2A"/>
<path opacity="0.1" d="M500.3 341.71L424.84 353.73L449.4 375.73L530.23 362.17L500.3 341.71Z" fill="white"/>
<path opacity="0.1" d="M471.39 444.46L457.33 447.16V426.39L470.5 423.07L471.39 444.46Z" fill="white"/>
<path opacity="0.1" d="M388.77 435.96V449.7L373.08 448.1V435.96H388.77Z" fill="white"/>
<path opacity="0.1" d="M368.3 440.29V447.6L352.62 445.99V440.29H368.3Z" fill="white"/>
<path opacity="0.1" d="M415.4 428.67C404.65 442.42 369.15 432.92 369.15 432.92L342.77 405.4L339.19 401.67L346.19 388.67C346.19 388.67 348.19 389.33 351.53 390.49C369.21 396.67 424.45 417.1 415.4 428.67Z" fill="black"/>
<path d="M414.4 426.67C403.65 440.42 368.15 430.92 368.15 430.92L341.77 403.4L338.19 399.67L345.19 386.67C345.19 386.67 347.19 387.33 350.53 388.49C368.21 394.67 423.45 415.1 414.4 426.67Z" fill="#EFB7B9"/>
<path opacity="0.1" d="M350.49 388.49C349.03 392.69 345.32 398.91 341.73 403.4L338.15 399.67L345.15 386.67C345.15 386.67 347.16 387.33 350.49 388.49Z" fill="black"/>
<path d="M263.15 232.97C263.15 232.97 236.9 242.97 236.65 270.97C236.59 289.013 237.592 307.044 239.65 324.97C239.65 324.97 232.15 366.72 253.4 378.72C274.65 390.72 294.4 400.72 294.4 400.72C294.4 400.72 328.35 406.22 332.52 407.97C336.69 409.72 351.18 387.22 348.93 383.47C346.68 379.72 315.77 370.47 312.1 364.22C308.43 357.97 299.39 353.76 299.39 353.76C299.39 353.76 290.17 347.47 289.8 342.22C289.43 336.97 292.15 333.22 292.92 330.97C293.69 328.72 296.48 306.72 296.48 306.72C296.48 306.72 311.4 228.67 263.15 232.97Z" fill="#DCE6F2"/>
<path opacity="0.1" d="M275.15 325.67C275.15 325.67 239.65 329.67 242.4 342.17C242.4 342.17 255.89 329.56 275.15 325.67Z" fill="black"/>
<path opacity="0.1" d="M275.15 330.67C275.15 330.67 255 345.42 258.7 346.42C262.4 347.42 275.15 330.67 275.15 330.67Z" fill="black"/>
<path opacity="0.1" d="M284.15 336.67C284.15 336.67 278.4 347.01 281.65 346.47C284.9 345.93 284.15 336.67 284.15 336.67Z" fill="black"/>
<path d="M653.77 112.39C653.77 112.39 615.77 110.1 620.21 136.76C620.21 136.76 619.32 141.47 623.59 143.61C623.59 143.61 623.66 141.61 627.49 142.3C628.854 142.53 630.24 142.597 631.62 142.5C633.49 142.375 635.267 141.641 636.68 140.41V140.41C636.68 140.41 647.37 136 651.53 118.52C651.53 118.52 654.61 114.7 654.53 113.72L648.11 116.47C648.11 116.47 650.3 121.1 648.57 124.95C648.57 124.95 648.37 116.64 647.13 116.83C646.88 116.83 643.8 118.44 643.8 118.44C643.8 118.44 647.57 126.5 644.72 132.37C644.72 132.37 645.8 122.43 642.62 119.02L638.1 121.66C638.1 121.66 642.51 129.99 639.52 136.79C639.52 136.79 640.29 126.36 637.15 122.3L633.05 125.49C633.05 125.49 637.2 133.71 634.67 139.35C634.67 139.35 634.34 127.21 632.16 126.29C632.16 126.29 628.58 129.45 628.04 130.75C628.04 130.75 630.87 136.75 629.11 139.86C629.11 139.86 628.03 131.77 627.11 131.73C627.11 131.73 623.54 137.09 623.17 140.73C623.343 137.337 624.401 134.047 626.24 131.19C624.182 131.579 622.284 132.563 620.78 134.02C620.78 134.02 621.33 130.23 627.12 129.9C627.12 129.9 630.12 125.83 630.86 125.58C630.86 125.58 625.1 125.1 621.61 126.65C621.61 126.65 624.68 123.08 631.92 124.65L635.92 121.35C635.92 121.35 628.34 120.35 625.12 121.46C625.12 121.46 628.82 118.3 637.01 120.6L641.41 117.97C641.41 117.97 634.95 116.57 631.1 117.08C631.1 117.08 635.16 114.89 642.7 117.26L645.85 115.85C645.85 115.85 641.11 114.92 639.73 114.77C638.35 114.62 638.27 114.24 638.27 114.24C641.269 113.741 644.347 114.087 647.16 115.24C647.16 115.24 653.91 112.81 653.77 112.39Z" fill="#AB3C2A"/>
<path opacity="0.1" d="M769.23 245.73C769.23 245.73 731.23 243.44 735.67 270.1C735.67 270.1 734.78 274.81 739.05 276.95C739.05 276.95 739.12 274.95 742.96 275.64C744.324 275.869 745.71 275.937 747.09 275.84C748.938 275.706 750.692 274.976 752.09 273.76V273.76C752.09 273.76 762.79 269.34 766.95 251.86C766.95 251.86 770.02 248.05 769.9 247.07L763.48 249.81C763.48 249.81 765.67 254.44 763.95 258.29C763.95 258.29 763.74 249.98 762.51 250.17C762.26 250.17 759.17 251.78 759.17 251.78C759.17 251.78 762.95 259.85 760.1 265.71C760.1 265.71 761.18 255.77 757.99 252.36L753.52 254.97C753.52 254.97 757.93 263.3 754.94 270.1C754.94 270.1 755.71 259.67 752.57 255.61L748.48 258.81C748.48 258.81 752.62 267.02 750.1 272.66C750.1 272.66 749.77 260.52 747.59 259.6C747.59 259.6 744.01 262.76 743.46 264.06C743.46 264.06 746.3 270.06 744.54 273.17C744.54 273.17 743.46 265.08 742.54 265.04C742.54 265.04 738.97 270.4 738.6 274.04C738.779 270.646 739.84 267.358 741.68 264.5C739.62 264.89 737.719 265.874 736.21 267.33C736.21 267.33 736.77 263.54 742.56 263.21C742.56 263.21 745.51 259.14 746.3 258.89C746.3 258.89 740.54 258.41 737.05 259.96C737.05 259.96 740.12 256.39 747.35 258.01L751.35 254.71C751.35 254.71 743.76 253.71 740.55 254.82C740.55 254.82 744.25 251.66 752.44 253.96L756.84 251.33C756.84 251.33 750.37 249.94 746.52 250.44C746.52 250.44 750.59 248.25 758.13 250.62L761.28 249.21C761.28 249.21 756.54 248.28 755.15 248.13C753.76 247.98 753.69 247.6 753.69 247.6C756.692 247.1 759.774 247.447 762.59 248.6C762.59 248.6 769.35 246.15 769.23 245.73Z" fill="#AB3C2A"/>
<path opacity="0.1" d="M538.38 222.06C538.38 222.06 547.13 184.97 520.09 184.84C520.09 184.84 515.6 183.16 512.77 187C512.77 187 514.7 187.41 513.39 191.07C512.937 192.364 512.635 193.706 512.49 195.07C512.296 196.929 512.714 198.8 513.68 200.4V200.4C513.68 200.4 516.21 211.7 532.68 218.78C532.68 218.78 535.92 222.46 536.9 222.5L535.3 215.71C535.3 215.71 530.36 217.08 526.86 214.71C526.86 214.71 535.09 215.92 535.1 214.71C535.1 214.46 534.1 211.15 534.1 211.15C534.1 211.15 525.51 213.49 520.21 209.68C520.21 209.68 529.82 212.44 533.73 209.89L531.93 204.97C531.93 204.97 522.93 207.9 516.77 203.79C516.77 203.79 526.92 206.33 531.46 203.93L529.01 199.35C529.01 199.35 520.21 202.03 515.08 198.58C515.08 198.58 527.08 200.32 528.38 198.34C528.38 198.34 525.88 194.27 524.69 193.51C524.69 193.51 518.33 195.29 515.53 193.02C515.53 193.02 523.68 193.33 523.87 192.47C523.87 192.47 519.2 188.04 515.64 187.04C518.958 187.795 522.021 189.401 524.53 191.7C524.493 189.604 523.847 187.564 522.67 185.83C522.67 185.83 526.31 187.03 525.67 192.83C525.67 192.83 529.17 196.43 529.28 197.25C529.28 197.25 530.73 191.66 529.8 187.95C529.8 187.95 532.8 191.59 529.97 198.44L532.53 202.99C532.53 202.99 534.85 195.69 534.26 192.33C534.26 192.33 536.75 196.51 533.08 204.19L534.93 208.98C534.93 208.98 537.4 202.84 537.56 198.98C537.56 198.98 539.03 203.36 535.4 210.39L536.26 213.73C536.26 213.73 537.98 209.22 538.36 207.88C538.74 206.54 539.13 206.53 539.13 206.53C539.115 209.572 538.253 212.55 536.64 215.13C536.64 215.13 537.95 222.11 538.38 222.06Z" fill="#AB3C2A"/>
<path opacity="0.1" d="M455.16 234.7C455.16 234.7 424.64 211.87 413.73 236.6C413.73 236.6 410.4 240.05 412.79 244.18C412.79 244.18 413.93 242.57 416.79 245.24C417.803 246.182 418.924 247.002 420.13 247.68C421.763 248.589 423.649 248.941 425.5 248.68V248.68C425.5 248.68 436.86 250.87 449.94 238.56C449.94 238.56 454.61 237.06 455.05 236.18L448.16 234.97C448.16 234.97 447.44 240.04 443.89 242.31C443.89 242.31 448.28 235.25 447.14 234.74C446.91 234.63 443.47 234.24 443.47 234.24C443.47 234.24 442.19 243.06 436.59 246.39C436.59 246.39 442.96 238.68 442.17 234.08L436.94 233.8C436.94 233.8 436.05 243.19 429.81 247.23C429.81 247.23 436.18 238.94 435.81 233.82L430.63 234.24C430.63 234.24 429.58 243.37 424.37 246.69C424.37 246.69 430.76 236.37 429.45 234.41C429.45 234.41 424.72 235.08 423.55 235.86C423.55 235.86 422.64 242.4 419.44 244.06C419.44 244.06 422.99 236.71 422.27 236.2C422.27 236.2 416.34 238.71 414.01 241.57C416.026 238.832 418.721 236.667 421.83 235.29C419.896 234.486 417.769 234.264 415.71 234.65C415.71 234.65 418.25 231.79 423.27 234.7C423.27 234.7 427.97 232.93 428.77 233.15C428.77 233.15 424.22 229.58 420.45 228.96C420.45 228.96 424.99 227.66 430.14 232.96L435.33 232.43C435.33 232.43 429.56 227.43 426.25 226.59C426.25 226.59 431.08 225.98 436.65 232.4L441.77 232.63C441.77 232.63 437.14 227.91 433.65 226.21C433.65 226.21 438.24 226.61 443.24 232.74L446.65 233.29C446.65 233.29 443.2 229.91 442.12 229.03C441.04 228.15 441.19 227.78 441.19 227.78C443.972 229.012 446.357 230.992 448.08 233.5C448.08 233.5 455.03 235.11 455.16 234.7Z" fill="#AB3C2A"/>
<path opacity="0.1" d="M556.77 22.59C556.77 22.59 526.25 -0.250027 515.34 24.49C515.34 24.49 512.01 27.94 514.4 32.07C514.4 32.07 515.54 30.46 518.4 33.13C519.418 34.0676 520.543 34.8831 521.75 35.56C523.383 36.4701 525.269 36.8213 527.12 36.56V36.56C527.12 36.56 538.48 38.75 551.56 26.43C551.56 26.43 556.23 24.94 556.66 24.05L549.77 22.86C549.77 22.86 549.06 27.93 545.5 30.2C545.5 30.2 549.9 23.14 548.76 22.63C548.53 22.52 545.09 22.13 545.09 22.13C545.09 22.13 543.77 30.97 538.17 34.28C538.17 34.28 544.53 26.57 543.75 21.97L538.52 21.69C538.52 21.69 537.62 31.08 531.39 35.11C531.39 35.11 537.76 26.82 537.39 21.7L532.22 22.12C532.22 22.12 531.16 31.26 525.95 34.58C525.95 34.58 532.35 24.26 531.04 22.3C531.04 22.3 526.31 22.97 525.14 23.75C525.14 23.75 524.23 30.29 521.03 31.95C521.03 31.95 524.58 24.6 523.86 24.08C523.86 24.08 517.93 26.6 515.6 29.46C517.613 26.7187 520.309 24.5533 523.42 23.18C521.484 22.37 519.352 22.1475 517.29 22.54C517.29 22.54 519.84 19.68 524.86 22.59C524.86 22.59 529.56 20.81 530.36 21.04C530.36 21.04 525.81 17.47 522.04 16.84C522.04 16.84 526.57 15.55 531.72 20.84L536.91 20.31C536.91 20.31 531.15 15.31 527.83 14.46C527.83 14.46 532.66 13.86 538.24 20.28L543.36 20.5C543.36 20.5 538.73 15.78 535.23 14.09C535.23 14.09 539.83 14.49 544.83 20.62L548.23 21.17C548.23 21.17 544.77 17.83 543.69 16.97C542.61 16.11 542.76 15.73 542.76 15.73C545.543 16.9606 547.928 18.9411 549.65 21.45C549.65 21.45 556.6 22.97 556.77 22.59Z" fill="#AB3C2A"/>
<path opacity="0.1" d="M673.39 51.5199C673.39 51.5199 661.19 15.4099 638.18 29.5999C638.18 29.5999 633.48 30.5999 633.11 35.3099C633.11 35.3099 634.96 34.6299 635.78 38.4299C636.085 39.7816 636.544 41.0937 637.15 42.3399C637.977 44.0171 639.324 45.3818 640.99 46.2299V46.2299C640.99 46.2299 649.11 54.4799 666.87 51.7499C666.87 51.7499 671.56 53.1699 672.42 52.6799L667.42 47.7699C667.42 47.7699 663.96 51.5399 659.74 51.3899C659.74 51.3899 667.37 48.0699 666.74 46.9999C666.61 46.7899 664 44.5199 664 44.5199C664 44.5199 657.94 51.0499 651.44 50.6199C651.44 50.6199 661.05 47.8799 663.01 43.6199L658.87 40.4299C658.87 40.4299 652.81 47.6499 645.38 47.4299C645.38 47.4299 655.38 44.2199 657.91 39.7799L653.41 37.1899C653.41 37.1899 647.41 44.1199 641.19 43.8999C641.19 43.8999 652.31 39.0299 652.34 36.6699C652.34 36.6699 648.07 34.5399 646.66 34.5199C646.66 34.5199 642.2 39.3899 638.66 38.9499C638.66 38.9499 645.74 34.8999 645.44 34.0699C645.44 34.0699 639.14 32.7799 635.59 33.8199C638.801 32.702 642.248 32.4434 645.59 33.0699C644.449 31.3089 642.819 29.9188 640.9 29.0699C640.9 29.0699 644.62 28.1599 647.11 33.3999C647.11 33.3999 651.99 34.6099 652.51 35.2399C652.51 35.2399 650.79 29.7299 648.04 27.0699C648.04 27.0699 652.51 28.5799 653.73 35.8899L658.31 38.3899C658.31 38.3899 656.42 30.9799 654.14 28.3899C654.14 28.3899 658.47 30.6299 659.41 39.0799L663.51 42.1699C663.51 42.1699 662.37 35.6499 660.45 32.2699C660.45 32.2699 664.01 35.2099 664.65 43.0999L667.14 45.4799C667.14 45.4799 666.22 40.7399 665.84 39.3999C665.46 38.0599 665.77 37.9699 665.77 37.9699C667.36 40.5641 668.201 43.5474 668.2 46.5899C668.2 46.5899 673.04 51.7799 673.39 51.5199Z" fill="#AB3C2A"/>
<path opacity="0.1" d="M593.77 53.2999C593.77 53.2999 555.87 49.0799 559 75.9699C559 75.9699 557.87 80.6299 562 82.9699C562 82.9699 562.17 80.9699 566 81.8699C567.354 82.1611 568.736 82.2987 570.12 82.2799C571.99 82.2461 573.798 81.6037 575.27 80.4499V80.4499C575.27 80.4499 586.18 76.5799 591.27 59.3299C591.27 59.3299 594.53 55.6799 594.46 54.6899L587.91 57.1099C587.91 57.1099 589.91 61.8399 587.91 65.5999C587.91 65.5999 588.12 57.2899 586.91 57.4199C586.66 57.4199 583.5 58.8599 583.5 58.8599C583.5 58.8599 586.86 67.1099 583.72 72.8599C583.72 72.8599 585.3 62.9799 582.29 59.4199L577.64 61.8199C577.64 61.8199 581.64 70.3699 578.29 77.0099C578.29 77.0099 579.59 66.6299 576.66 62.4199L572.41 65.4199C572.41 65.4199 576.13 73.8299 573.32 79.3399C573.32 79.3399 573.61 67.1999 571.48 66.1699C571.48 66.1699 567.74 69.1699 567.13 70.4099C567.13 70.4099 569.66 76.5099 567.75 79.5599C567.75 79.5599 567.08 71.4299 566.2 71.3499C566.2 71.3499 562.36 76.5199 561.8 80.1699C562.147 76.7859 563.374 73.5519 565.36 70.7899C563.285 71.0767 561.339 71.9629 559.76 73.3399C559.76 73.3399 560.5 69.5899 566.3 69.5499C566.3 69.5499 569.45 65.6399 570.3 65.4299C570.3 65.4299 564.57 64.6599 561 66.0299C561 66.0299 564.25 62.6099 571.39 64.5999L575.6 61.5099C575.6 61.5099 567.99 59.9699 564.77 60.9699C564.77 60.9699 568.63 57.9699 576.69 60.7199L581.22 58.3099C581.22 58.3099 574.83 56.5899 570.96 56.8999C570.96 56.8999 575.13 54.8999 582.54 57.6699L585.76 56.4199C585.76 56.4199 581.07 55.2499 579.69 55.0299C578.31 54.8099 578.26 54.4299 578.26 54.4299C581.283 54.083 584.343 54.5815 587.1 55.8699C587.1 55.8699 593.84 53.7199 593.77 53.2999Z" fill="#AB3C2A"/>
<path opacity="0.1" d="M925.37 347.47C925.37 347.47 887.49 343.25 890.62 370.11C890.62 370.11 889.49 374.77 893.62 377.11C893.62 377.11 893.79 375.11 897.62 376C898.972 376.301 900.355 376.439 901.74 376.41C903.611 376.381 905.421 375.738 906.89 374.58V374.58C906.89 374.58 917.8 370.71 922.84 353.47C922.84 353.47 926.1 349.81 926.03 348.83L919.48 351.24C919.48 351.24 921.48 355.98 919.48 359.74C919.48 359.74 919.69 351.42 918.48 351.56C918.23 351.56 915.07 352.99 915.07 352.99C915.07 352.99 918.43 361.24 915.29 366.99C915.29 366.99 916.87 357.12 913.86 353.55L909.21 355.96C909.21 355.96 913.21 364.51 909.87 371.15C909.87 371.15 911.16 360.77 908.23 356.55L903.98 359.55C903.98 359.55 907.7 367.96 904.89 373.46C904.89 373.46 905.18 361.32 903.05 360.3C903.05 360.3 899.32 363.3 898.7 364.54C898.7 364.54 901.24 370.64 899.32 373.69C899.32 373.69 898.65 365.56 897.77 365.48C897.77 365.48 893.93 370.65 893.37 374.3C893.717 370.916 894.944 367.682 896.93 364.92C894.853 365.202 892.906 366.089 891.33 367.47C891.33 367.47 892.07 363.71 897.87 363.67C897.87 363.67 901.03 359.76 901.87 359.56C901.87 359.56 896.14 358.78 892.57 360.15C892.57 360.15 895.82 356.74 902.97 358.73L907.17 355.64C907.17 355.64 899.65 354.22 896.38 355.2C896.38 355.2 900.24 352.2 908.3 354.94L912.83 352.54C912.83 352.54 906.44 350.82 902.57 351.13C902.57 351.13 906.74 349.13 914.15 351.9L917.37 350.64C917.37 350.64 912.68 349.47 911.3 349.26C909.92 349.05 909.87 348.66 909.87 348.66C912.892 348.307 915.953 348.802 918.71 350.09C918.71 350.09 925.47 347.9 925.37 347.47Z" fill="#AB3C2A"/>
<path opacity="0.1" d="M983.28 382.85C983.28 382.85 945.4 378.64 948.53 405.49C948.53 405.49 947.41 410.15 951.53 412.49C951.53 412.49 951.7 410.49 955.53 411.39C956.88 411.684 958.259 411.818 959.64 411.79C961.501 411.752 963.301 411.114 964.77 409.97V409.97C964.77 409.97 975.67 406.1 980.71 388.85C980.71 388.85 983.98 385.2 983.9 384.21L977.35 386.62C977.35 386.62 979.35 391.36 977.35 395.12C977.35 395.12 977.56 386.81 976.35 386.94C976.1 386.94 972.94 388.37 972.94 388.37C972.94 388.37 976.3 396.62 973.16 402.37C973.16 402.37 974.74 392.5 971.73 388.94L967.08 391.34C967.08 391.34 971.08 399.89 967.74 406.53C967.74 406.53 969.03 396.15 966.1 391.94L961.85 394.94C961.85 394.94 965.57 403.35 962.77 408.86C962.77 408.86 963.05 396.71 960.92 395.69C960.92 395.69 957.19 398.69 956.57 399.93C956.57 399.93 959.11 406.03 957.19 409.08C957.19 409.08 956.52 400.95 955.64 400.87C955.64 400.87 951.8 406.04 951.25 409.69C951.596 406.308 952.82 403.074 954.8 400.31C952.725 400.597 950.779 401.483 949.2 402.86C949.2 402.86 949.95 399.1 955.75 399.07C955.75 399.07 958.9 395.16 959.75 394.95C959.75 394.95 954.02 394.18 950.45 395.55C950.45 395.55 953.7 392.13 960.85 394.12L965.05 391.03C965.05 391.03 957.53 389.61 954.26 390.59C954.26 390.59 958.12 387.59 966.18 390.34L970.71 387.93C970.71 387.93 964.32 386.21 960.45 386.52C960.45 386.52 964.62 384.52 972.03 387.29L975.25 386.04C975.25 386.04 970.56 384.87 969.19 384.65C967.82 384.43 967.75 384.05 967.75 384.05C970.773 383.703 973.833 384.202 976.59 385.49C976.59 385.49 983.38 383.28 983.28 382.85Z" fill="#AB3C2A"/>
<path opacity="0.1" d="M854.71 84.8399C854.71 84.8399 824.19 62.0099 813.28 86.7399C813.28 86.7399 809.95 90.1899 812.34 94.3199C812.34 94.3199 813.48 92.7099 816.34 95.3799C817.353 96.3224 818.474 97.1414 819.68 97.8199C821.314 98.7287 823.199 99.0798 825.05 98.8199V98.8199C825.05 98.8199 836.41 101.01 849.5 88.6999C849.5 88.6999 854.16 87.1999 854.6 86.3199L847.73 85.0799C847.73 85.0799 847.01 90.1499 843.46 92.4199C843.46 92.4199 847.85 85.3599 846.71 84.8499C846.48 84.7399 843.05 84.3499 843.05 84.3499C843.05 84.3499 841.76 93.1699 836.16 96.4999C836.16 96.4999 842.53 88.7899 841.74 84.1899L836.51 83.9099C836.51 83.9099 835.62 93.2999 829.38 97.3399C829.38 97.3399 835.76 89.0499 835.38 83.9299L830.2 84.3499C830.2 84.3499 829.2 93.4799 823.94 96.7999C823.94 96.7999 830.34 86.4799 829.02 84.5199C829.02 84.5199 824.29 85.1899 823.12 85.9699C823.12 85.9699 822.22 92.5099 819.02 94.1699C819.02 94.1699 822.56 86.8199 821.84 86.3099C821.84 86.3099 815.91 88.8199 813.58 91.6799C815.596 88.9416 818.291 86.7768 821.4 85.3999C819.466 84.596 817.339 84.3735 815.28 84.7599C815.28 84.7599 817.83 81.8999 822.85 84.8099C822.85 84.8099 827.54 83.0399 828.34 83.2599C828.34 83.2599 823.79 79.6899 820.02 79.0699C820.02 79.0699 824.56 77.7699 829.71 83.0699L834.9 82.5399C834.9 82.5399 829.14 77.5399 825.82 76.6999C825.82 76.6999 830.65 76.0899 836.22 82.5099L841.35 82.7399C841.35 82.7399 836.71 78.0199 833.22 76.3199C833.22 76.3199 837.82 76.7199 842.81 82.8499L846.22 83.3999C846.22 83.3999 842.77 80.0199 841.69 79.1399C840.61 78.2599 840.77 77.9699 840.77 77.9699C843.548 79.2039 845.93 81.1839 847.65 83.6899C847.65 83.6899 854.58 85.2499 854.71 84.8399Z" fill="#AB3C2A"/>
<path opacity="0.1" d="M878.29 249.66C878.29 249.66 867.77 213.03 844.11 226.18C844.11 226.18 839.37 226.91 838.78 231.65C838.78 231.65 840.66 231.06 841.31 234.89C841.551 236.266 841.954 237.609 842.51 238.89C843.252 240.613 844.537 242.046 846.17 242.97V242.97C846.17 242.97 853.91 251.57 871.77 249.65C871.77 249.65 876.39 251.27 877.27 250.83L872.54 245.69C872.54 245.69 868.91 249.31 864.71 248.97C864.71 248.97 872.47 245.97 871.87 244.9C871.75 244.68 869.25 242.29 869.25 242.29C869.25 242.29 862.91 248.55 856.43 247.82C856.43 247.82 866.16 245.52 868.3 241.38L864.3 238C864.3 238 857.92 244.94 850.51 244.4C850.51 244.4 860.59 241.63 863.37 237.32L858.99 234.53C858.99 234.53 852.64 241.18 846.48 240.68C846.48 240.68 857.81 236.31 857.95 233.96C857.95 233.96 853.77 231.64 852.36 231.56C852.36 231.56 847.69 236.22 844.14 235.62C844.14 235.62 851.4 231.89 851.14 231.05C851.14 231.05 844.9 229.48 841.31 230.35C844.561 229.386 848.008 229.286 851.31 230.06C850.252 228.251 848.688 226.791 846.81 225.86C846.81 225.86 850.57 225.11 852.81 230.46C852.81 230.46 857.62 231.88 858.12 232.54C858.12 232.54 856.65 226.95 854.02 224.18C854.02 224.18 858.42 225.88 859.31 233.24L863.77 235.95C863.77 235.95 862.21 228.45 860.05 225.81C860.05 225.81 864.27 228.24 864.84 236.72L868.84 239.99C868.84 239.99 867.99 233.43 866.23 229.99C866.23 229.99 869.66 233.09 869.94 240.99L872.32 243.49C872.32 243.49 871.62 238.71 871.32 237.35C871.02 235.99 871.32 235.8 871.32 235.8C872.8 238.46 873.51 241.479 873.37 244.52C873.37 244.52 877.93 249.9 878.29 249.66Z" fill="#AB3C2A"/>
<path opacity="0.1" d="M643.87 332.2C643.87 332.2 623.44 300.02 604.47 319.28C604.47 319.28 600.13 321.28 600.89 326.03C600.89 326.03 602.54 324.93 604.24 328.43C604.851 329.67 605.61 330.832 606.5 331.89C607.692 333.334 609.326 334.346 611.15 334.77V334.77C611.15 334.77 621 340.85 637.6 333.97C637.6 333.97 642.49 334.23 643.21 333.56L637.21 329.96C637.21 329.96 634.74 334.46 630.61 335.31C630.61 335.31 637.23 330.31 636.34 329.39C636.17 329.21 633.09 327.63 633.09 327.63C633.09 327.63 628.76 335.41 622.34 336.54C622.34 336.54 631.03 331.59 631.93 327.01L627.14 324.9C627.14 324.9 622.97 333.35 615.71 334.9C615.71 334.9 624.61 329.41 626.06 324.49L621.06 323.05C621.06 323.05 616.84 331.22 610.79 332.47C610.79 332.47 620.43 325.09 619.9 322.79C619.9 322.79 615.24 321.74 613.9 322.06C613.9 322.06 610.73 327.85 607.15 328.27C607.15 328.27 613.07 322.65 612.58 321.91C612.58 321.91 606.15 322.16 602.95 324.01C605.804 322.161 609.094 321.092 612.49 320.91C610.969 319.471 609.061 318.508 607 318.14C607 318.14 610.39 316.37 614 320.87C614 320.87 619 320.87 619.69 321.37C619.69 321.37 616.69 316.37 613.4 314.5C613.4 314.5 618.1 314.9 621.02 321.71L626.07 323.05C626.07 323.05 622.46 316.3 619.65 314.37C619.65 314.37 624.38 315.51 627.31 323.5L632.03 325.5C632.03 325.5 629.37 319.45 626.7 316.62C626.7 316.62 630.86 318.62 633.35 326.13L636.35 327.86C636.35 327.86 634.35 323.47 633.64 322.26C632.93 321.05 633.21 320.77 633.21 320.77C635.374 322.907 636.901 325.605 637.62 328.56C637.62 328.56 643.6 332.54 643.87 332.2Z" fill="#AB3C2A"/>
<path d="M778.14 167.78C778.14 167.78 758.71 134.99 739.14 153.65C739.14 153.65 734.74 155.55 735.36 160.29C735.36 160.29 737.03 159.23 738.63 162.78C739.202 164.042 739.924 165.23 740.78 166.32C741.928 167.795 743.531 168.849 745.34 169.32V169.32C745.34 169.32 754.99 175.7 771.8 169.32C771.8 169.32 776.68 169.73 777.42 169.08L771.55 165.3C771.55 165.3 768.95 169.71 764.79 170.44C764.79 170.44 771.56 165.61 770.71 164.7C770.53 164.51 767.51 162.83 767.51 162.83C767.51 162.83 762.94 170.48 756.51 171.41C756.51 171.41 765.35 166.73 766.38 162.19L761.66 159.97C761.66 159.97 757.23 168.3 749.92 169.63C749.92 169.63 758.99 164.42 760.59 159.55L755.65 157.95C755.65 157.95 751.17 165.95 745.09 167.05C745.09 167.05 754.95 159.97 754.49 157.66C754.49 157.66 749.87 156.46 748.49 156.74C748.49 156.74 745.14 162.43 741.55 162.74C741.55 162.74 747.64 157.32 747.18 156.56C747.18 156.56 740.74 156.61 737.49 158.36C740.401 156.604 743.721 155.639 747.12 155.56C745.642 154.073 743.761 153.052 741.71 152.62C741.71 152.62 745.16 150.95 748.71 155.56C748.71 155.56 753.71 155.73 754.38 156.24C754.38 156.24 751.55 151.24 748.31 149.18C748.31 149.18 752.99 149.72 755.7 156.62L760.7 158.12C760.7 158.12 757.31 151.26 754.55 149.24C754.55 149.24 759.25 150.53 761.93 158.6L766.58 160.77C766.58 160.77 764.11 154.64 761.58 151.77C761.58 151.77 765.67 153.9 767.94 161.48L770.87 163.3C770.87 163.3 768.99 158.85 768.33 157.62C767.67 156.39 767.95 156.12 767.95 156.12C770.046 158.323 771.49 161.065 772.12 164.04C772.12 164.04 777.85 168.11 778.14 167.78Z" fill="#AB3C2A"/>
<path d="M655.21 236.73C655.21 236.73 656.21 198.63 629.74 204C629.74 204 625 203.27 623 207.61C623 207.61 625 207.61 624.44 211.46C624.257 212.833 624.237 214.223 624.38 215.6C624.561 217.469 625.351 219.226 626.63 220.6C626.63 220.6 631.4 231.14 649.01 234.72C649.01 234.72 652.92 237.67 653.9 237.51L650.9 231.19C650.9 231.19 646.35 233.53 642.44 231.94C642.44 231.94 650.74 231.45 650.51 230.23C650.51 229.98 648.79 226.94 648.79 226.94C648.79 226.94 640.85 230.99 634.9 228.33C634.9 228.33 644.9 229.08 648.17 225.79L645.38 221.36C645.38 221.36 637.2 226.04 630.3 223.28C630.3 223.28 640.75 223.7 644.71 220.43L641.38 216.43C641.38 216.43 633.31 220.85 627.59 218.51C627.59 218.51 639.71 217.78 640.59 215.57C640.59 215.57 637.31 212.1 635.99 211.57C635.99 211.57 630.13 214.57 626.93 212.95C626.93 212.95 634.93 211.61 634.98 210.72C634.98 210.72 629.51 207.33 625.82 207.08C629.223 207.141 632.55 208.093 635.47 209.84C635.014 207.796 633.972 205.93 632.47 204.47C632.47 204.47 636.28 204.9 636.8 210.67C636.8 210.67 640.97 213.49 641.24 214.27C641.24 214.27 641.53 208.5 639.86 205.06C639.86 205.06 643.54 208.01 642.16 215.29L645.59 219.23C645.59 219.23 646.37 211.61 645.12 208.44C645.12 208.44 648.4 212.03 646.38 220.29L649.15 224.6C649.15 224.6 650.33 218.09 649.7 214.26C649.7 214.26 652.02 218.26 649.9 225.87L651.42 228.97C651.42 228.97 652.19 224.2 652.29 222.81C652.39 221.42 652.77 221.33 652.77 221.33C653.372 224.313 653.133 227.405 652.08 230.26C652.08 230.26 654.77 236.86 655.21 236.73Z" fill="#AB3C2A"/>
<path opacity="0.1" d="M698.97 720.85C713.843 720.85 725.9 718.813 725.9 716.3C725.9 713.787 713.843 711.75 698.97 711.75C684.097 711.75 672.04 713.787 672.04 716.3C672.04 718.813 684.097 720.85 698.97 720.85Z" fill="#AB3C2A"/>
<path opacity="0.1" d="M600.8 789.93C615.673 789.93 627.73 787.893 627.73 785.38C627.73 782.867 615.673 780.83 600.8 780.83C585.927 780.83 573.87 782.867 573.87 785.38C573.87 787.893 585.927 789.93 600.8 789.93Z" fill="#AB3C2A"/>
<path opacity="0.1" d="M93.14 754.54C108.013 754.54 120.07 752.503 120.07 749.99C120.07 747.477 108.013 745.44 93.14 745.44C78.267 745.44 66.21 747.477 66.21 749.99C66.21 752.503 78.267 754.54 93.14 754.54Z" fill="#AB3C2A"/>
<path opacity="0.1" d="M805.06 785.38C819.933 785.38 831.99 783.343 831.99 780.83C831.99 778.317 819.933 776.28 805.06 776.28C790.187 776.28 778.13 778.317 778.13 780.83C778.13 783.343 790.187 785.38 805.06 785.38Z" fill="#AB3C2A"/>
<path d="M833.1 729.9C855.307 729.9 873.31 726.856 873.31 723.1C873.31 719.345 855.307 716.3 833.1 716.3C810.893 716.3 792.89 719.345 792.89 723.1C792.89 726.856 810.893 729.9 833.1 729.9Z" fill="#AB3C2A"/>
<path d="M849.77 711.97C851.606 710.478 852.942 708.462 853.6 706.19C854.1 703.89 853.12 701.14 850.93 700.3C848.47 699.36 845.84 701.06 843.84 702.78C841.84 704.5 839.57 706.47 836.96 706.11C838.3 704.893 839.302 703.35 839.87 701.631C840.438 699.912 840.551 698.076 840.2 696.3C840.087 695.564 839.776 694.873 839.3 694.3C837.93 692.84 835.46 693.47 833.82 694.62C828.62 698.28 827.17 705.34 827.14 711.7C826.62 709.41 827.06 707.02 827.05 704.7C827.04 702.38 826.39 699.7 824.4 698.48C823.179 697.799 821.798 697.454 820.4 697.48C818.06 697.4 815.45 697.63 813.86 699.34C811.86 701.46 812.39 705.03 814.11 707.34C815.83 709.65 818.46 711.14 820.88 712.76C822.817 713.917 824.471 715.492 825.72 717.37C825.862 717.632 825.98 717.906 826.07 718.19H840.73C844.012 716.537 847.053 714.444 849.77 711.97V711.97Z" fill="#AB3C2A"/>
<path d="M75.06 728.84C75.06 728.84 90.41 728.37 95.06 725.07C99.71 721.77 118.69 717.84 119.84 723.13C120.99 728.42 142.92 749.42 125.58 749.56C108.24 749.7 85.29 746.86 80.67 744.04C76.05 741.22 75.06 728.84 75.06 728.84Z" fill="#A8A8A8"/>
<path opacity="0.2" d="M125.87 747.72C108.53 747.86 85.58 745.02 80.96 742.2C77.44 740.06 76.04 732.37 75.57 728.82H75.06C75.06 728.82 76.06 741.21 80.65 744.02C85.24 746.83 108.22 749.68 125.56 749.54C130.56 749.54 132.29 747.72 132.2 745.08C131.5 746.69 129.59 747.69 125.87 747.72Z" fill="black"/>
</g>
<defs>
<linearGradient id="paint0_linear" x1="222.99" y1="433.42" x2="535.12" y2="433.42" gradientUnits="userSpaceOnUse">
<stop stop-color="#808080" stop-opacity="0.25"/>
<stop offset="0.54" stop-color="#808080" stop-opacity="0.12"/>
<stop offset="1" stop-color="#808080" stop-opacity="0.1"/>
</linearGradient>
<clipPath id="clip0">
<rect width="1009.54" height="789.93" fill="white"/>
</clipPath>
</defs>
</svg>
