<svg width="102" height="36" viewBox="0 0 102 36" fill="none" xmlns="http://www.w3.org/2000/svg">
<path d="M0.912 30.296L10.704 6.2H1.392V1.4H16.368V6.104L6.576 30.2H16.368V35H0.912V30.296ZM19.3586 1.4H24.6386V35H19.3586V1.4ZM28.593 1.4H35.217L40.353 21.512H40.449V1.4H45.153V35H39.729L33.393 10.472H33.297V35H28.593V1.4ZM56.5654 35.48C54.0054 35.48 52.0534 34.76 50.7094 33.32C49.3654 31.848 48.6934 29.752 48.6934 27.032V9.368C48.6934 6.648 49.3654 4.568 50.7094 3.128C52.0534 1.656 54.0054 0.919998 56.5654 0.919998C59.1254 0.919998 61.0774 1.656 62.4214 3.128C63.7654 4.568 64.4374 6.648 64.4374 9.368V12.248H59.4454V9.032C59.4454 6.824 58.5334 5.72 56.7094 5.72C54.8854 5.72 53.9734 6.824 53.9734 9.032V27.416C53.9734 29.592 54.8854 30.68 56.7094 30.68C58.5334 30.68 59.4454 29.592 59.4454 27.416V20.84H56.8054V16.04H64.4374V27.032C64.4374 29.752 63.7654 31.848 62.4214 33.32C61.0774 34.76 59.1254 35.48 56.5654 35.48ZM67.8274 1.4H82.2274V6.2H73.1074V15.08H80.3554V19.88H73.1074V30.2H82.2274V35H67.8274V1.4ZM85.2649 1.4H93.0889C95.8089 1.4 97.7929 2.04 99.0409 3.32C100.289 4.568 100.913 6.504 100.913 9.128V11.192C100.913 14.68 99.7609 16.888 97.4569 17.816V17.912C98.7369 18.296 99.6329 19.08 100.145 20.264C100.689 21.448 100.961 23.032 100.961 25.016V30.92C100.961 31.88 100.993 32.664 101.057 33.272C101.121 33.848 101.281 34.424 101.537 35H96.1609C95.9689 34.456 95.8409 33.944 95.7769 33.464C95.7129 32.984 95.6809 32.12 95.6809 30.872V24.728C95.6809 23.192 95.4249 22.12 94.9129 21.512C94.4329 20.904 93.5849 20.6 92.3689 20.6H90.5449V35H85.2649V1.4ZM92.4649 15.8C93.5209 15.8 94.3049 15.528 94.8169 14.984C95.3609 14.44 95.6329 13.528 95.6329 12.248V9.656C95.6329 8.44 95.4089 7.56 94.9609 7.016C94.5449 6.472 93.8729 6.2 92.9449 6.2H90.5449V15.8H92.4649Z" fill="black"/>
</svg>
